<svg xmlns="http://www.w3.org/2000/svg" width="378.7" height="376.6" viewBox="0 0 378.746 376.645"><circle fill="#78D0EF" cx="191.3" cy="189.3" r="183.9"/><path fill="#6CC1D8" d="M188.8 372.6c-101.5 0-184-82.3-184-184C5 87.2 87.4 5 189 5"/><path fill="#E6E7E8" d="M193.5 165.7v-1c-.3-2.5-1.7-4.6-4-6-1.4-.6-2.7-1-4-1-1 0-2 .2-3 .6l-.8.4c-1.2-.8-2.5-1-3.8-1-1 0-1.7 0-2.4.2-2 .6-6 2.8-5.4 10.2l-6.8 3.5c2.5-5 4-9.8 4.8-13 .3 0 .6 0 1-.2 1.3-.6 2.4-1.8 2.8-3.2 0-.3 8.4-28-22.7-46.4-11-6.5-21.7-9.8-32-9.8-7.8 0-13.6 1.8-17 3.3l-2.2 1c-1 .3-2.8.8-5.2 2-6.2 2.5-26.2 13.2-19.7 38 .3.7.8 1.5 1.3 2l-.8 3.8c-1 4-1.2 8-.6 11.7.2 3.4 1 6.7 2.3 9.7 2 5 5.5 9.5 10 13.2-.4 0-.6 0-.8-.2h-1c-1 0-2.3.3-3.2 1-.5.5-1 1-1.3 1.6l-9.4-.6v-.3c-.8-2.8-1.7-6.3-5-8-.8-.3-1.8-.6-2.8-.6-1 0-1.8 0-2.6.4H59c-2.3 1-3.8 2.8-4.5 5.2h-1c-2.6 0-5 1-6.7 3-1.8 2-2.5 4.5-1.8 7 .3 1 1 2.2 1.8 3-1 1.4-1.7 2.8-2 4-.4 2.5.3 4.7 2 6.5 1.5 1.7 3.6 2.6 5.7 2.7 1.2 1.6 3 2.7 5.4 3h1c4.2 0 7.8-3.2 10-9l10.2 1c1 1 2 1.8 3.4 2 6 .7 11.7 2 14.5 2.8-2 15-2 17-2 18 0 .7.2 1.5.5 2.2-2 7-4.2 15.5-3.3 19.2.7 2.8 3 4.2 4.4 5v1.6c-.4 5.2-.4 14.7 4 19.5 1 1 2 2 3.2 2.7-2 1.7-3.2 3.5-3.6 5.6-.6 2.8.5 5.6 2.8 7.5 2.2 1.8 5.4 2.8 9 2.8 2.7 0 5.4-.6 7.8-1.6 6-2.6 9.7-8 10.2-14.8v-.2-.2-.7c-.2-1.5-1-3-2.4-3.8l-2-1c-5.6-3-9.5-5.6-10.7-6.8-.3-1 0-3.8.7-7h1.2c4 0 5.6-.6 6.6-1 2-1.2 3.6-3.5 4.7-7 10 5.8 11.5 6 12.5 6h.4c1 0 2-.2 3.3-.7l1-.6c4.3 3.6 11.4 9 16.2 10 1 .3 2 .4 3 .4 2.8 0 6-.6 9.2-2 .2.7.5 1.3 1 2 2.6 4.4 7.2 7.3 11.7 7.3h1l2.7-.7c2.3-1 4-3 4.4-5.5 1-5-2.4-11.4-6.3-15.6-3.2-3.6-6.4-5.4-9.6-5.4-1.2 0-2.3.3-3.4.7-.7.3-1.3.8-1.8 1.3l-8 1c-1-.8-3.4-2.8-6.2-5.5 1.3-1.8 2.2-3.7 2.5-5.5.5-1.8 0-3.7-1.5-5l-10.2-8.8c-1.7-7.2-3-14.2-3.5-17 2.2-2 9-6.5 17.6-11.4 1-.6 2-1.7 2.3-2.8l13-7c1.8 1 4 1.7 6 1.7h1c.7 0 1.4-.3 2-.6 1.2-.5 2.3-1.2 3-2.2 1-1 1.4-2.3 1.6-3.5l1.5-1c1.6-1.2 2.6-3 2.8-5.2.2-2.2-.5-4.2-2-5.7-.7-.4-1.3-1-2-1.3z"/><path fill="#FFF" d="M193.5 169.5v-1c-.3-2.5-1.7-4.6-4-6-1.4-.6-2.7-1-4-1-1 0-2 .3-3 .6v.2c-.3 0-.6.2-.8.3-1.2-.7-2.5-1-3.8-1-1 0-1.7 0-2.4.3-2 .6-6 2.8-5.4 10.2l-6.8 3.5c2.5-5 4-9.7 4.8-13 .3 0 .6 0 1-.2 1.3-.6 2.4-1.7 2.8-3.2 0-.2 8.4-27.8-22.7-46.3-11-6.4-21.7-9.7-32-9.7-7.8 0-13.6 1.8-17 3.3l-2.2 1-5.2 2c-6.2 2.5-26.2 13.2-19.7 38 .3.7.8 1.5 1.3 2l-.8 3.8c-1 4-1.2 8-.6 11.8.2 3.4 1 6.7 2.3 9.7 2 5 5.5 9.5 10 13.2h-1.8c-1 0-2.3.3-3.2 1-.5.4-1 1-1.3 1.5l-9.4-.5v-.4c-.8-2.8-1.7-6.2-5-8-.8-.3-1.8-.6-2.8-.6-1 0-1.8.2-2.6.5H59c-2.3 1-3.8 2.8-4.5 5.2h-1c-2.6 0-5 1-6.7 3-1.8 2-2.5 4.5-1.8 7 .3 1 1 2.2 1.8 3.2-1 1.2-1.7 2.6-2 4-.4 2.3.3 4.5 2 6.3 1.5 1.5 3.6 2.5 5.7 2.5 1.2 1.6 3 2.7 5.4 3h1c4.2 0 7.8-3.2 10-9l10.2 1c1 1 2 1.8 3.4 2 6 .8 11.7 2 14.5 2.8-2 15-2 17.2-2 18 0 .7.2 1.5.5 2.2-2 7-4.2 15.5-3.3 19.2.7 3 3 4.3 4.4 5v1.8c-.4 5.2-.4 14.6 4 19.4 1 1 2 1.8 3.2 2.6-2 1.6-3.2 3.5-3.6 5.5-.6 3 .5 5.7 2.8 7.6 2.2 1.8 5.4 2.8 9 2.8 2.7 0 5.4-.5 7.8-1.6 6-2.5 9.7-8 10.2-14.8v-.2-.2-.7c-.2-1.7-1-3-2.4-4l-2-1c-5.6-3-9.5-5.6-10.7-6.8-.3-1 0-3.8.7-7h1.2c4 0 5.6-.5 6.6-1 2-1.2 3.6-3.5 4.7-7 10 6 11.5 6 12.5 6h.4c1 0 2-.2 3.3-.7l1-.5c4.3 3.5 11.4 8.8 16.2 10l3 .3c2.8 0 6-.7 9.2-2 .2.6.5 1.2 1 1.8 2.6 4.6 7.2 7.5 11.7 7.5h1c1 0 1.8-.4 2.7-.7 2.3-1 4-3 4.4-5.5 1-5-2.4-11.4-6.3-15.6-3.2-3.5-6.4-5.2-9.6-5.2-1.2 0-2.3.2-3.4.6v.2c-.7.3-1.3.7-1.8 1.2l-8 1c-1-.8-3.4-2.8-6.2-5.5 1.3-2 2.2-4 2.5-5.6.5-2 0-3.8-1.5-5l-10.2-8.8c-1.7-7.3-3-14.3-3.5-17 2.2-2 9-6.6 17.6-11.5 1-.5 2-1.5 2.3-2.7l13-7c1.8 1 4 1.8 6 1.8h1c.7 0 1.4-.2 2-.5 1.2-.5 2.3-1.3 3-2.3 1-1 1.4-2.3 1.6-3.5.5-.2 1-.5 1.5-1 1.6-1 2.6-3 2.8-5 .2-2.2-.5-4.3-2-5.8l-2-1.5z"/><path fill="#FEDDBC" d="M83 140.7c-.5.5-8.4 17-5.2 27.2C81 178.2 95.4 193.6 113 195c17.5 1.6 26.8-1.4 34.8-7.8 8-6.4 16.2-29.7 16.2-29.7s-6.5-2-11.5-4.6c-5-2.4-9.2-6.5-9.7-5.8-.4.7 1.4 2-.3 3.3-1.6 1.2-8.3.6-15.2-2.5-7-3.2-15.7-10.4-18-12.6-2.5-2-3-3-3-3s-9.7 7-12 7c-2.5 0 3-8.7 3-8.7s-9.8 5.6-14.3 10z"/><path fill="#F7B993" d="M147.8 187.4c8-6.4 16.2-29.7 16.2-29.7s-6.5-2-11.5-4.6c-5-2.4-9.2-6.5-9.7-5.8-.4.7 1.4 2-.3 3.3-1.6 1.2-8.3.6-15.2-2.5-7-3.2-15.7-10.4-18-12.6-2.5-2-3-3-3-3l-.8.7c4.7 12 17 18.7 28.5 24.4 5 2.5 10.5 5.6 11.6 11 .8 4.3-1.4 8.5-4.3 11.7-6.6 7.7-16.7 11.6-26.8 12.5-4.2.4-8.4.3-12.6 0 3.4 1.4 7 2.4 11 2.7 17.5 1.6 26.8-1.4 34.8-7.8z"/><path fill="#F7B05F" d="M79 143.7s8-8.6 16-12l-.8 7.7s4-.3 7-3c2.8-2.7 5.2-4 5.2-4s12.8 16 22 16.5c9.5.3 14 1.5 14 1.5l.4-3.3s11.6 9 17 10.4c5.3 1.4 7.8.3 7.8.3s8.7-24.2-23-42c-29-16.3-44.8-3.3-44.8-3.3s-30.8 8.8-21 31z"/><path fill="#F68831" d="M102 111.4l-1.2 1c10.2-2.8 21.6-1.2 30.6 4.3s15.6 14.8 17.8 25.2l-17-7.8c-1 3.4-.4 7.3 1.8 10-8.3 0-16.6-2.5-23.5-7 4.5 4.7 12 11.5 18 11.7 9.4.3 14 1.5 14 1.5l.3-3.3s11.6 9 17 10.4c5.3 1.4 7.8.3 7.8.3s8.7-24.2-23-42c-23-12.8-37.6-7.4-42.7-4.6z"/><path fill="#FEDDBC" d="M159 183.6l16.8-8s-.6-7.2 1.8-8.5c2.4-1.2 3.4 3.5 3.4 3.5s4-4.6 6.2-3c2.4 1.3-.5 6.2-.5 6.2s6.5-.8 6.3 2.5c-.3 3.3-6.8 2.4-6.8 2.4s4 2 2 4.6-8-1.5-8-1.5l-19 10.6-2-8.7zM146.4 251s12.4 11.8 15.7 11.6c3.4-.2 15.4-4.3 15.4-4.3l-.5-4.5-12 2.2-12.2-11.2-6.4 6.2zM102 253s-.5 10.3 0 15.3c.3 5 6.5 10 8 10.7 1.7.8 5.5 1 5.5 1l7.4-1.4s-10-5.8-12.3-8.5c-2.3-2.5 1.4-15 1.4-15l-10-2zM82.5 203l-17-2.2s-.8 7.5-4.2 9.2c-3.5 1.7-4.4 1.4-5-.4-.4-1.7.7-4 .7-4s-3.3 2.7-6.3 1.4 2.4-6.2 2.4-6.2l2.3-1.2s-5.7-2.5-4.8-5.6c1-3 4.7-2.7 6.3-1.2l1.7 1.5s-.8-6.3 2.5-7.7c3.4-1.4 4.5 7 4.5 7l17.8 2-.8 7.5z"/><path fill="#F7B993" d="M105.7 254s-1.5 10 1 15.4S119 279 119 279l2.2-1s-8-5.2-10.5-8c-2.3-2.5 1.2-13.8 1.2-13.8s-4.5-2.8-6.3-2.3zM150.3 248.3s8.7 10 13.6 10.6c4.8.5 13.2-3.6 13.2-3.6l-.3-1.6s-12 2-13 1.8c-1-.2-11.2-10.8-11.2-10.8l-2.6 2.6M159.4 184.7s1.7.7 9.3-1.8 10-5 10-5 1.8 1 3 .8c1-.2 0-2.7.8-3 .8-.4 5-1.4 5-1.4s4.3-1.4 4.4 1c0 2.4-5.8 3.2-5.8 3.2s4.4 3.5 2 4.6c-2.6 1-8-1.5-8-1.5l-18.8 9.5-2-6.5zM57 198.6s0 2.3 1.7 2.5c1.8.3 2.7-2.6 2.7-2.6s.8 0 2.7-.6c2-.6 16.3 3 18.7.6l-.2 4.7-17-2.2s-2.5 7.5-4.2 9.2c-1.8 1.7-5 .4-5-.4.3-.8.7-4 .7-4s-5 2.7-6.3 1.4-1.7-5 6.4-8.4z"/><path fill="#F26868" d="M102.2 191.3L83 194s.2 8.8.4 9.5c.3.6 14.3 2.4 16.5 4.2l2 1.7s-1.2 16.3-1.4 20.5 5.5 5.4 10.4 5.3c4.8-.2 19-1 25-3 6-1.8 9-3 9-3S141 208 142.2 206c1-2.2 18.8-13.7 18.8-13.7l-4-9.8-5 1s-8.7 13.4-27 11.7c-18.4-1.7-23-2.8-23-2.8"/><path fill="#F0494A" d="M136 232.4l9-3S141 208 142.2 206c1-2.2 18.8-13.7 18.8-13.7l-4-9.8-5 1s-8.7 13.4-27 11.7c-7-.6-12-1.2-15.6-1.6 4 3.6 9.3 6 14.7 7 3 .6 6.3 1 8 3.4 1.2 2 1 4.4 1.2 6.7.4 3.2 2.2 6 2.3 9.3.2 4.5-3 8.6-7 10.7-4 2-8.7 2.6-13.2 3-2.5.4-5 .8-7.5 1.4 1 .2 2 .3 3.2.3 4.8-.2 19-1 25-3z"/><path fill="#F0494A" d="M100.7 226.2s13.2 5 24.3 2.8c11-2.2 19-6.6 19-6.6l1.5 5.4s-15.7 9-28.7 8c-13-1.2-15.3-3.8-16.2-5-1-1 0-4.6 0-4.6z"/><path fill="#EE2D38" d="M133.6 226.7c-2.4 5-7.6 8.5-13.2 9h-2c12.6.3 27-8 27-8l-1.5-5.3s-4 2.2-10.4 4.3z"/><path fill="#EDB489" d="M100.4 232.2S96 246 97.4 250s21 6 23.5 5c2.4-1 3.8-9.8 3.8-9.8s13.2 8 15.8 7.2c2.7-.6 15.4-10.3 16-13.4.5-2-11-10.5-11-10.5s-19 14.2-45.2 3.7z"/><g fill="#C19471"><path d="M138.3 232.4c1.4.3 2.8.8 4 1.5 2.6 1.3 4.6 3.4 6.7 5.4 1.4 1.4 2.8 3 2.6 5v.4c2.6-2.3 4.8-4.6 5-5.8.5-2-11-10.5-11-10.5s-2.7 2-7.3 4zM147.7 248h-3c-7.2-.8-13.8-6-16.2-12.7h-.3c-3 .6-6.6 1-10.3.7l-6.6.5c3.3.3 6.3 2.7 7.5 5.8 1 3 .3 6.8-2 9.2-1.5 1.7-3.6 2.7-6 3.2 4.7.6 8.8.8 10 .3 2.4-1 3.8-9.7 3.8-9.7s13.2 7.8 15.8 7c1 0 4-2 7-4.4z"/></g><path fill="#F26868" d="M179 252.7c-4.3 2.2 1.6 15.4 5.7 16 4 .3 7.3-3.2 3.7-9.3-3.6-6-6.5-8.2-9.5-6.7z"/><path fill="#F0494A" d="M179 252.7c-1.6.8-1.8 3-1.3 5.6 1.2 0 5 1 8 7.7l.8 2.5c3-.6 5-4 2-9-3.7-6-6.6-8.3-9.6-6.8z"/><path fill="#F26868" d="M105.4 287c-1.2 2.8 3.2 5.6 10 3.7 6.7-2 9.2-9 9-11.3 0-2.4-17 2.4-19 7.5z"/><path fill="#F0494A" d="M124.5 279.4c0-1-3.8-.7-8 .7 1.5.6 2 3.5-1 6.2-3.8 3.3-9.8 2.5-9.8 2.5h-.3c1 2 4.7 3.5 10 2 6.7-2 9.2-9 9-11.3z"/><circle fill="#F8AA9D" cx="90" cy="156.4" r="5"/><circle fill="#F8AA9D" cx="138.9" cy="163.8" r="5"/><path fill="#FFF" d="M79 143.7s.8-20.2 20.8-31c0 0-15.7 2.7-20 12.6-4.2 10-1 18.4-1 18.4zM87.5 137s-9.2 21.6-3.3 35.3C90 186 106.6 192 106.6 192s-16-2.7-26.4-18.7c-10.6-16 3.5-34 7.3-36.2zM61 186.6s2 10 4 10.3c2 .2 18.4.6 18.4.6v-2l-17.8-1.2S64 186 61 186.6z"/><path fill="#FFF" d="M106.6 192s-13 4.2-20 3.7l.4 9.2-3.8-.4.8-11.2s18.7-2.8 22.6-1.3zM104.7 201.7s-1.6 31-1.3 32-4.2-3.7-4.2-3.7 3.4-26 5.5-28.3z"/><path fill="#FFF" d="M103.4 233.6s-3.7 13.6-2.8 15.7c1 2 3.8 4.4 3.8 4.4l-8-2.5s2.5-21.8 7-17.6zM105.5 287.8s6.4-1.3 9.3-6.4c0 0-7.2 1.3-9.3 6.4zM179 260.3s4.6 1.7 5.7 8.3c0 0-6.2-1.5-5.7-8.3z"/><g><path fill="#404241" d="M167.7 158.8h-.5c-7.2.8-16.4-4.4-22.4-8.5.3.7 0 1.5-.7 1.8 0 .2-.2.2-.4.2-19.8 1-33.7-14-37.7-18.7-1.8 2-4.5 3.8-8.2 5.3-2.6 1.2-4.8 1.8-5 1.8-.3 0-.8 0-1.2-.4-.3-.3-.5-.8-.3-1.2.3-1.6 1.8-3.8 3.2-5.7-8.5 4.5-15.2 13.3-15.3 13.4-.3.4-.8.6-1.4.5-.5 0-1-.5-1-1-5.6-21 10.4-30.5 17.5-33.5l5.3-2c.3 0 1-.4 2-1 6.3-2.5 23-7.2 45.7 6.3 28.6 17 21.2 41.7 21 42 0 .3-.3.6-.6.8zm-29-15.7c.4 0 1 0 1.3.3.2 0 15.5 13 26 13 1-4.4 4-23.7-20-38-21.7-12.8-37.5-8.5-43.2-6-1.3.5-2 1-2 1h-.4s-2 .6-5 2c-7.7 3-19.6 11-16.6 27.6 3-3.5 9-10 16.5-13 1.2-.5 2.3-1 3.4-1.2.6-.2 1.2 0 1.5.6.3.5.3 1.2 0 1.6-1.6 1.5-3.6 4-5 6l1.5-.6c4-1.8 6.8-3.8 8-5.8.2-.4.6-.6 1-.7.5 0 1 0 1.2.5 0 .2 13.8 18.5 34 19-.8-1.4-2-3.3-3-4.3-.3-.5-.3-1.3.2-1.8l.4-.3z"/></g><g><path fill="#404241" d="M139.7 194c-8.8 3.7-19.3 4-31.3.7C93 190.5 83 183.2 78.8 173c-6.4-15.2 2.4-31 2.8-31.7.4-.7 1.2-1 2-.6.5.4.7 1.2.4 2 0 0-8.6 15.4-2.7 29.3 4 9.4 13.3 16 27.8 20 14 3.8 25.5 2.7 34.7-3.3 15.5-10 18.8-30.6 18.8-30.8 0-1 .8-1.4 1.6-1.3.8 0 1.3.8 1.2 1.6 0 1-3.6 22-20 32.7l-5.5 3z"/></g><g><path fill="#404241" d="M123.2 183c-3.3 1.4-7.3 2-12.2 1.6-19.5-2-20-20.3-20-20.5 0-.6.6-1.2 1.4-1.2.7 0 1.3.5 1.3 1.3 0 .7.5 16 17.5 18 17.2 1.7 22-13.2 22-13.8.3-.8 1-1.2 1.8-1 .7.3 1 1 1 1.7-.2 0-3.2 10-12.8 14z"/></g><g><path fill="#404241" d="M109.6 169c-.6 0-1.4.3-2.2.3-2.3 0-4.2-1.8-5-4.5-.5-2 0-3.2.6-4 1.8-2.4 6-2.4 6.3-2.4.8 0 1.4.6 1.4 1.3 0 .8-.6 1.4-1.3 1.4-1 0-3.4.3-4.3 1.5 0 .2-.3.6 0 1.6.5 1.6 1.4 2.5 2.6 2.6.8 0 1.6-.5 1.8-1 .3-.6 1-1 1.7-.7.8.2 1.2 1 1 1.7-.5 1-1.3 1.7-2.4 2.2z"/></g><g><path fill="#404241" d="M102.3 210c-.4.3-1 .2-1.3 0-2.3-1.8-12-3.5-18-4.3-.6 0-1-.7-1-1.4l.2-11.6c0-.4.2-.8.5-1 .3-.3.7-.4 1-.3 5 1 19-1 19-1 .8-.2 1.5.3 1.6 1 0 .8-.4 1.5-1 1.6-.6 0-12.3 1.7-18.4 1.2l-.4 9c4 .5 15 2.2 18 4.6.6.4.7 1.3.3 2-.3 0-.4.2-.7.3z"/></g><g><path fill="#404241" d="M141.6 231.8c-18 7.7-33.8 5.4-40 1.8-1.8-1-2.7-2.2-2.8-3.5 0-4 3.6-27 3.7-28 0-.8.8-1.3 1.6-1.2.8 0 1.3.8 1.2 1.6-1 6.6-3.7 24.5-3.7 27.7 0 .2.7 1 2.6 2 6 2.5 21.5 5 40-4.3-1-4.7-4-18.3-3.7-21 .4-3 12-10.2 19.8-14.6l-3-8-4.5 1.3c-.7.2-1.5-.2-1.7-1-.2-.6.2-1.4 1-1.6l5.5-1.6c.6 0 1.3.2 1.6 1l4 10c.3.8 0 1.5-.5 1.8-9 5-19 11.6-19.6 13.3-.4 2 2.3 14 4 21 0 .7 0 1.3-.7 1.6l-4.7 2.2z"/></g><g><path fill="#404241" d="M143 254c-.8.3-1.4.5-2 .4-1.5 0-9.5-4.7-15.2-8-.5 3-1.7 8-4 9.4-3 1.6-17.5 0-23-2.3-1.7-.8-2.6-1.6-3-2.7-.7-3.6 3-16 3.7-18.4.3-.8 1-1.2 1.7-1 .7.3 1 1 1 1.8-1.7 5.3-4.2 14.7-3.6 17 1.3 2.4 19.3 4.5 21.8 3.2 1.4-.7 2.6-6 3-9.4 0-.4.3-1 .7-1 .5-.3 1-.2 1.4 0 6.8 4 14.4 8.3 16 8.7 1.7-.4 12.2-7 14.2-13l-10.8-9.3c-.6-.5-.6-1.3 0-2 .4-.5 1.2-.5 1.8 0l11.4 10c.4.2.5.7.4 1.2-1.3 6-11 13.4-15.4 15.4z"/></g><g><path fill="#404241" d="M138 227c-17.7 7.7-36.5 1.4-37.4 1-.7-.2-1-1-.8-1.7.2-.7 1-1 1.7-.8.2 0 23 7.8 41.2-4 .7-.3 1.5 0 2 .5.3.6 0 1.4-.5 1.8-2 1.3-4 2.4-6 3.3z"/></g><g><path fill="#404241" d="M83 204s-.3.2-.6 0l-16-1.8c-.8 3-3.3 10-8 9.5-2-.3-2.8-1.2-3-2-.3-.5-.4-1-.3-1.6-.6.4-1.4.7-2.2.7-1.2 0-2.4-.5-3.3-1.4-.8-1-1-2-1-3 .5-2 2.7-3.8 4.6-5-1.8-1-4-2.2-4.4-4-.2-.8-.2-2 1-3.4 2.3-2.6 5.6-2 8.3-.6-.4-2.7 0-5.5 2.5-6.6 1.2-.4 2-.2 2.5 0 1.6 1 2.3 3.2 2.8 5.5.3 1 .7 2.5 1 3l15.5 1c.8 0 1.3.6 1.3 1.3 0 .8-.7 1.4-1.4 1.3l-15.8-1c-2-.3-2.5-2.6-3.2-5-.2-1-1-3.5-1.4-3.7h-.2c-2 .8-.7 5.5-.3 6.7.2.6 0 1.2-.5 1.6-.5.3-1.2.3-1.7 0 0-.2-5-4.4-7.4-2-.5.6-.4 1-.4 1 .4 1 3.4 2.5 5.5 3 .6.3 1 .8 1 1.3s-.3 1-.8 1.3c-2.2 1-5.5 3-5.8 4.5 0 0 0 .3.3.6.4.4.8.6 1.3.6 1.7 0 4-2.2 4.5-3 .5-.5 1.3-.6 2-.2.5.5.6 1.3 0 2-1 1.2-1.8 3.2-1.5 3.8 0 .3.7.4 1 .4 2.5.3 4.7-5.6 5.4-8.6 0-.6.8-1 1.5-1l17 2c.8.2 1.3.8 1.2 1.6 0 .5-.4 1-1 1z"/></g><g><path fill="#404241" d="M187.3 185l-1 .2c-2.4.2-5-1.5-6.3-2.4l-18 9.8c-.8.3-1.6 0-2-.6-.3-.6 0-1.5.6-1.8l19-10.2c.4-.3 1-.2 1.4 0 1.2 1 3.6 2.7 5 2.5.2 0 .4 0 .6-.3.3-.5.3-.7.2-.8-.2-.7-1.5-1.6-2.2-2-.7 0-1-1-.8-1.5s1-1.2 1.6-1c1.6.3 4.4.4 5.4-.4.2 0 .3-.3.3-.5.2-.2 0-.3 0-.4-.8-.8-3.6-.8-5.2-.6-.6 0-1-.3-1.4-.8-.2-.6 0-1.2.4-1.6 1-.8 2.3-2.5 2.2-3.4 0-.2 0-.5-.7-1-.7-.2-1 0-1.3 0-1.3.5-2.4 3-2.7 4-.2.7-.7 1-1.4 1s-1.2-.5-1.3-1c-.2-1.5-.8-3.7-1.6-4.2h-.4c-1.2.4-1 4-.5 6.6.3.6 0 1.2-.6 1.5l-17.2 9c-.7.4-1.5 0-1.8-.5s0-1.5.5-1.8l16.3-8.5c-.5-2.5-1-7.7 2.5-8.8 1-.3 2-.2 2.8.3.8.5 1.4 1.4 1.8 2.3.6-1 1.5-2 2.5-2.3 1-.5 2.4-.4 3.6.3 1.6.8 2 2 2 3 .2 1-.3 2.2-1 3.2 1.6 0 3.2.5 4.3 1.5.6.7 1 1.6.8 2.6 0 1-.5 2-1.3 2.5-1 .7-2.2 1-3.4 1l.5 1c0 .7.2 1.8-.8 3-.4.5-.8 1-1.4 1z"/></g><g><path fill="#404241" d="M118 281h-.6c-.3 0-9.4-.7-14-5.7-3.6-4-3.3-13.7-3-16.6.2-5 1-5.7 1.3-6 .5-.5 1.4-.4 2 .2.3.4.3 1 0 1.6-.8 1.7-1.7 15 1.7 19 3.8 4 12.2 4.7 12.2 4.7.8 0 1.3.7 1.3 1.5 0 .5-.5 1-1 1z"/></g><g><path fill="#404241" d="M118.3 291.3c-4.4 2-10 1.6-13-.6-1-1-1.6-2.4-1.3-3.8.4-2.5 3-4.6 7.4-6.5 4.4-2 12-3.8 14-2.4.6.5.8 1 .8 1.7-.3 5.5-3 9.6-8 11.6zm-5.8-8.3c-3.4 1.4-5.6 3-6 4.4 0 .2 0 .6.7 1.2 1.7 1.4 6.2 2 10 .3 2.6-1.2 5.7-3.6 6.2-8.7-1.7 0-6.5.8-11 2.7z"/></g><g><path fill="#404241" d="M125.4 280.8c-.4.2-.8.2-1.2 0-.5-.3-11.6-6.2-14.5-9.6-3-3.6 0-13.6.6-15.5.2-.8 1-1 1.7-1 .7.3 1 1 .8 1.8-1.3 4.3-2.6 11-1 13 2 2.5 10.6 7.3 13.7 9 .6.3 1 1 .5 1.7 0 .3-.3.5-.6.6z"/></g><g><path fill="#404241" d="M174 261.2c-3 1.3-7.8 2.8-11.5 2-5.6-1.3-16.4-10.8-17-11.2-.4-.5-.5-1.4 0-2 .5-.5 1.4-.6 2 0 3 2.6 11.5 9.6 15.6 10.6 4.2 1 10.6-2 12.8-3.3.6-.4 1.5 0 1.8.5.4.7.2 1.5-.5 2l-3 1.4z"/></g><g><path fill="#404241" d="M189 270.3c-.6.2-1 .3-1.7.3-3.3.3-7-2-9-5.5-1.5-2.2-2.5-5-3-7.6-.3-3 .3-5 1.8-5.8 2.6-1 5.6.3 8.7 3.7 3.3 3.4 6 8.8 5.4 12.2-.2 1.3-1 2.3-2 2.8zM178.2 254c0 .2-.5 1-.2 3 .4 2.2 1.3 4.7 2.5 6.7 1.6 2.8 4.3 4.5 6.6 4.3.4 0 .6 0 .8-.2.3 0 .5-.3.7-1 .4-2-1.8-6.5-4.7-9.7-2.2-2.2-4.4-3.4-5.5-3z"/></g><g><path fill="#404241" d="M176.8 255.5h-.3l-11 1.5c-2.6.4-9-5.7-13.7-10.8-.5-.6-.5-1.4 0-2 .6-.4 1.4-.4 2 0 4.3 5 10 10 11.4 10.2l11-1.5c.7-.2 1.3.3 1.4 1 0 .7-.2 1.3-.8 1.5z"/></g><g><path fill="#404241" d="M104.8 153c-.7.4-1.5 0-1.8-.7-.6-1.7-1.6-2.7-2.8-3-2.4-1-5.5 1-5.5 1-.6.5-1.5.4-2-.3-.3-.6 0-1.4.5-1.8.2 0 4-2.7 7.8-1.6 2 .7 3.6 2.3 4.5 4.8.3.7 0 1.4-.7 1.7z"/></g><g><path fill="#404241" d="M132.7 161c0 .2-.2.2-.3.2-.7.2-1.4-.3-1.5-1-.4-1.7-1-3-2.2-3.6-2.2-1.3-5.2-.4-5.2-.4-.8.2-1.5-.2-1.7-1-.3-.6 0-1.4.8-1.6.2 0 4.2-1.2 7.4.7 1.7 1 3 3 3.3 5.3 0 .7-.2 1.3-.8 1.5z"/></g><g><path fill="#E6E7E8" d="M331.4 147h-.2v-1.4c-.2-2-1.3-4-3-5-1-.7-2.4-1-3.8-1s-2.8.3-4.2 1c0 0-.2 0-.3-.2-1.2-1-2.6-1.4-4-1.4-1 0-1.7 0-2.5.4-1 .4-1.6.8-2.3 1.3 1.2-2.2 2.4-4.8 3.4-7.7 1-2.7 1.8-5.7 2.2-8.8.2-1.4.3-3 .3-4.5.2-4.7-.4-9.5-1.7-14-2.4-8.3-7.6-16-15-22.2l-.7-.6-.4-.4-.4-.4c-2.7-2-5.6-4-8.7-5.7-9-5-19-7.5-28.8-7.5-5 0-9.6.7-14 2-4.2.5-29.4 4.6-37.6 25-6.2 15.3-29 16-29.3 16-2.4 0-4.5 1.6-5 4-.4 2 .3 3.7 1.7 5l-1.3-.5c-.6-.2-1-.2-1.7-.2-2 0-3.6 1-4.5 2.5-1.2 2.2-.8 5 1 6.5.3.2 4 3.2 9.2 6.4l-.3.7c-1 2-.7 4.4.8 6 .5.4 3.2 3 8 6l-.3.4c-1 2-.7 4.2.8 5.8.4.5 3.2 3.4 7 6-.8 2-.6 4.2.7 6.4 1 2 2.6 3.3 4.4 4 0 .5 0 1 .2 1.4.5 2 2 3.5 3.7 4.3.8.5 1.8.7 2.8.7 2.7 0 5.6-1.5 8.7-4.4 4.2 2.3 10.7 5.5 16.7 6.7.8 1.7 2.5 2.8 4.4 3 3 0 6 .8 7.6 1.4 0 1-.4 2.2-1.3 3.6-1.5 2.2-4.4 4.8-10.6 4.8-2 0-4-.3-6.2-.7h-1c-1.5 0-2.7.4-3.7 1.3-1.2 1.2-1.8 3-1.5 4.7 1 5.8 5.4 16 14.8 18.2 2 2 5.8 5.4 12.2 6.6l-2 15.8c-3.2 2.4-5.8 6.5-7 9.7-2.3 6.3.4 9.5 1.6 10.6 1.3 1 2.8 1.6 4.5 1.6 6.8 0 13-9.6 13.8-14.6 0-1 .2-1.7 0-2.5 1-2.4 4.3-10.8 6-16h1.6l3 16.4v.6c0 .7 0 1.5.3 2.3.7 3.8 5 14.2 12 14.2.7 0 1.3 0 2-.2 2.8-.8 5.5-3.7 4.8-9.2-.5-3.2-2.3-7.8-5-10.8-.4-6.6-.5-12.2-.5-14.7 1.3-.8 2.5-2 3.7-3.2 3.8-1.6 12.6-6 16.3-12.8.7-1.2.8-2.7.4-4-.7-2.2-6.8-20-19-23 0-.3 0-.6-.2-1 .8 0 1.7-.2 2-.3 3.8-.4 7.6-1 10.3-3 1-1 1.7-2.3 1.8-3.7 6.2-2.8 13.7-6.8 17.4-9 3.2 1.3 6 1.8 8 1.8 3.8 0 5.7-1.7 6.6-3 1-1.5 1.2-3.2 1-4.8 1.2-.7 2.2-1.5 2.8-2.5 1.3-1.7 1.6-3.7 1-5.7-.5-2-1.8-3.4-3.6-4.3zm-23.7-.7l-.7 2c0 .5-.3 1.2-.5 1.7l-2.6 1.7 1.3-2.4 2.4-3z"/><path fill="#FFF" d="M331.4 150.8h-.2v-1.4c-.2-2-1.3-4-3-5-1-.7-2.4-1-3.8-1s-2.8.3-4.2 1c0 0-.2 0-.3-.2-1.2-1-2.6-1.4-4-1.4-1 0-1.7 0-2.5.4-1 .4-1.6.8-2.3 1.3 1.2-2.2 2.4-4.7 3.4-7.6 1-3 1.8-6 2.2-9 .2-1.4.3-3 .3-4.5.2-4.7-.4-9.5-1.7-14-2.4-8.3-7.6-16-15-22.2l-.7-.6-.4-.3-.4-.4c-2.7-2-5.6-4-8.7-5.6-9-5-19-7.6-28.8-7.6-5 0-9.6.7-14 2-4.2.5-29.4 4.6-37.6 25-6.2 15.3-29 16-29.3 16-2.4 0-4.5 1.6-5 4-.4 2 .3 3.7 1.7 5l-1.3-.4c-.6-.2-1-.3-1.7-.3-2 0-3.6 1-4.5 2.7-1.2 2-.8 5 1 6.5.3.2 4 3.2 9.2 6.4l-.3.6c-1 2-.7 4.4.8 6 .5.4 3.2 3 8 6l-.3.4c-1 2-.7 4.2.8 5.8.4.5 3.2 3.4 7 6-.8 2-.6 4.3.7 6.4 1 2 2.6 3.3 4.4 4 0 .6 0 1 .2 1.4.5 2 2 3.5 3.7 4.4.8.4 1.8.6 2.8.6 2.7 0 5.6-1.5 8.7-4.4 4.2 2.3 10.7 5.5 16.7 6.7.8 1.7 2.5 2.8 4.4 3 3 0 6 .8 7.6 1.4 0 .7-.4 2-1.3 3.4-1.5 2.2-4.4 4.8-10.6 4.8-2 0-4-.2-6.2-.7h-1c-1.5 0-2.7.4-3.7 1.3-1.2 1.2-1.8 3-1.5 4.7 1 6 5.4 16 14.8 18.2 2 2.3 5.8 5.5 12.2 6.7l-2 15.8c-3.2 2.5-5.8 6.5-7 9.7-2.3 6 .4 9.3 1.6 10.4 1.3 1 2.8 1.7 4.5 1.7 6.8 0 13-9.5 13.8-14.6 0-1 .2-1.7 0-2.5 1-2.6 4.3-11 6-16 .6 0 1 0 1.6-.2l3 16.4v.6c0 .7 0 1.5.3 2.3.7 4 5 14.3 12 14.3.7 0 1.3 0 2-.2 2.8-.7 5.5-3.5 4.8-9-.5-3.4-2.3-8-5-11-.4-6.6-.5-12.2-.5-14.7 1.3-.8 2.5-2 3.7-3.2 3.8-1.5 12.6-6 16.3-12.7.7-1.2.8-2.7.4-4-.7-2-6.8-20-19-23 0-.3 0-.6-.2-1 .8 0 1.7-.2 2-.3 3.8-.4 7.6-1 10.3-3 1-1 1.7-2.3 1.8-3.7 6.2-2.8 13.7-6.8 17.4-9 3.2 1.3 6 2 8 2 3.8 0 5.7-1.8 6.6-3.3 1-1.4 1.2-3 1-4.7 1.2-.7 2.2-1.5 2.8-2.5 1.3-1.7 1.6-3.7 1-5.7-.5-1.7-1.8-3.3-3.6-4.2zm-23.7-.7l-.7 2.2c0 .4-.3 1-.5 1.6l-2.6 1.7 1.3-2.4c.4-.4 1.3-1.4 2.4-3z"/><path fill="#404241" d="M204.8 164h-.2c-6.5-1.2-12.8-8-13-8.2-.4-.4-.5-1-.3-1.5.3-.5.8-.8 1.4-.7 2.8.3 8-1.2 10-1.7.6-.4 1.4 0 1.6.7.3.7 0 1.5-.8 1.7-.3 0-4 1.3-7.7 1.8 2.3 2 5.8 4.5 9.2 5 .7.2 1.2 1 1 1.6 0 .7-.6 1-1.2 1z"/><path fill="#FEDDBC" d="M249.6 108.2c-1-.5-17 31-27.4 37.5 0 0 13.5 30 43 26.3 29.3-3.7 39-27.3 39-27.3s-2-21.6-24.2-27l2 5.4s-10.8-2-32.4-14.8zM254.6 222l-3.3 22.5 2.7 1 7.2-20s-4.5-2.8-6.6-3.5zM270.6 224.7l3.8 20.7 3.6-.2-.2-19-7.2-1.5zM291.3 167.3l1.6 7.7 22-10.6c.6-.5 2.4 1.3 7 1.6 4.4.2 4.4-.3 3.8-1.8-.7-1.6-2.3-3-2.3-3s7.2-2.4 7-3.8c-.2-1.3-4-2.2-4-2.2l-2.3.6s2.7-6.7 1-7.6c-1.5-1-7.3 5.2-7.3 5.2s.3-5.7-2.6-5.4c-3 .2-4.7 9.6-4.7 9.6l-19.4 9.7zM234.6 171s-13.5-5.5-15.3-6.8c-1.8-1.4-.2-6-3-6.6-2.6-.4-3.5 2.3-3.3 4 0 0-4.5-2.8-7.7-3-3-.3.3 5 .3 5s-5.4.8-4.8 3.5c.7 2.8 5.4 3.7 5.4 3.7s-1 3.8 1.2 5.2c2.2 1.2 8-5 8-5s9.5 6.4 14 6.4 7.7 1.2 7.7 1.2-1-6.8-2.4-7.5z"/><path fill="#F7B993" d="M304.3 144.7s-2-21.6-24.3-27l2 5.4s-10.8-2-32.4-14.8c0 0-.4.3-.8 1 11 11.8 26 19.8 42 22 3.2 7.6 1.8 16.6-2.6 23.5-4.5 7-11.6 11.7-19.4 14.3-5 1.7-10.5 2.5-16 2.6 3.8.8 8 1 12.3.4 29.5-3.7 39.3-27.3 39.3-27.3zM330.5 157.4c-.2-1.3-4-2.2-4-2.2l-2.3.6.3-.7c-2.7 1.2-5.3 2.6-7.7 4.2-7.6 4.8-16.3 8-25.2 9.5l1.3 6.3 22-10.6c.6-.5 2.4 1.3 7 1.6 4.4.2 4.4-.3 3.8-1.8-.7-1.6-2.3-3-2.3-3s7.2-2.4 7-3.8zM237 178.6s-.5-3.3-1.3-5.6H232c-3.7 0-7.2-2-10.6-3.5-4.4-1.8-8.8-2.8-13.2-4.6l-3.4-1.2c-1.4.3-4.5 1.2-4 3.3.7 2.8 5.4 3.7 5.4 3.7s-1 3.8 1.2 5.2c2.2 1.2 8-5 8-5s9.5 6.4 14 6.4 7.7 1.2 7.7 1.2zM254 245.4l7.2-19.8-4-2.3-.3.3c-1 7.3-2.2 14.5-3.8 21.6l.8.2zM276.4 245.3v-1l-2.3-17.5-1.2-1.6-2.2-.5 3.8 20.7h2z"/><path fill="#F26868" d="M250.6 108.2s-8.8 19-15 25.7c-6 6.6-12.4 11.7-12.4 11.7s5.8 12.2 12.5 16.5c6.8 4.4 11.5 8.8 11.5 8.8l-10-1.7-1.6 1.8-15.3-6.8s-.3-6-3-6.6c-2.5-.4-3.3 4-3.3 4s-6.3-2.4-7.6-3c-1.4-.7-2.5 3-.6 5.2 0 0-8.6-5.3-11.3-8l9.2-3s-8.8-2.4-12-4.4c-3-2-6.3-5.4-6.3-5.4s5 2.4 11.8-.7c0 0-15.5-6.7-18.5-9l-3-2.5s8 .4 14.8-.6c6.7-1 11.5-5 11.5-5s-13 1-17.6-2.5c0 0 20.6-7.7 26-13s5.4-23.4 31.4-28.5c26-5 29-3.7 47 3.4 17.8 7 26 30.7 24.2 43-1.6 12-7.7 17-7.7 17s.3-20.8-24.3-27l2 5.5s-14.2-2.6-32.4-14.8z"/><path fill="#F0494A" d="M288.7 84.6c-16.2-6.4-20.2-8-40-4.6l-1.8 1.3c22-2.2 44.8 11 53.7 31.5l-19-7.5c3.3 2.2 6.2 5.2 8.4 8.5-8.6.4-17.4-2.3-24.4-7.5 2 2.5 3.7 5 5.6 7.7-6.5-.8-13-2.3-19-4.7C269.8 120.5 283 123 283 123l-2-5.3c24.6 6 22.5 28.2 22.5 28.2s8-6.4 9.5-18.5c1.7-12.2-6.4-35.8-24.3-43z"/><path fill="#F1645C" d="M249.8 108.3l.4.7.2-.4-.6-.3z"/><path fill="#F1645C" d="M235.7 134c5.2-5.8 12.3-20.3 14.3-24.6 0-.5 0-1 .2-1.4-13.5 11.7-28 24-46 26.5-9 1.2-18-.2-27-2.5 12.3 8.8 28 12.5 42.7 10-4.6 4-10.8 5.5-16.8 5.5-5.2 0-10.2-1-15.3-2.2l2 1.8c10 5 21 7.8 32.3 8.3-8 4-18 4-26 0l-.7.2-.6.8c3 2.8 10.8 7.5 10.8 7.5-2-2-.8-6 .6-5.3 1.3.7 7.6 3.2 7.6 3.2s.8-4.5 3.4-4c2.6.4 3 6.5 3 6.5l15.2 7 1.5-2 10.2 1.8s-4.7-4.4-11.5-8.8c-6.7-4.3-12.5-16.5-12.5-16.5s6.5-5 12.5-11.8z"/><circle fill="#F8AA9D" cx="236.6" cy="144.6" r="4.1"/><circle fill="#F8AA9D" cx="288" cy="140.5" r="4.1"/><path fill="#F26868" d="M248.6 171l-11.5-1.7.5 11.3s10.2.7 12.6 4.5c2.6 4 1.5 10.4-5.7 13-7.2 2.8-18 3.3-18 3.3s2 7.4 6 10.6c4 3 6.6 3 6.6 3s3.7 6 8.4 6.6c4.8.6 8.4.6 8.4.6s-1.8 2.5 5.4 3.4c7.2 1 11.6-.4 11.6-.4s3 1 6.6.2c3.6-.7 5.6-3.6 5.6-3.6s11.5-9.5 13-12c1.7-2.4-3.3-12-8.5-15-5.2-3.2-9.4-4.5-9.4-4.5s-1-6.8-.4-8c.7-1 9.5-2.2 9.5-2.2l3.5-2-2.7-12.3s-16.5 6-23 6.6c-6.5.4-18.2-1.2-18.2-1.2z"/><path fill="#F0494A" d="M270 201.5c6.8-1 14-3 20-6.4-.2 0-.3 0-.5-.2-5.2-3.2-9.4-4.5-9.4-4.5s-1-6.8-.4-8c.7-1 9.5-2.2 9.5-2.2l3.5-2-2.7-12.3s-16.5 6-23 6.6h-5v1.2c.6 3 2.2 6 4.6 8 2.4 2.2 5.7 3.8 6.7 7 1.2 3-1 6.5-3.7 8.3-2.8 1.8-6.2 2.2-9.5 2.6 2 3 6.5 2.7 10 2z"/><path fill="#F8BFD8" d="M248.2 195.4s-8.5 6-12.7 6-8.5-.3-8.5-.3 2.3 8.4 5.4 11c3 2.4 6 3.3 6 3.3s3.7 4.3 8.5 5.4c4.6 1 8.2 1 8.2 1s3.6 4.7 9.3 4.6c5.8 0 6.8-1.5 7-1.6.5 0 5.2 2 8.3.6 3.2-1.6 4.5-3.5 4.5-3.5s11.6-8.2 14.3-11.4c0 0-1.6-7-6.6-13-5-5.8-10.5-6-10.5-6s-11.4 9.3-33.3 4z"/><path fill="#F599AC" d="M299.3 210.4s-1.7-7-6.6-13c-5-5.8-10.5-6-10.5-6s-6.2 5-18.2 5.6c5 1.2 9.4 4.7 11 9.5 1.6 4.8 0 10.7-4.3 13.5-1.8 1.2-4 1.8-6 1.2-1.2-.3-2.2-1-3.3-1.4-3.3-1.2-7 0-10.5.7l-2.7.3c4.4 1 7.6 1 7.6 1s3.5 4.6 9.2 4.5c5.8 0 6.8-1.5 7-1.6s5.2 2 8.3.6c3.2-1.6 4.5-3.5 4.5-3.5s11.6-8.2 14.3-11.4z"/><path fill="#F8BFD8" d="M248.8 171.7l10.3 8 5.8-6.6s6.2 6.8 6.8 6.8c.7 0 5-4.3 5-4.3l4-6.7s-13.7 3.8-19.8 3.5l-12-.6z"/><path fill="#F599AC" d="M271 179c.3.2.7.5 1.2.6 1 0 1.8-.6 2.5-1.3 1.4-1.4 2.8-2.7 3.8-4.3 1-1.6 1.8-3.5 1.8-5.4-6.6 2.6-13.7 4-20.8 4 .2 2.5-.6 5-2.2 7 1.6.3 2.8-1 3.7-2.2.8-1.3 1.5-2.8 2.8-3.5 2.4 1.6 4.7 3.2 7 5z"/><path fill="#F8BFD8" d="M252 245.8c-1-.4-2 0-2.8.5-1 .5-2 1-3 1.8-2 2-2.3 5-2.7 8 0 .7 0 1.6.6 2 .7.6 1.7.2 2.4-.2 1.8-1 3.6-2.2 5-3.7 1.3-1.5 2.2-3.5 2-5.6 0-1-.4-2.2-1.4-2.6zM282.8 258.2c1-1 .7-2.8 0-4.2-.8-2.4-2-4.7-3.6-6.8-.5-.7-1.2-1.5-2-1.5-1 0-1.8.7-2 1.6-.4 1-.2 2 0 2.8.4 2 1 3.6 1.7 5.3.4 1.2 1 2.4 2.2 3 1 .8 2.7 1 3.6 0z"/><path fill="#F599AC" d="M248 257.8c2.8-1.8 4.8-4.6 5.6-7.8.2-1 .3-2 0-2.8-.5-1-1.7-1.5-2.5-1 .6.5.7 1.3.5 2-.2.6-.6 1.2-1 1.8l-3 3.8c-.8 1.2-2 2.5-3.6 2.3-.7 1 0 2.3 1 2.6 1 .2 2.2-.3 3-.8zM281 258v.4c.2.4.7.5 1 .4.4-.2.7-.6 1-1 1-2 .3-4.5-.6-6.7-.5-1.4-1.2-3-2.4-4s-3-1.4-4.4-.7c3.4 2.8 5.4 7.2 5.4 11.6z"/><path fill="#FFF" d="M247 80s-22 8.3-25 18.8c-3 10.4-13.6 24.3-37.2 22.3 0 0 20.5-3.3 25.6-11.4 5-8 12.2-28 36.5-29.7zM226.6 144s11.8 25.3 38.5 28c0 0-17.8.4-29.3-8.4-11.4-8.8-13.5-18-13.5-18l4.4-1.6zM238.8 171s1 7.5 1.5 7c.5-.2 8.8 2 11.6 5.2 2.8 3 2.8 8.8-2.3 14.7-5 5.8-19.7 6.3-19.7 6.3s3.4 8.6 10.8 8c0 0 5.2 8.2 11.8 9 0 0-6-.3-9.4-2.3-3.4-2-4.3-4-4.3-4s-4.4 0-7.8-4c-3.4-4-5-9.7-5-9.7s8.5 1 13.8-.7c5.2-2 8.7-6 8.7-6s4-6.2 1.4-9.5c-2.3-3.2-12.5-4.4-12.5-4.4s-4.3-11.4 1.3-9.7z"/><path fill="#FFF" d="M204.5 159s6 4.8 7.6 5.6c1.6 1 2.6.3 3.3-.5.7-.7-.8-3.4.3-3.6 1.2-.2 0 4.2 2.4 5.6 2.4 1.3 16 6.7 17.6 6.2 1.5-.5-5.6-3-5.6-3l-9.7-5s0-6.3-3-6.6c-2.8-.2-4.8 1.5-4.5 2.8.2 1.3 0 2.2 0 2.2s-6-6.6-8.3-3.6zM250.3 246.3s-3 6.6-5.8 8.5c-2.7 1.8.5-8 5.8-8.5zM275.6 248.5s4 4.2 4.5 8.8c0 0-6-4.7-4.4-8.8zM296.8 166.5c0 .8 13.7-5.6 15.7-7.6 2-2.2 1.7-7.6 2.6-7.7 1-.2-.3 4.4 1.6 4.4 1.8 0 7-4.4 8.3-5.8 1-1.4-.8-1.8-.8-1.8l-7 5.4s0-5.6-1.8-5.6c-1.7 0-4.5 8.5-4.5 8.5s-14 9-14.2 10z"/><path fill="#404241" d="M262.2 173.4c-27.6 0-38.3-22.2-39.8-25.7l-2.3 1.7c-.5.4-1.3.2-1.8-.4-.4-.6-.2-1.4.4-2 16.4-11 28.6-37.6 29.4-40 0-.6.4-1 .8-1 .4-.3 1 0 1.3 0 .2.2 14.7 10.8 30.5 16-.5-1-1.5-2.6-3.2-4.6-.4-.4-.5-1-.2-1.6.4-.5 1-.7 1.6-.6.2 0 24.4 6 26.3 27.7l-.2.2c0 .3-4.8 26.4-36.5 30l-6 .2zM224.6 146l.2.3c.4 1 10.7 27.7 43.2 24 28.4-3 33.7-25.3 34-27.4-1.2-14.4-13.4-21-20-23.8 1.8 3 2 4.7 2 5 0 .4-.3.8-.7 1-.3.3-.8.4-1.2.3-14.3-4.3-27.8-13.2-32-16.2-2.8 6-12.4 25.2-25.4 36.6z"/><path fill="#404241" d="M301.2 151.2c-.3 0-.6-.2-1-.4-.4-.5-.4-1.4 0-2 .2 0 15.2-15.6 8.8-37.6-3-10-11-19-22-25-12.3-6.8-26.6-8.6-38.3-5h-.2c-.3 0-25.6 3-32.8 21-5.6 14-20.6 18-29 19.5 5 1.4 12.7 2.7 18.3-.3.6-.3 1.4 0 1.8.5.3.5.2 1.3-.4 1.7-.6.5-13 9.4-26.6 8.2 6.7 4.4 19.2 11 30.3 8.4 1 0 1.6.3 1.8 1 0 .8-.3 1.5-1 1.7-17.6 4.3-37-12-37.7-12.7-.4-.5-.5-1.2-.2-1.7.3-.6 1-1 1.6-.6 8 2.8 16.5.5 22.5-2h-.3c-8.3 0-16.4-3.7-17-4-.5-.2-.8-.8-.6-1.4.2-.6.7-1 1.4-1 .2 0 25.6-.6 32.8-18.5 7.6-19 32.6-22.2 35-22.5 12.2-3.7 27.2-1.8 40 5.2 11.8 6.4 20.3 16 23.4 26.7 6.8 23.6-9.2 40.2-9.4 40.4-.3.2-.6.4-1 .4z"/><path fill="#404241" d="M216 155.7c-20.8 0-32.5-11.7-33-12.2-.4-.4-.5-1-.3-1.6.3-.6 1-1 1.5-.8 6.7 1.2 11.2-.6 11.3-.6.7-.3 1.5 0 1.7.7.3.7 0 1.5-.7 1.8 0 0-3.3 1.4-8.3 1.3 5 3.7 16 9.6 31.2 8.6.8 0 1.4.4 1.5 1.2 0 .7-.7 1.4-1.4 1.4H216zM276.6 227.4c-2.3 0-4-1-5-1.6-10.2 3.5-15-1-16.6-2.8-10.7.7-15.7-5-17-6.8-10.5-1.4-13-14.8-13.2-15.4 0-.5 0-1 .4-1.2.3-.3.7-.5 1.2-.4 13 2.8 18.6-2.4 20.7-5.7 2.4-3.5 2.2-7 1.7-7.7-1.5-2-7.5-3-11-3.2-.4 0-1-.3-1-.8-2.4-5.4-1.7-12.7-1.6-13 0-.4.3-.8.7-1s.8-.3 1.2 0c4.3 1.6 13.4 1.8 13.5 1.8.7 0 1.3.6 1.3 1.3 0 .7-.6 1.3-1.4 1.3-.3 0-7.7-.2-12.8-1.5 0 2 0 6 1.2 9.2 2.6.2 9.7 1 12 4 1.4 2 1.3 6.6-1.4 11-2.4 3.7-8.2 9.4-21.5 7.3 1 3.5 4 10.7 10.8 11.3.4 0 .8.3 1 .7.2.2 4.3 7 15.7 6 .6 0 1 0 1.3.6.2 0 4 6 14.6 2 .5-.2 1 0 1.4.3 0 0 1.8 1.6 4.2 1.4 2-.2 3.7-1.4 5.4-3.7l.6-.4s10.4-4 14-10c-1-3-6.5-16.8-14.8-18.2-4-.7-4.8-6.5-4.7-10 .2-2.8 4-3.3 8-3.8 2.2-.3 4.7-.6 6-1.3l-2.4-10-5 2c-.6.2-1.4-.2-1.6-1-.3-.6 0-1.3.7-1.6l6.6-2.5h1c.4.3.7.6.8 1l3 12.4c.2.5 0 1-.4 1.3-1.8 1.4-5 2-8.2 2.3-1.8.2-5.3.6-5.6 1.3 0 3.2.8 7 2.5 7 10.8 2 16.8 20 17 20.8.2.4 0 .8 0 1-3.5 6.5-13.3 10.8-15.4 11.6-2 2.7-4.5 4.2-7 4.4h-.7z"/><path fill="#404241" d="M236 180c-7.6-.7-17-6-20.2-8-2 2.3-6.3 6.5-9.3 5-.8-.3-1.4-1-1.7-2-.3-1 0-2 0-3-.3 0-1 0-1.4-.3-1.5-.3-2.7-1.3-3.6-2.8-1-1.7-.7-3-.3-3.7.8-1.3 2.4-2 4-2.4-.6-.7-1-1.5-1.2-2.3 0-.7 0-2 1.2-3 2.3-2 6 0 8.3 2 0-1 .5-1.6 1-2.2 1-1 2.2-1.6 4-1.5 2.5 0 2.7 2.4 3 4 0 1.7.3 3 1.7 3.7 4 2 14.5 6.3 14.6 6.4.8.3 1 1 .8 1.8s-1 1-1.7.8c-.4-.2-10.8-4.4-14.8-6.5-2.8-1.4-3-4-3.2-6 0-.4 0-1.2-.3-1.4-1 0-1.5.2-2 .6-.3.6-.4 1.8 0 3.5 0 .6-.3 1.2-.8 1.5-.7.3-1.3 0-1.7-.3-2.2-2.5-6-5.2-7-4.2l-.3.5c0 .7 1.6 1.8 2.7 2.3.5.3.8 1 .7 1.5 0 .7-.7 1-1.3 1.2-2 0-4.7.6-5 1.4-.2.3 0 .6 0 1 .6.8 1.2 1.3 2 1.5 1.3.4 2.6-.4 2.6-.4.5-.4 1.2-.3 1.7 0 .4.5.5 1.2.2 1.8-.6 1-1.4 3-1 4 0 0 0 .2.2.3 1 .4 4.2-2.2 6.8-5.3.5-.5 1.2-.7 1.8-.3 0 .2 11.7 7.5 19.8 8.3 1 0 1.4.8 1.4 1.5s-.7 1.2-1.4 1.2zM293 176.3c-.5 0-1-.3-1.2-.8-.3-.7 0-1.5.8-1.8 8-3.3 22-11 22-11.2.5-.2 1-.2 1.3 0 3.8 1.6 8 2.6 8.8 2v-.2c-.2-1-2-2.2-3.3-2.8-.5-.3-.8-1-.6-1.5 0-.6.5-1 1-1 3.6-.3 6.6-1.3 6.8-2 0 0 0-.3-.4-.4-1-.6-4 0-5.7.4-.6.2-1.2 0-1.5-.6-.4-.5-.3-1.2.2-1.7 2-2 3.5-4.2 3.3-4.8-1-.6-4 1.8-6.2 4.7-.4.5-1 .6-1.6.4-.7 0-1-.7-1-1.3.3-1.8.2-4 0-4.4h-.3c-1.2.5-2 3-2.4 4.7-.6 1.8-1 3.4-2 4.3-4.3 4-18.5 10-19 10.2-.8.3-1.6 0-2-.8-.2-.6 0-1.4.8-1.7.3 0 14.5-6 18.5-9.7.4-.4.8-2 1.2-3 .7-2.6 1.6-5.6 4-6.5 1.5-.5 2.4 0 2.8.4.8.6 1.2 1.8 1.3 3 2.2-2 5-4 7.3-2.6 1 .5 1.3 1.3 1.4 2 0 1.4-.6 2.8-1.5 4 1.2 0 2.6 0 3.7.6.8.5 1.4 1.2 1.7 2 .2 1 0 1.7-.4 2.4-1 1.4-3.2 2.2-5.2 2.6.7.7 1.4 1.5 1.6 2.5.2.8 0 1.6-.3 2.3-1.6 2.7-7.7.8-11.6-.8-2.7 1.5-14.4 8-21.8 11h-.5zM245 260.2c-.7 0-1.3-.2-2-.7-1.3-1.2-1.5-3.4-.4-6.3 1.4-3.8 5.5-9.3 9.2-9.3h1.2c.8.4 2.6 1.5 2 4.7-.7 4.3-6 11.5-10 11.5zm6.8-13.6c-1.7 0-5.2 3.7-6.7 7.6-.5 1.6-.6 3 0 3.3 2 0 6.7-5.5 7.4-9.2.2-1.4-.2-1.6-.4-1.7h-.2zM281.8 260.5c-3.8 0-7.6-7.2-8.4-11-.7-3.6.7-4.7 1.6-5l1.4-.3c4 0 7.7 6.8 8.3 11.2.5 4-1.3 4.8-2 5h-1zm-5.4-13.6h-.4c-.2.3-.2 2.2 1.2 5 1.6 3.8 3.8 5.8 4.6 5.8.3-.2.5-2-.6-5-1.2-3.2-3.4-6-4.8-6z"/><path fill="#404241" d="M251 246.2h-.3c-.7 0-1.2-.7-1-1.5l2.7-22.8c0-1 .7-1.4 1.5-1.3.6 0 1 .8 1 1.5l-2.8 23c0 .5-.6 1-1.3 1zM254 247h-.6c-.7-.4-1-1.2-.8-2 0 0 6.4-16.7 7.3-19.6 0-.7 1-1 1.6-1 .7.3 1 1 1 1.8-1 3-7.2 19.2-7.4 20-.2.4-.8.8-1.3.8zM274.4 247.7c-.7 0-1.2-.5-1.3-1l-3.5-20.7c-.2-.7.3-1.4 1-1.6.8 0 1.5.4 1.6 1l3.7 20.7c0 .8-.3 1.5-1 1.7h-.3zM278.3 246.5c-.7 0-1.3-.6-1.3-1.3-1-18.3-.4-18.7 0-19.2.4-.3 1-.4 1.3-.4.7.2 1.2 1 1 1.6v.4c-.2 1.6 0 10 .4 17.5 0 .8-.6 1.4-1.3 1.5zM259 181c-1.3 0-4-1.4-10.7-8-.6-.4-.6-1.3 0-1.8.4-.5 1.3-.5 1.8 0 3.3 3 7.3 6.3 8.7 7 .8-1 2.4-4 3.6-6.5.3-.7 1-1 1.8-.6s1 1.2.8 2c-.8 1.4-3.2 6.4-4.8 7.6-.2 0-.5.3-1 .3z"/><path fill="#404241" d="M271.7 181.4c-.6 0-1-.2-1.5-.6-2.6-2-6.8-6.5-7-6.6-.5-.6-.5-1.4 0-2 .6-.5 1.5-.4 2 0 0 0 4 4.4 6.6 6.5 1.2-.4 4.4-4.8 7-9.7.4-.7 1.2-1 1.8-.6.7.4 1 1.2.6 2-1.3 2.3-5.7 10.2-9 11h-.5zM261.3 198.5c-7.8 0-13.2-2.4-13.6-2.6-.6-.4-1-1.2-.6-2 .4-.5 1.2-.8 2-.5 0 0 15.7 7 32-3.7.5-.4 1.3-.2 1.8.4.4.6.2 1.5-.4 2-7.6 5-15 6.3-21 6.3zM261.5 165.6c-16.8 0-21.6-15.5-21.7-15.7-.2-.8.2-1.5 1-1.7.6-.2 1.4.2 1.6 1 .2.5 5 15.6 22.6 13.4 17.5-2.3 18.5-16.3 18.5-17 0-.6.7-1.2 1.4-1.2s1.2.7 1.2 1.5c0 0-1 16.8-21 19.4l-3.7.2z"/><path fill="#404241" d="M263.5 147.6c-1.6 0-3-.4-4-1-.6-.4-.7-1.3-.3-2 .5-.5 1.3-.6 2-.2.4.4 2.8.8 4.5 0 1-.3 1.4-1 1.5-1.8 0-.6 0-1-.4-1.4-1-1-3.7-1.3-4.6-1.3-.7 0-1.4-.7-1.4-1.5 0-.7.6-1.3 1.3-1.3.6 0 4.8 0 6.8 2.2 1 1 1.2 2.2 1 3.5-.2 1.7-1.3 3.2-3 4-1 .4-2.2.6-3.3.6zM239 138.5h-.2c-.8-.2-1.2-1-1-1.6.6-3.2 2-5.2 4-6 3.4-1.6 7 .4 7.2.5.7.4 1 1.2.5 1.8-.3.7-1.2 1-1.8.5 0 0-2.7-1.4-4.8-.5-1.3.6-2.2 2-2.6 4-.2.8-.7 1.2-1.3 1.2z"/><g><path fill="#404241" d="M273.7 133h-.7c-.6-.5-1-1.3-.5-2 1.6-2.6 3.5-4 5.8-4.2 4-.3 7 3.6 7 3.8.6.6.5 1.4 0 2-.7.4-1.5.3-2-.3-.7-1-2.8-3-5-2.8-1 0-2.4 1-3.4 3-.4.3-.8.6-1.3.6z"/></g></g></svg>