<svg xmlns="http://www.w3.org/2000/svg" width="380.5" height="376" viewBox="0 0 380.455 376"><path fill="#03EAE4" d="M373.7 188.4c0 101.8-82.6 184.4-184.4 184.4-102 0-184.5-82.6-184.5-184.4C4.8 86.4 87.4 4 189.3 4 291 4 373.7 86.5 373.7 188.4z"/><path fill="#00D1CB" d="M189.3 4C291 4 373.7 86.5 373.7 188.4c0 101.8-82.6 184.4-184.4 184.4"/><path d="M231 128.5c1-.6 2-.5 2.6.3.6.8.4 2-.3 2.5-7.5 5.6-12 12.2-15.8 18-1.4 2.2-2.7 4.3-4 6-.7 1-1.8 1-2.6.4-1-.5-1-1.6-.4-2.4l4-6c4-6 8.6-13 16.5-18.8"/><path fill-rule="evenodd" clip-rule="evenodd" fill="#F00" d="M209.6 149c-3.7-2.3-7.4-3-9.2-.4-1.8 2.7-2.3 3.3 4.4 7.7 6.7 4.5 7 3.8 9 1 1.7-2.6-.6-5.7-4.2-8.2"/><path d="M209 149.8c-.7-.5-1.4-1-2.2-1.2v-2c1 .5 2.2 1 3.2 1.8 2 1.4 3.7 3 4.5 4.6 1 1.6 1 3.3 0 4.8h-.2c-1.8 3-2.5 4-7.5 1v-2.2c4.5 3 5 2.2 6 .4h.2c.6-1 .6-2 0-3.2-.6-1.4-2-2.7-4-4m-2.2-1.2c-1-.5-2-.8-3-1-1 0-2 .5-2.7 1.4-1.3 2.2-1.7 2.7 4.2 6.6l1.6 1v2l-2.5-1.5c-7.3-4.8-6.8-5.6-4.7-9 1-1.5 2.6-2 4.4-2 1 0 2 .3 2.8.7v2zM246 139c.4-.8 1.5-1 2.3-.6 1 .5 1 1.6.6 2.5-2.3 3.7-4.5 8-6.6 12.6-2.5 5.3-5 11-6.8 16-.4.8-1.4 1.3-2.3 1-1-.5-1.4-1.5-1-2.4 2-5 4.3-10.7 7-16 2-4.7 4.3-9.2 6.6-13M255 91c1-.2 2 .5 2 1.4.3 1-.3 2-1.3 2-5.4 1-10.5.6-15-1.2-5-1.8-9.2-5-13-9.4-.5-.7-.4-1.8.3-2.5.8-.6 2-.5 2.5.2 3.3 3.8 7 6.7 11.4 8.4 4 1.4 8.3 2 13 1M275.8 106.6c0-1-.5-2-1.5-2s-2 .5-2 1.5c-.5 3.7-.4 7 .6 10.2.8 3 2.6 6 5.3 9 2.8 3 6 4.4 9 5 3.2.5 6.4.2 9.5-.6 1-.3 1.5-1.2 1.2-2.2-.2-1-1.2-1.5-2-1.3-2.8.8-5.4 1-8 .7-2.5-.5-5-1.7-7.2-4-2.3-2.4-3.7-5-4.5-7.5-.8-2.7-1-5.5-.5-8.6"/><path fill-rule="evenodd" clip-rule="evenodd" fill="#1E396E" d="M249.5 122c-4.6-3-9.8-5.7-12-6-8 6-9.8 6.5-14 11 .8 4.5 8 13 12 13.2l3.6-2.3-.7 4c4 5 12.4 7 16.7 6 2.7-5.7 2.5-7.6 5-17.2-1.3-2-6-5.7-10.5-8.7"/><path d="M249 122.8c-2.3-1.5-4.8-3-7-4 0-.2 0-.2-.2-.2v-2l1 .6c2.3 1 4.8 2.6 7.2 4.2 2.3 1.6 4.7 3.3 6.6 5 2 1.5 3.4 3 4 4 .2 0 .3.4.2.6l-1.7 7c-.8 4-1.3 6.3-3.2 10.2 0 .3-.3.4-.6.5-2.5.7-6 .4-9.6-.8-1.3-.6-2.6-1.2-3.8-2v-2c1.3 1 2.8 1.7 4.3 2.3 3 1 6.2 1.3 8.4.8 1.7-3.5 2.2-5.5 3-9.5l1.7-6.5c-.6-1-2-2-3.4-3.4-2-1.5-4.2-3.2-6.6-4.8m-7.2-4.2c-1.7-1-3.2-1.6-4.2-1.8l-5.4 4c-3.3 2.4-5 3.6-7.7 6.6.5 2 2.4 5 4.6 7.5 2.2 2.2 4.5 4 6.3 4.4l3.3-2.2c.4-.3 1-.2 1.2.2v.6l-.6 4c.8.7 1.6 1.5 2.6 2v2c-1.6-.8-3-2-4-3.3-.3-.2-.4-.5-.3-.8l.4-2.3-2 1.2h-.6c-2.2 0-5-2.2-7.5-5-2.7-2.8-4.8-6.3-5.2-8.7 0-.3 0-.6.2-.8 3-3.3 4.7-4.5 8.2-7l5.6-4.3.8-.2c1 .2 2.5.8 4.2 1.7v2z"/><path fill-rule="evenodd" clip-rule="evenodd" fill="#F00" d="M229 118.4c5.5-4 13.7-14 19.5-17.5l-4.3-1.3c-.4-2.7-.8-6.3.8-11 15.7-1.8 32 9 36.3 24-3.6 3.5-7 4.5-9.7 5-1-1-1.6-2-2.8-3.4-2.2 8-7.6 19.8-7.8 25.2-10 0-28-12-32-21"/><path d="M255.2 88.4c4.5 1 8.8 2.8 12.6 5.3 6.8 4.4 12 11 14.3 19 .2.2 0 .5-.2.8-1.8 1.7-3.6 2.8-5.4 3.6-1.7 1-3.2 1.3-4.6 1.6-.3 0-.7 0-1-.2l-1-1.6-.6-.6-3 8.5c-2 5.8-4.2 11.6-4.3 14.8-.2.5-.5.8-1 .8-1.7 0-3.7-.3-5.8-1v-1.7c1.8.5 3.5 1 5 1 .4-3.5 2.4-9 4.4-14.5 1.3-3.4 2.6-7 3.4-10l.3-.3c.4-.3 1-.2 1.2 0 .6 1 1 1.5 1.5 2l1 1.2c1-.4 2.4-.8 3.8-1.5 1.4-.6 3-1.5 4.5-3-2.2-7-7-13.2-13.4-17.4-3.6-2.2-7.6-4-11.8-4.8v-1.8zm-26.6 29.3c2.4-1.8 5.3-4.7 8.3-7.7 3.2-3.2 6.5-6.6 9.5-8.8h-.6l-2-.7c-.4 0-.6-.4-.6-.7-.2-1.4-.5-3-.4-5 0-1.7.4-4 1.2-6.3.2-.3.5-.5.8-.5 3.4-.4 7-.3 10.2.4v1.8c-3-.7-6.3-1-9.6-.6-.6 2-1 3.8-1 5.4 0 1.5.2 2.8.4 4l1.4.4 2.3.6c.2 0 .4.2.5.4.3.4 0 1-.3 1.2-3.2 2-7 5.8-11 9.6-2.7 3-5.5 5.6-7.8 7.4 2 4.3 7.3 9 13 13 4 2.6 8.3 4.7 12 6v1.7c-4-1.2-8.6-3.5-12.8-6.3-6.4-4.2-12-9.6-14-14.3-.2-.4 0-.8.2-1"/><path fill-rule="evenodd" clip-rule="evenodd" fill="#FFF3EB" d="M271 89.8c3.7 2.4 5 6.6 3.2 9.4-1.8 3-6.3 3.2-10 .8-3.5-2.3-5-6.6-3-9.4 2-2.8 6.3-3.2 10-.8"/><path d="M271.6 89c2 1.4 3.3 3.2 4 5 .6 2 .4 4-.7 5.7-1.2 1.7-3 2.6-5 2.7h-2.3v-1.8c.7 0 1.5.2 2 0 1.7 0 3-.7 3.8-1.8.8-1.2 1-2.7.4-4.2s-1.7-3-3.4-4c-1-.7-2-1-3-1.4v-1.7c1.4.2 2.7.8 4 1.6m-4 13.3c-1.2-.2-2.5-.7-3.8-1.5-2-1.3-3.3-3.2-4-5-.6-2-.4-4 .7-5.7 1-1.5 3-2.4 5-2.6h2.2v1.8c-.7 0-1.4-.2-2 0-1.7 0-3 .7-3.8 2-1 1-1 2.6-.5 4 .5 1.6 1.6 3 3.3 4 1 .8 2 1.2 3 1.4v1.7z"/><path fill-rule="evenodd" clip-rule="evenodd" fill="#FFF3EB" d="M289.6 62c-9.3-6.3-22-3.7-28 5.6-6.3 9.4-3.7 22 5.6 28 9.4 6.3 22 3.8 28.2-5.6 6.2-9.3 3.6-22-5.8-28"/><path d="M289.2 62.6c-3.3-2.2-7-3.2-10.8-3.2v-1.7c4 0 8 1 11.7 3.5 5 3.2 8 8 9.2 13.4 1 5.3 0 11-3 16-3.3 4.8-8.2 8-13.5 9-1.4.2-2.8.4-4.3.4v-1.7c1.3 0 2.6-.2 4-.4 4.8-1 9.3-4 12.3-8.4 3-4.5 3.8-9.8 2.8-14.6-1-5-3.8-9.4-8.3-12.4m-10.8-3.2c-1.3 0-2.6 0-3.8.4-5 1-9.4 3.8-12.4 8.3-3 4.6-3.8 9.8-2.8 14.7 1 5 3.8 9.4 8.3 12.3 3.3 2.2 7 3.3 10.7 3.3v1.7c-4 0-8-1.2-11.6-3.5-5-3.3-8-8.2-9-13.5-1.2-5.3-.2-11 3-15.8 3.2-5 8-8 13.4-9 1.4-.4 2.8-.5 4.2-.5v1.7z"/><path fill-rule="evenodd" clip-rule="evenodd" fill="#FFF" d="M285 89c-3 1.6-14.6-5.8-19-11-2.4 11.2 9.4 19.3 19 11"/><path fill-rule="evenodd" clip-rule="evenodd" fill="#FFD9BF" d="M269.5 72.3c-1.8-1.3-4-1-5 .3-1 1.5-.3 3.6 1.6 5 2 1 4.3 1 5.2-.5 1-1.3.2-3.5-1.7-4.7M287.8 84.6c-2-1.2-4-1-5 .4s-.3 3.6 1.6 4.8c2 1.3 4.2 1 5-.3 1-1.4.3-3.6-1.6-5"/><path fill-rule="evenodd" clip-rule="evenodd" d="M287 79.8c-1-.7-2.7-1.2-3.6-1.2-1 0-.8.7.3 1.4 1 .8 2.6 1.3 3.6 1.2 1 0 .8-.6-.3-1.4"/><path fill="none" d="M287 79.8c-1-.7-2.7-1.2-3.6-1.2-1 0-.8.7.3 1.4 1 .8 2.6 1.3 3.6 1.2 1 0 .8-.6-.3-1.4z"/><path fill-rule="evenodd" clip-rule="evenodd" d="M275 73.8c-.8-1-2-2.2-3-2.6-.8-.4-.8.2 0 1.2s2 2.2 3 2.6c.7.4.7 0 0-1.2"/><path fill="none" d="M275 73.8c-.8-1-2-2.2-3-2.6-.8-.4-.8.2 0 1.2s2 2.2 3 2.6c.7.4.7 0 0-1.2z"/><path fill-rule="evenodd" clip-rule="evenodd" d="M298.8 85.2c-5-4-8.6-17.6-5-24 7.5 5 9 17.8 5 24"/><path d="M298.2 86l-1.6-1.7V81c.6 1 1.3 2 2 2.7 1.4-3 1.8-7.4 1-11.6-.6-2.3-1.6-4.7-3-6.7v-3c2.4 2.6 4 6 4.7 9.5 1 5 .5 10.5-1.7 14-.2.4-.8.5-1.3.2zm-1.6-1.7c-2-2.5-3.7-6.4-4.6-10.5-1-4.8-1-9.7 1-13 .2-.4.8-.6 1.2-.3 1 .6 1.7 1.2 2.4 2v2.8c-.7-1-1.5-1.8-2.5-2.6-1 2.8-1 6.8 0 10.7.5 2.8 1.4 5.4 2.6 7.6v3.3zM282.5 90c-2.4-.4-5.3-1.7-8-3.3v-2h.2c3.7 2.5 7.7 4.2 10.2 3.8.2 0 .5 0 .7.3.3.4.3 1 0 1.2-2.8 2.2-5.6 3.2-8.3 3.3-1 0-2 0-2.8-.2v-1.6c.8.2 1.8.3 2.7.2 1.7 0 3.5-.5 5.2-1.5m-8-3.3l-.7-.5c-3-2-5.6-4.4-7.2-6.6 0 2.2.3 4.2 1 6 1 1.8 2.3 3.4 4 4.5 1 .7 2 1 3 1.4V93c-1.4-.2-2.8-.7-4-1.5-2-1.2-3.5-3-4.5-5.4-1-2.5-1.5-5.7-.7-9.3 0-.3.3-.6.6-.7.4 0 .8.2 1 .6.7 2.4 4 5.6 7.6 8v2z"/><path fill-rule="evenodd" clip-rule="evenodd" d="M261.2 65.6c7.6 6.3 28 4.6 35-2-9-9.2-27.6-11.5-35 2"/><path d="M278.7 68.5c6.3-.4 12.6-2.2 16.2-5-1.4-1.3-3-2.3-4.6-3.2-3.6-2-7.7-3.2-11.7-3.3v-2c4.3.3 8.7 1.5 12.6 3.6 2 1.2 4 2.6 5.7 4.2.4.4.4 1 0 1.4-4 3.5-11 5.7-18.3 6.2v-2zm-16.3-3.2c3.7 2.6 9.8 3.6 16 3.2h.3v2h-.2c-7 .3-14-1-18-4.2-.2-.3-.3-.8 0-1.2.8-1.6 2-3 3-4.2 3.7-3.7 8.5-5.5 13.4-5.7h1.7v2H277c-4.5.2-8.8 1.8-12 5-1 1-1.8 2-2.6 3.3"/><path fill-rule="evenodd" clip-rule="evenodd" fill="#F00" d="M239.6 169c3.7 2.5 6 5.6 4 8.3-1.6 2.7-2 3.4-8.7-1-6.8-4.5-6.3-5-4.6-7.8 1.8-2.7 5.6-2 9.2.5"/><path d="M240 168.3c2.2 1.4 3.8 3 4.6 4.6.8 1.5 1 3.2-.2 4.8-2 2.8-2.5 3.8-7.5.8v-2c4.3 2.8 4.8 2.2 6 .3v-.2c.7-1 .6-2 0-3-.6-1.5-2-2.8-3.8-4-.8-.6-1.6-1-2.3-1.3v-2c1 .5 2 1 3 1.8m-3 10.3l-2.6-1.6c-7.4-5-6.8-5.7-4.7-9 1-1.5 2.6-2 4.4-2 1 0 2 .3 3 .6v2c-1-.6-2-1-3-1-1.2 0-2.2.4-3 1.4-1.3 2-1.6 2.6 4.3 6.5.6.4 1 .8 1.6 1v2z"/><path fill="#FFF" d="M255 113.7c-.6-.3-1-.5-1.5-.5v-4.8l1.4-.6 3.8-1.7 4 2.6-6.6 2.8c.3 0 .5.2.8.3.3 0 .5.3.8.4 1.2 1 2 2 2 3.3.3 1.3 0 2.6-.8 4-1 1.4-2.3 2.3-4 2.6h-1.5v-3.6h.5c.6 0 1.2-.5 1.6-1.2.4-.6.6-1.3.5-2 0-.5-.4-1-1-1.5m-1.5-.5h-.5c-.6.2-1.2.6-1.6 1.3-.4.6-.6 1.2-.4 2 0 .5.5 1 1 1.4.6.3 1 .4 1.5.4v3.6c-1-.2-2-.6-3.2-1.3-1.6-1-2.6-2.3-3-4-.3-1.4 0-3 1-4.5.6-.8 1.3-1.5 2.2-2 .6-.6 1.6-1 3-1.8v4.8z"/><path d="M272.7 80.8c-.2-.4 0-1 .3-1.2.4-.2 1 0 1.2.4.4.8 1 1.5 1.8 2 .6.5 1.3.8 2 .8.5 0 1 .3 1 .8s-.5 1-1 1c-1 0-2-.5-3-1.2-1-.6-1.8-1.6-2.3-2.6M199 80c-.8-.5-1-1.6-.5-2.4.6-.8 1.7-1 2.5-.4 4 2.7 8 4 12.4 4.4 4.6.2 9.3-.8 14-3 .8-.4 1.8 0 2.2 1 .4.8 0 1.8-.8 2.2-5 2.4-10.4 3.6-15.6 3.3-5-.2-9.7-1.8-14.2-5"/><path fill-rule="evenodd" clip-rule="evenodd" fill="#FFF3EB" d="M229 73.4c-1.4 0-2.5.7-3.3 1.6-.5-.4-1-.6-1.3-.4-.8.4-.8 2.2 0 4 .4 1 1 1.7 1.5 2.2.8 1 2.2 1.5 3.6 1.3 2.6 0 4.5-2.2 4.3-4.6-.3-2.4-2.5-4.2-5-4"/><path d="M229 74.3h-.2v-1.7c1.5-.2 3 .3 4 1.2 1 .8 1.8 2 2 3.5 0 1.5-.5 2.8-1.4 4-1 1-2.2 1.6-3.7 1.7h-1v-1.7h1c1 0 1.8-.6 2.4-1.3.8-.7 1-1.6 1-2.5 0-1-.5-1.8-1.3-2.4-.7-.5-1.7-.8-2.7-.7m-.2 0c-.4 0-1 .2-1.3.4-.4.2-.8.5-1 1-.4.2-1 .2-1.3 0l-.4-.3s-.2.3-.2.7c0 .7.2 1.5.6 2.3l.6 1 .7 1 1.4.8c.2.2.5.3.8.3V83l-1.5-.3c-.8-.3-1.4-.7-2-1.3l-1-1-.6-1.4c-.5-1-.8-2-.8-3s.3-1.8 1-2v-.2h1.6l1.2-.7c.6-.2 1.3-.4 2-.4v1.7z"/><path fill-rule="evenodd" clip-rule="evenodd" fill="#FF0" d="M164.3 55c-2 .2-3.6 2.3-3.6 5s1.8 5 4 5h.4c.6 1.6 2 3 3.4 3 0 3 1.8 5 4 5 1 0 2-.4 2.8-1.4.7 1 1.8 1.8 3 1.8h.5c.6 1.8 2 3 3.7 3 2 0 3.8-2 4-4.6 1.6.5 3.4.8 5.3.8 2 0 4-.4 5.6-1 .4 2.3 2 4 4 4 1.7 0 3.2-1.6 3.7-3.6.5.4 1 .6 1.8.6 1.5 0 2.8-1.2 3.5-2.8.7.6 1.5 1 2.4 1 2 0 4-2.2 4-5l-.3-1.8h.3c2.2 0 4-1.8 4-4 0-2-1.5-3.7-3.5-4 .6-.7 1-1.6 1-2.6 0-2.3-1.8-4-4-4h-.5c0-1.3-.4-2.5-1-3.3.3-.5.5-1 .5-1.8 0-1.6-1-3-2.3-3.7 0-.5.3-1 .3-1.6 0-2.4-2-4.2-4-4.2h-.7c-.4-1-1.2-2-2.2-2.4v-.2c0-2.2-1.8-4-4-4-1.7 0-3.2 1-3.8 2.5-.7-1-2-1.7-3.3-1.7-1 0-2 .5-2.8 1.2-.7-1-2-1.8-3.4-1.8-1.8 0-3.4 1.4-3.8 3.2h-.3c-1.7 0-3 1-3.7 2.2-.8-1-2-1.6-3.3-1.6-2.2 0-4 1.8-4 4 0 .8.2 1.5.5 2-1.7.5-3 2.2-3 4 0 .7 0 1.3.3 2-.2-.2-.5-.2-.8-.2-2.2 0-4 1.8-4 4 0 1.3.5 2.4 1.3 3-1 1-2 2.3-2 4"/><path d="M190.7 71.7h1c1 0 2 0 2.7-.2 1 0 1.8-.3 2.7-.6.5-.3 1 0 1 .4h.2c0 1 .6 2 1 2.4.7.5 1.3 1 2 1 .6 0 1.2-.4 1.8-1 .5-.4 1-1 1-2 .3-.4.7-.7 1.2-.6h.2l.7.4h.8c.5 0 1 0 1.5-.4s1-1 1.2-1.7c.2-.4.7-.6 1-.5.2 0 .3 0 .4.2 0 .2.4.4.7.6h1c.8 0 1.5-.3 2-1 .7-.8 1-1.8 1-3V65v-.7c-.3-.5 0-1 .4-1h.7c1 0 1.7-.4 2.2-1 .5-.6 1-1.4 1-2.3 0-.8-.4-1.5-1-2-.4-.7-1-1-2-1.2-.3 0-.7-.5-.6-1 0 0 0-.3.2-.4.3-.3.4-.6.6-1l.2-1c0-1-.4-1.7-1-2.3-.6-.5-1.4-.8-2.3-.8h-.2c-.5 0-1-.3-1-.8 0-.6 0-1-.2-1.6 0-.4-.3-1-.6-1.3-.2-.2-.2-.6 0-.8l.2-.7v-.8c0-.6 0-1.2-.4-1.7-.3-.5-.7-1-1.3-1.2-.4-.2-.6-.7-.4-1 .2-.3.3-.5.3-.8V39c0-1-.2-1.8-.8-2.4-.6-.6-1.4-1-2.3-1h-.3-.3c-.4 0-.8 0-1-.5 0-.3-.3-.7-.6-1-.2-.4-.5-.6-1-.8-.3-.2-.4-.5-.4-1 0-.8-.4-1.6-1-2.2-.5-.6-1.3-1-2.2-1-.7 0-1.3.2-1.8.6-.5.3-1 .8-1.2 1.4-.2.5-.7.7-1 .5-.3 0-.4-.2-.5-.3l-1.2-1-1.5-.3H192l-1 .8s0 .2-.3.2v-2l.8-.5 1.8-.3c.8 0 1.6.2 2.3.5l1 .6c.2-.4.6-.8 1-1 .8-.7 1.8-1 2.8-1 1.3 0 2.6.6 3.4 1.5 1 .8 1.4 2 1.5 3l1 1c.4.4.6.7.8 1.2h.2c1.4 0 2.6.5 3.5 1.4 1 1 1.4 2 1.4 3.4v1.4c.5.3 1 .8 1.3 1.4.5.7.7 1.6.7 2.6v1l-.3.8.5 1.3.3 1.2c1.2 0 2.3.6 3 1.4 1 .8 1.6 2 1.6 3.4 0 .5 0 1-.2 1.6l-.2.5c.7.3 1.3.7 1.8 1.3.7.8 1.2 2 1.2 3.2 0 1.3-.6 2.6-1.5 3.5-.6.7-1.5 1.2-2.6 1.3v1c0 1.6-.4 3-1.3 4-.8 1.2-2 1.8-3.4 1.8-.5 0-1 0-1.5-.3l-.4-.2c-.3.6-.8 1-1.2 1.5-.8.6-1.7 1-2.6 1l-1.2-.3-1.5 2c-.7.7-1.7 1-2.8 1-1.2 0-2.2-.3-3-1.2-.7-.6-1.2-1.4-1.5-2.3l-2 .5-3 .2h-1v-1.7zm-26.3-16c-.8.2-1.5.7-2 1.4-.5.8-.8 1.8-.8 3 0 1 .4 2.2 1 3 .5.6 1.3 1 2 1h.3c.4 0 .8.3 1 .6 0 .8.5 1.4 1 2 .4.3 1 .6 1.5.7.4 0 .7.4.7.8 0 1.3.4 2.4 1 3 .6 1 1.3 1.3 2.2 1.3.4 0 .8 0 1-.3.5-.2.8-.5 1-1 .4-.2 1-.3 1.3 0 0 0 .2 0 .2.2.2.4.6.8 1 1 .4.3.8.4 1.2.4h.4c.4 0 .8 0 1 .5.2 1 .6 1.5 1 2 .6.3 1.2.5 1.8.5.7 0 1.5-.4 2-1 .6-.7 1-1.7 1-2.8 0-.5.5-.8 1-.8h.2l2.5.5c.6 0 1.2 0 1.7.2v1.7c-.6 0-1.2 0-2-.2-.5 0-1-.2-1.7-.4-.2 1-.7 2-1.3 2.8-1 1-2 1.6-3.3 1.6-1 0-2-.3-2.7-1-.7-.5-1.2-1-1.5-2-.8 0-1.5 0-2-.5-.4-.2-.8-.5-1-.8-.3 0-.6.3-1 .5-.5.3-1.2.5-1.8.5-1.4 0-2.6-.7-3.5-1.8-.8-1-1.3-2-1.4-3.4-.7-.2-1.3-.6-1.8-1-.5-.6-1-1.3-1.3-2-1.3 0-2.4-.8-3.3-1.8-.8-1-1.3-2.5-1.3-4 0-1.6.3-3 1-4 .7-.8 1.6-1.5 2.5-1.8l.7-2 1-1.2-.7-1c-.2-.5-.4-1.2-.4-2 0-1.3.7-2.5 1.5-3.4 1-.8 2-1.4 3.2-1.5v-.7c0-1.2.3-2.2 1-3 .4-.7 1-1 1.7-1.5v-.2c-.2-.4-.3-1-.3-1.3 0-1.4.7-2.6 1.6-3.5 1-1 2-1.4 3.5-1.4.8 0 1.6.2 2.2.5.3 0 .7.3 1 .5l1-1c.8-.4 1.5-.7 2.3-.7.4-1 1-1.6 1.6-2.2 1-.6 2-1 3.2-1 .8 0 1.6.2 2.3.5.4.4.8.6 1 1h.2v2c-.3 0-.6 0-.8-.2 0 0-.2 0-.2-.2-.3-.4-.7-.7-1.2-1-.4-.2-1-.4-1.5-.4-.6 0-1.3.3-2 .8-.4.4-.8 1-1 1.8 0 .4-.5.7-1 .7-.7 0-1.3 0-1.8.4-.5.2-1 .7-1.2 1.2-.2.4-.7.6-1 .4-.2 0-.3-.2-.4-.3l-1-1-1.6-.2c-.8 0-1.6.4-2.2 1-.6.6-1 1.4-1 2.3v.8l.5 1c.2.3 0 .8-.3 1 0 0-.2 0-.3.2-.7 0-1.3.5-1.7 1-.5.6-.7 1.3-.7 2v.8l.3.7c.2.4 0 1-.4 1-.2.2-.4.2-.5.2l-.4-.2h-.3c-1 0-1.7.4-2.3 1-.5.5-1 1.3-1 2.2 0 .5.2 1 .4 1.4.3.4.6.8 1 1 .3.4.3 1 0 1.3h-.2l-1 1.4c-.4.7-.6 1.3-.7 2 0 .4-.2.8-.7.8M179.7 121.7c.3-1 1.3-1.4 2.2-1 1 .2 1.3 1.2 1 2.2-3 8.7-3 16.6-3 23.6 0 2.6 0 5-.2 7.3 0 1-1 1.6-2 1.6s-1.7-1-1.6-2v-7c0-7.3 0-15.6 3.5-25"/><path fill-rule="evenodd" clip-rule="evenodd" fill="#6C8FD4" d="M173 150.8c-4.3 0-8 1.4-8 4.6 0 3.2 0 4 8 4s8-.8 8-4-3.5-4.6-8-4.6"/><path d="M173 158.6c7.2 0 7.2-.6 7.2-3v-.2c0-1.2-.6-2-1.6-2.6-1.4-.8-3.3-1-5.5-1V150c2.6 0 4.8.4 6.4 1.3 1.6 1 2.5 2.2 2.5 4v.2c0 3.8 0 4.8-9 4.8v-1.7zm0-7c-2 0-4 .4-5.4 1.2-1 .6-1.6 1.4-1.6 2.6 0 2.6 0 3.2 7 3.2v1.7c-8.7 0-8.7-1-8.7-4.8 0-2 1-3.3 2.5-4.2 1.6-1 3.8-1.3 6.3-1.3v1.7zM197.8 122.4c0-1 .7-1.8 1.7-2 1 0 1.8.8 2 1.8 0 4.4.7 9.3 1.4 14.2.8 6 2 11.8 3 17 .2 1-.4 2-1.4 2-1 .3-2-.3-2-1.2-1.2-5.4-2.3-11.4-3.2-17.3-.8-5-1.3-10-1.6-14.6M179.6 77.3c1-.6 2.4-.5 3 .2 1 .8.8 2-.2 2.5-5.3 3.5-11.2 5.5-17.3 6-6.4.8-13 0-19.7-2-1.2-.3-1.7-1.3-1.3-2.2.4-1 1.7-1.4 3-1 5.8 1.7 11.8 2.4 17.5 1.8 5.3-.6 10.4-2.3 15-5.3"/><path fill-rule="evenodd" clip-rule="evenodd" fill="#1E396E" d="M191.5 106.2c-5.5 0-11.4.6-13.6 1.5-3.3 9.4-4.5 10.8-5.3 17 4 4.5 33.5 4.5 37.6 0-1-6.2-2-7.6-5.3-17-2-1-8-1.5-13.5-1.5"/><path d="M191.5 127.2c7.8 0 15.5-1 18-2.8-.7-4-1.4-6-3-9.7l-2.2-6.3c-1-.4-2.7-.7-4.7-1-2.4-.2-5.3-.3-8-.3v-1.6c2.7 0 5.7 0 8.2.4 2.4.3 4.4.6 5.5 1l.5.6 2.4 6.7c1.5 4.2 2.3 6.2 3 10.6 0 .2 0 .4-.3.6-.2 0-.3.2-.4.3-2.5 2.3-11 3.4-19 3.4V127zm0-20c-2.8 0-5.7 0-8 .3-2.2.2-4 .5-5 1l-2.2 6.2c-1.4 3.8-2 5.8-2.7 9.7 2.3 2 10 2.8 18 2.8v1.7c-8.4 0-16.8-1.2-19.3-3.5 0 0-.2 0-.2-.2l-.2-.7c.6-4.4 1.4-6.4 3-10.5l2.3-6.5.6-.6c1-.6 3.2-1 5.6-1.2 2.5-.3 5.4-.4 8.3-.4v1.7z"/><path fill-rule="evenodd" clip-rule="evenodd" fill="#C43573" d="M172.4 114.4c.3-8 2.5-18.4 7.5-26.3-2 .8-4 2-5.3 2.4-2-2-4.2-4.7-5.3-9.4 6.2-5.4 14.4-8 22.5-7.7 7.5 0 15 2.7 20.8 7.7-1 4.7-3.4 7.4-5.3 9.4-1.2-.3-2.6-1.8-4.4-2.4 3.8 3.4 7.6 20.8 7.7 26.4-8.3 5.3-30 5.3-38.3 0"/><path d="M191 72.4h1c4 0 7.8.8 11.5 2.2 3.6 1.3 7 3.2 10 5.7.2.2.3.6.2 1-.6 2.4-1.5 4.3-2.5 6-1 1.5-2 2.7-3 3.7-.3.3-.6.4-1 .3-.4-.2-1-.4-1.4-.8 1 2 2 4.7 2.7 7.6 1.8 6.2 3 13 3 16.4 0 .3 0 .5-.4.7-4.2 3-11.8 4.3-19.5 4.3h-.4v-1.8h.5c7 0 14.2-1.2 18.3-3.6 0-3.4-1.3-9.8-3-15.5-1.2-4.5-2.8-8.5-4.2-10-.3 0-.4-.5-.3-.8.2-.4.7-.7 1-.5 1 .3 2 1 2.8 1.5l1.3.7c.8-.8 1.6-2 2.4-3 1-1.5 1.6-3 2.2-5-2.8-2.3-5.8-4-9-5.2-3.6-1.3-7.3-2-11-2h-1v-1.8zm-19.4 42c0-4.4.8-9.5 2.2-14.5 1-3.5 2.3-7 4-10h-.3l-2.6 1.3c-.4 0-.8 0-1-.3-1-1-2-2.3-3-3.8-1-1.6-2-3.6-2.5-6 0-.4 0-.7.3-1 3-2.6 6.8-4.6 10.6-6 3.8-1.2 7.7-1.8 11.7-1.8V74c-3.7 0-7.5.7-11 2-3.5 1-6.8 3-9.7 5.3.6 2 1.3 3.6 2.2 5l2.4 3.2 1.8-1 2.8-1.2h.7c.4.4.5 1 .3 1.3-2.3 3.6-4 7.6-5 11.8-1.4 4.7-2 9.4-2.3 13.5 4 2.3 10.8 3.5 17.8 3.5v1.8c-7.4 0-14.8-1.5-19-4.2-.3 0-.5-.4-.4-.7"/><path fill-rule="evenodd" clip-rule="evenodd" fill="#FFC4D4" d="M180 75c7.4-2.4 15.8-2.3 23.2.4-1.4 4-6 7-11.6 11-7.4-4.6-10.8-7.4-11.7-11.3"/><path fill-rule="evenodd" clip-rule="evenodd" fill="#FFF3EB" d="M191.6 67.4c4.4 0 8 2.7 8 6 0 3.5-3.4 5.8-8 9-5.7-3.6-7.8-5.5-7.8-9 0-3.3 3.5-6 7.8-6"/><path d="M191.6 66.5c2.4 0 4.5.8 6 2 1.7 1.3 2.7 3 2.7 5 0 3.8-3.4 6.3-8 9.6l-.2.2h-.4v-1.8c4-3 7-5 7-8 0-1.3-.7-2.6-2-3.6-1.2-1-3-1.6-5-1.6v-1.7zm0 16.8h-.4c-3-2-5-3.4-6.2-4.8-1.4-1.6-2-3-2-5s1-3.7 2.6-5c1.5-1.2 3.7-2 6-2v1.7c-2 0-3.7.6-5 1.6-1.2 1-2 2.3-2 3.7 0 1.5.5 2.6 1.6 3.8 1 1.3 3 2.5 5.4 4.2v1.8z"/><path fill-rule="evenodd" clip-rule="evenodd" fill="#6C8FD4" d="M209.2 150.8c4.4 0 8 1.4 8 4.6 0 3.2 0 4-8 4s-8-.8-8-4 3.6-4.6 8-4.6"/><path d="M209.2 150c2.4 0 4.7.4 6.3 1.3 1.5 1 2.5 2.2 2.5 4v.2c0 3.8 0 4.8-8.8 4.8v-1.7c7 0 7-.6 7-3v-.2c0-1.2-.6-2-1.6-2.6-1.3-.8-3.2-1-5.4-1V150zm0 10.3c-9 0-9-1-9-4.8 0-2 1-3.3 2.6-4.2 1.6-1 4-1.3 6.4-1.3v1.7c-2.2 0-4.2.3-5.5 1-1 .7-1.7 1.5-1.7 2.7 0 2.6 0 3.2 7.2 3.2v1.7z"/><path fill-rule="evenodd" clip-rule="evenodd" fill="#FFF3EB" d="M171.4 53.8v.4c0 11.2 9 20.3 20.3 20.3 10.7 0 19.5-8.3 20.2-19-2-.2-3.3-2-3.3-3.8-1.5-.7-2.6-2.2-2.6-4l.3-1.2c-2-.2-3.6-2-3.6-4v-.7h-.6c-1.5 0-3-1-3.6-2.3-.6.4-1.3.6-2 .6-1 0-2-.2-2.5-.7-1 1-2 1.7-3.4 1.7-1 0-1.7-.3-2.4-.7-.7.8-1.8 1.3-3 1.3-.6 0-1 0-1.6-.3-.5 1.7-2 3-4 3l-1-.3v.6c0 1.8-1.2 3.3-2.8 4 .2.3.2.7.2 1 0 2.4-1.8 4.2-4 4.2h-.6"/><path d="M191.7 40l.3-.2c.5-.2.8-.6 1-1h.2c.3-.4.8-.5 1.2-.2l1 .5c.2.2.6.3 1 .3h.8l.8-.5c.5-.2 1 0 1.2.4.3.5.7 1 1.2 1.3.5.3 1 .5 1.7.5H203c.4 0 .7.5.6 1v.5c0 .8.3 1.6.8 2 .5.7 1.2 1 2 1.2h.2c.5.2.7.6.6 1 0 .3 0 .4-.2.6v.5c0 .7.2 1.3.5 1.8.4.5 1 1 1.5 1.2.3 0 .6.4.5.8 0 .8.3 1.5.8 2 .4.6 1 1 1.8 1.2.5 0 .8.5.8 1-.4 5.4-3 10.3-6.7 14-3.7 3.4-8.7 5.5-14.3 5.5v-1.7c5 0 9.8-2 13.2-5.2 3.3-3 5.5-7.4 6-12-.8-.4-1.5-1-2-1.6-.7-.8-1-1.7-1-2.7-.8-.2-1.4-.8-2-1.4-.4-.8-.7-1.8-.7-2.8v-.6c-.8-.3-1.6-.8-2.2-1.4-.6-1-1-2-1-3-1 0-1.8-.4-2.5-1-.6-.2-1-.6-1.4-1h-.4l-1.3.2c-.5 0-1 0-1.6-.3l-.7-.3c-.3.4-.8.7-1.2 1-.4 0-.7.2-1 .3V40zm-21 14v-.2-.2c0-.4.4-.8.8-.7h.5c1 0 1.7-.4 2.3-1 .5-.6 1-1.4 1-2.3v-.5c-.2 0-.2-.3-.3-.5 0-.4 0-1 .6-1 .6-.3 1.2-.7 1.6-1.2.3-.5.6-1.2.6-2V44v-.4c0-.4.5-.7 1-.6h.9c.7 0 1.4 0 2-.5.4-.4.8-1 1-1.6.3-.5.8-.7 1.2-.5l.6.2h.6c.5 0 1 0 1.3-.2.4-.2.8-.5 1-.8.4-.3 1-.4 1.2 0l1 .3h2v1.7H189l-.6-.4-1.2.8c-.6.3-1.3.5-2 .5h-1v-.2c-.5.7-1 1.3-1.6 1.8-.8.7-1.8 1-3 1h-.2c0 1-.4 1.8-1 2.5-.3.6-1 1-1.6 1.5v.7c0 1.4-.4 2.6-1.3 3.5-1 .8-2 1.4-3.2 1.4 0 5.2 2.3 10 5.7 13.3 3.5 3.4 8.3 5.6 13.7 5.6v1.7c-6 0-11-2.4-15-6.2-3.8-3.7-6-9-6-14.8V54"/><path fill-rule="evenodd" clip-rule="evenodd" fill="#FFD9BF" d="M181 55.3c-2.4 0-4.2 1.4-4.2 3.2 0 1.7 1.8 3 4 3s4-1.3 4-3c0-1.8-1.7-3.2-4-3.2M202 54.3c-2.2 0-4 1.3-4 3 0 1.8 1.8 3.2 4 3.2 2.3 0 4.2-1.4 4.2-3 0-2-2-3.2-4-3.2"/><path fill-rule="evenodd" clip-rule="evenodd" d="M198 50.6c-.8 0-1.6.8-1.6 1.7 0 1 .8 1.8 1.7 1.8 1 0 2-.7 2-1.7s-1-1.7-2-1.7"/><circle fill="none" cx="198.1" cy="52.3" r="1.7"/><path fill-rule="evenodd" clip-rule="evenodd" d="M185.3 50.6c-1 0-1.7.8-1.7 1.7 0 1 .7 1.8 1.7 1.8s1.7-.7 1.7-1.7-.7-1.7-1.7-1.7"/><circle fill="none" cx="185.3" cy="52.3" r="1.7"/><path d="M188 59c-.4-.2-.6-.8-.4-1.2.3-.4.8-.5 1.2-.3.8.4 1.7.7 2.6.7.8 0 1.5 0 2.2-.5.3-.3 1-.2 1 .2.4.3.3.8 0 1-1 .7-2 1-3.2 1-1.2 0-2.4-.5-3.4-1"/><path fill-rule="evenodd" clip-rule="evenodd" fill="#FFF" d="M200.3 60c-2.4 4-13.3 5.6-17.3 2.7 5 10 16 8.5 17.3-2.8"/><path d="M199.4 59.8s0-.2.2-.3c0-.3.4-.5.8-.4.5 0 .8.5.8 1-.4 3.4-1.7 6-3.5 7.8-1.2 1.3-2.8 2-4.5 2.3-.4.2-.8.2-1.2.2v-1.7h1c1.3-.3 2.5-1 3.5-2s2-2.3 2.4-4c-1.8 1-4.2 2-6.6 2.3h-.4V63h.2c3-.4 6-1.6 7.2-3.2M192 70.2c-1.2 0-2.5-.2-3.8-.8-2.3-1-4.4-3.2-6-6.3v-.8c.4-.4 1-.5 1.3-.2l.4.2c1.7 1 5 1.4 8 1v1.6c-2.4.3-5 .3-7-.2 1.3 1.5 2.6 2.6 4 3.2 1 .5 2 .7 3 .7v1.7zM103.2 113.2c-.2-1-1-1.4-2-1.2-1 .2-1.5 1-1.3 2 .6 2.7.7 5.4.2 8-.5 2.5-1.6 5-3.6 7.3-1.8 2.4-4 3.7-6.3 4.3-2.3.7-4.8.6-7.4.2-1-.2-1.8.5-2 1.4 0 1 .5 1.7 1.4 2 3 .3 6 .4 8.8-.4 3-.8 5.7-2.4 8-5.4 2.3-3 3.7-5.8 4.3-8.8.6-3 .4-6.2-.3-9.4M116.8 100.5c-1-.3-1.4-1.4-1-2.3.3-1 1.4-1.3 2.3-1 3 1.2 5.7 1.8 8.5 1.6 2.7 0 5.5-1 8.4-2.6 2.7-1.6 4.4-3.7 5.5-6 1-2.4 1.4-5 1.3-7.8 0-1 .8-1.8 1.8-1.8s1.8.8 1.8 1.8c0 3.2-.4 6.3-1.7 9.3-1.3 3-3.5 5.6-7 7.6-3.4 2-6.7 3-10 3-3.4.2-6.6-.4-10-1.8"/><path fill-rule="evenodd" clip-rule="evenodd" fill="#FFF3EB" d="M144.5 75.7c-1.3 0-2.5.4-3.4 1-.3-.3-.7-.6-1-.5-1 .3-1.2 2-.7 4 .3 1 .7 1.8 1.2 2.4.7 1 2 1.8 3.5 2 2.5 0 4.7-1.8 5-4.2 0-2.4-2-4.5-4.5-4.7"/><path d="M144.5 76.6h-.6v-1.8h.6c1.5.2 2.8.8 3.7 1.8 1 1 1.5 2.4 1.4 3.8 0 1.5-.8 2.8-2 3.6-1 1-2.3 1.4-3.8 1.3v-1.7c1 0 2-.3 2.8-1 .7-.5 1-1.3 1.2-2.3 0-1-.3-1.8-1-2.5-.6-.7-1.5-1.2-2.5-1.2m-.6 0h-1c-.5.3-1 .6-1.3 1-.4.2-1 0-1.2-.2 0-.2-.3-.3-.4-.3v.7c-.2.6 0 1.4 0 2.2h.2c0 .5.2.8.4 1.2l.5.8h.2c.3.5.7 1 1.2 1 .5.4 1 .6 1.5.6v1.7c-1 0-1.7-.3-2.4-.7-.7-.3-1.3-1-1.8-1.5l-.7-1c0-.5-.3-1-.5-1.5-.3-1-.4-2.2-.3-3 .2-1 .6-1.8 1.4-2 .4-.2.8 0 1.2 0l.4.2 1.3-.6c.4 0 1 0 1.4-.2v1.8zM141.4 138c-.8-.6-1-1.7-.4-2.5s1.7-1 2.5-.4c8 6 12.5 13 16.5 19 1.3 2.2 2.6 4.2 4 6 .6.8.4 2-.4 2.5-.8.6-2 .4-2.5-.4l-4-6c-3.8-5.8-8.2-12.4-15.6-18"/><path fill-rule="evenodd" clip-rule="evenodd" fill="#3764BD" d="M165 156c3.7-2.5 7.4-3.4 9.2-.7 1.8 2.8 2.3 3.4-4.4 7.8-6.7 4.5-7.2 3.8-9 1-1.7-2.6.5-5.7 4.2-8"/><path d="M167.7 153.3c1-.4 2-.6 2.8-.7 2 0 3.5.5 4.6 2.2 2.3 3.4 3 4.2-4.7 9.2l-2.6 1.7v-2.5l1.5-1c5.8-3.8 5.4-4.3 4-6.2-.5-1-1.4-1.3-2.5-1.3-1 0-2 .4-3 1v-2.4zm-3.3 1.7c1-.7 2.2-1.3 3.3-1.7v2.3c-.7.3-1.4.7-2 1.2-2 1.2-3.3 2.5-4 3.8-.5 1-.5 2 0 3 1.3 1.7 1.6 2.3 6-.4v2.4c-5 3-5.8 2-7.7-1-1-1.5-1-3.3-.2-5 1-1.6 2.5-3.2 4.6-4.6M125.7 147.5c-.5-1-.2-2 .6-2.5.8-.4 2-.2 2.4.7 2.3 4 4.6 8.4 6.7 13 2.5 5.4 5 11 6.8 16.2.4.8 0 1.8-1 2.2-1 .3-2 0-2.3-1-2-5-4.3-10.6-6.8-16-2-4.5-4.3-9-6.5-12.7"/><path fill-rule="evenodd" clip-rule="evenodd" fill="#3764BD" d="M125.2 128.7c4.6-3 9.8-5.8 12-6.2 8 6 9.7 6.7 13.8 11.3-.6 4.4-7.8 12.8-12 13l-3.4-2.3.7 4.2c-4 5-12.4 7-16.7 5.8-2.7-5.6-2.5-7.5-5-17 1.3-2 6-5.8 10.6-8.8"/><path d="M133 123.3c1.6-.8 3-1.4 4-1.6.4 0 .7 0 1 .2l5.5 4c3.5 2.6 5.2 4 8.2 7.2.2.2.2.5.2.8-.5 2.4-2.7 6-5.2 8.7-2.5 2.7-5.4 5-7.6 5h-.5l-2-1.4.4 2.3c.2.3 0 .5 0 .7-1.2 1.4-2.6 2.5-4.2 3.4v-2c1-.6 2-1.4 2.6-2.2l-.7-3.8v-.7c.4-.4 1-.5 1.3-.2l3.3 2.2c1.8-.3 4-2 6.2-4.4 2.3-2.5 4-5.4 4.6-7.6-2.5-3-4.2-4-7.5-6.6l-5.4-4c-1 .3-2.4 1-4 1.8v-2zm-8.3 4.7c2.4-1.6 5-3 7.2-4.2l1-.5v2h-.4c-2 1-4.6 2.6-7 4-2.3 1.6-4.6 3.4-6.5 5-1.5 1.2-2.7 2.4-3.4 3.2.7 2.8 1 5 1.5 6.6 1 4 1.5 6 3.2 9.7 2 .5 5.2.2 8.2-.8 1.6-.6 3-1.4 4.4-2.3v2c-1.2.7-2.5 1.3-3.8 1.8-3.5 1.2-7.2 1.4-9.6.8-.3 0-.5-.3-.6-.5-2-4-2.4-6-3.3-10.3l-1.7-7c0-.2 0-.4.2-.6.6-1 2-2.5 4-4 2-1.7 4.3-3.5 6.7-5"/><path fill-rule="evenodd" clip-rule="evenodd" fill="#3E0287" d="M145.6 125c-5.4-4-13.6-14-19.3-17.5l4.2-1.2c.5-2.7 1-6.3-.7-11-15.7-1.8-32 9-36.4 24 3.6 3.4 7 4.4 9.7 5l3-3.4c2 7.8 7.5 19.7 7.6 25 10 0 28-12 32-21"/><path d="M144.5 125.3c-2.3-1.8-5-4.6-8-7.4-3.7-4-7.6-8-10.7-9.8-.4-.3-.5-.8-.3-1.2l.6-.4 2.4-.6c.5 0 1-.2 1.4-.4.2-1 .3-2.5.3-4 0-1.6-.2-3.4-1-5.4-3-.3-6.4 0-9.5.6V95c3.4-.7 7-.8 10.4-.4.2 0 .5.2.6.6.8 2.4 1.2 4.5 1.2 6.4 0 1.8-.2 3.4-.4 4.8 0 .3-.3.6-.6.7l-2 .7h-.5c3 2.3 6.3 5.7 9.5 9 3 3 6 6 8.3 7.7.4.2.5.6.4 1-2 4.7-7.8 10-14 14.2-4.3 2.8-9 5-13 6.3v-2c3.8-1 8-3.2 12-5.8 5.8-3.8 11-8.7 13-13m-25-28.4c-4 .8-8 2.5-11.5 5-6.4 4-11.4 10-13.6 17.3 1.6 1.4 3 2.4 4.6 3 1.3.7 2.6 1 3.8 1.4.3-.4.6-.8 1-1 .3-.7.8-1.3 1.4-2 .3-.4.8-.5 1.2-.2.2 0 .3.3.3.5.8 3 2 6.5 3.4 10 2 5.4 4 11 4.4 14.5 1.5 0 3.2-.5 5-1v1.7c-2 .5-4 1-5.8 1-.5 0-.8-.5-1-1 0-3-2-9-4-14.7-1.2-3-2.3-6-3-8.6l-.6.6c-.4.6-1 1-1.3 1.6l-.8.2c-1.5-.4-3-.8-4.8-1.6-1.7-.8-3.5-2-5.3-3.6-.4-.2-.5-.6-.4-1 2.3-7.7 7.6-14.3 14.3-18.8 3.7-2.5 8-4.3 12.5-5.2v1.8z"/><path fill-rule="evenodd" clip-rule="evenodd" fill="#FFF3EB" d="M103.7 96.3c-3.6 2.4-5 6.6-3.2 9.4 2 3 6.3 3.3 10 1 3.6-2.5 5-6.7 3-9.5-1.8-3-6.2-3.3-9.8-1"/><path d="M107 107c1 0 2-.5 3-1 1.6-1.2 2.7-2.7 3.3-4.2.5-1.5.4-3-.4-4.2-1-1.2-2.2-1.8-3.8-2-.7 0-1.4 0-2 .2V94h2.2c2 0 3.8 1 5 2.7s1 3.7.5 5.6c-.7 2-2 3.7-4 5-1.3.8-2.6 1.3-4 1.6v-2zm-2.8-10c-1.7 1-2.8 2.6-3.3 4-.6 1.6-.5 3 .2 4.3.8 1.2 2.2 1.8 3.7 2 .6 0 1.3 0 2-.2v2H105c-2-.2-4-1-5-2.8-1-1.6-1.2-3.7-.6-5.6.7-2 2-3.7 4-5 1.2-.8 2.6-1.3 4-1.6v1.8c-1 .2-2 .6-3 1.2"/><path fill-rule="evenodd" clip-rule="evenodd" fill="#FFF3EB" d="M86.7 67.4c-9.4 6.2-12 18.8-6 28 6.3 9.5 19 12 28.2 6 9.3-6.2 12-18.8 5.8-28-6.2-9.5-18.8-12-28-6"/><path d="M97.8 103.8c3.7 0 7.4-1 10.7-3.2 4.5-3 7.3-7.4 8.3-12.3 1-4.8.2-10-2.7-14.6-3-4.5-7.4-7.3-12.3-8.3-1.2-.3-2.6-.4-4-.5v-1.8c1.5 0 3 .2 4.4.5 5.4 1 10.3 4.2 13.5 9 3.2 5 4 10.7 3 16-1 5.3-4.2 10.2-9 13.4-3.7 2.4-7.7 3.5-11.7 3.5v-1.7zM87 68c-4.4 3-7.2 7.6-8.2 12.4-1 5-.2 10.2 2.8 14.7 3 4.6 7.4 7.4 12.3 8.4 1.2.3 2.5.4 3.8.4v1.7c-1.4 0-3 0-4.3-.4-5.3-1-10.2-4-13.4-9-3-5-4-10.6-3-16 1.2-5.2 4.3-10 9.2-13.3 3.6-2.3 7.6-3.5 11.6-3.5V65c-3.7 0-7.4 1-10.7 3"/><path fill-rule="evenodd" clip-rule="evenodd" fill="#FFD9BF" d="M88 89.6c-2 1.2-2.6 3.8-1.3 5.7 1.2 2 3.8 2.4 5.6 1 2-1 2.5-3.6 1.2-5.5-1.2-2-3.8-2.4-5.6-1.2"/><path fill-rule="evenodd" clip-rule="evenodd" d="M101.2 78c-.8.4-1 1.5-.5 2.3.5.8 1.6 1 2.4.5 1-.5 1-1.6.6-2.4-.5-.8-1.6-1-2.4-.5"/><circle fill="none" cx="102.2" cy="79.3" r="1.7"/><path fill-rule="evenodd" clip-rule="evenodd" d="M90.5 85c-.8.5-1 1.5-.5 2.3.5.8 1.6 1 2.4.5.8-.5 1-1.6.5-2.4-.6-.8-1.7-1-2.5-.5"/><path fill="none" d="M90.5 85c-.8.5-1 1.5-.5 2.3.5.8 1.6 1 2.4.5.8-.5 1-1.6.5-2.4-.6-.8-1.7-1-2.5-.5z"/><path fill-rule="evenodd" clip-rule="evenodd" fill="#FFD9BF" d="M107 79.4c-2 1.2-2.5 3.7-1.3 5.6 1.3 2 3.8 2.5 5.7 1.2 2-1.2 2.4-3.8 1.2-5.7-1.3-1.8-3.8-2.4-5.7-1"/><path d="M108 88.5c.2-.4.6-.7 1-.6.5 0 .8.4.8 1-.4 2-1.5 3.7-3 5.2-1.4 1.4-3 2.5-5 3-1.7.8-3.7 1-5.4.7-1.3-.4-2.6-1-3.6-2-.3-.3-.3-.8 0-1.2.4-.3 1-.3 1.2 0 .8.8 1.7 1.2 2.8 1.4 1.4.3 3 0 4.5-.5 1.6-.5 3-1.5 4.3-2.7 1.2-1.2 2.2-2.8 2.5-4.5"/><path fill-rule="evenodd" clip-rule="evenodd" fill="#A1390D" d="M113.2 69.8c-5 2.6-18 0-22.3-6 6.5-4.4 18 0 22.2 6"/><path d="M113.7 70.6C111 72 106.5 72 102 71v-2c3.7 1 7.3 1 9.7.4-2.2-2.6-5.8-4.7-9.7-5.8v-2l.5.2c4.7 1.2 9.2 4 11.5 7.4.3.5.2 1-.2 1.4zM102 71c-.3 0-.6 0-1-.2-4.4-1.2-8.6-3.4-10.8-6.3-.4-.5-.3-1 0-1.4h.2c3.3-2 7.5-2.3 11.6-1.3v2c-3.4-1-7-1-9.7.4 2 2.3 5.6 4 9.2 5h.5v2z"/><path fill-rule="evenodd" clip-rule="evenodd" fill="#A1390D" d="M79.5 97c8-5 15-28 13.2-33.6-8.2-2-24.7 17.3-13.2 33.7"/><path d="M84.3 90.2c1.4-2.3 2.7-5 3.8-8 3-7 4.5-14.7 4-18-1.7 0-3.8.7-5.8 2l-2 1.6v-2.5l1-.6c2.6-1.8 5.4-2.7 7.6-2.2.4 0 .7.3.8.7 1 3.2-.6 12-3.7 19.8-1.7 4-3.6 7.7-5.7 10.6v-3.4zm-4.6 5.6c1.6-1.2 3.2-3.2 4.6-5.6v3.4C83 95.6 81.5 97 80 98c-.4.2-1 0-1.3-.3-4.2-6-4.8-12.4-3.4-18 .7-3.3 2-6.3 4-8.8 1.4-2.3 3.2-4.2 5-5.7v2.5c-1.3 1.2-2.5 2.6-3.6 4-1.6 2.5-3 5.3-3.6 8.3-1 5-.6 10.5 2.7 15.8"/><path fill-rule="evenodd" clip-rule="evenodd" fill="#3764BD" d="M135 175.7c-3.8 2.4-6 5.5-4.3 8.2 1.8 2.6 2.2 3.3 9-1s6-5 4.3-7.8c-1.7-2.8-5.5-2-9 .5"/><path d="M137.6 183l1.4-1c5.8-3.8 5.5-4.3 4.2-6.2-.6-1-1.6-1.3-2.7-1.3-1 0-2 .4-3 1V173l3-.6c1.8 0 3.4.5 4.4 2.2 2.2 3.4 2.7 4.2-4.8 9.2l-2.6 1.6V183zm-2.2-6.4c-1.8 1.2-3.2 2.5-3.8 3.8-.5 1-.6 2 0 3 1.2 1.7 1.6 2.3 6-.4v2.4c-5 3-5.8 2-7.7-1h-.2c-1-1.5-1-3.3 0-5 .7-1.6 2.4-3.2 4.5-4.6 1-.7 2.2-1.3 3.3-1.7v2.4l-2.2 1.2M96.6 90c-.5 0-1-.4-1-.8 0-.5.4-1 1-1 .8 0 1.7-.3 2.5-.8.7-.4 1.2-1 1.5-1.6.2-.5.7-.7 1-.5.6.2.8.7.6 1-.3 1-1 2-2 2.5-1 .7-2.2 1-3.4 1"/><path fill-rule="evenodd" clip-rule="evenodd" fill="#F00" d="M84.2 63.2c8.4-5.6 18.8-5 24.6.8-6 .2-13 2.4-19.6 6.8-6.6 4.3-11.5 9.8-14 15.3-3-7.6.5-17.3 9-22.8"/><path d="M90.8 59.2c2.3-.6 4.5-.8 6.6-.8 4.7.2 9 2 12 5 .3.3.3 1 0 1.2l-.6.2c-3 0-6.2.7-9.5 2-2.8 1-5.7 2.2-8.5 4v-2c2.7-1.6 5.3-2.8 8-3.7 2.7-1 5.4-1.5 8-1.7-2.7-2-6-3-9.4-3.2-2 0-4.4.3-6.6 1v-1.8zm-7 3.3c2.2-1.5 4.6-2.6 7-3.3V61c-2 .6-4 1.6-6 3-4.2 2.5-7 6.2-8.6 10-1.3 3.3-1.6 6.7-.8 10 1.2-2.4 2.8-4.6 4.8-6.7 2.4-2.6 5.2-5 8.5-7.2l2-1.2v2l-1 .7c-3.2 2-6 4.4-8.2 7-2.4 2.5-4.3 5.2-5.5 8-.2.3-.7.5-1.2.3-.2 0-.3-.3-.4-.5-1.6-4-1.5-8.6.2-13 1.7-4 4.8-8 9-10.8"/><path fill-rule="evenodd" clip-rule="evenodd" fill="#F00" d="M108.8 64c-6 .2-15.4 4-19.8 7-4.5 2.8-4.2 3-6 4.6v-.3c.5-5.4 10.4-15.2 17.7-17.8 7-2.4 8.3 1.5 8 6.5"/><path d="M108.8 64.8c-2.6 0-6 1-9.3 2l-3.2 1.3v-1.7l2.6-1c3-1 6.3-2 9-2 0-2-.3-3.8-1.2-4.7-1-1-2.8-1.3-5.8-.3-1.5.6-3 1.4-4.7 2.4v-2l4-2c4-1.3 6.3-.8 7.7.7 1.4 1.5 1.8 4 1.7 6.6 0 .5-.4.8-1 .8M96.4 68c-2.7 1.3-5.2 2.5-6.8 3.6-3.6 2.3-4 2.8-5 3.8l-1 .8c-.3.3-1 .3-1.2 0-.2-.2-.2-.4-.2-.7V75c.4-3 3-6.8 6.7-10.4 2.3-2.3 5-4.5 7.6-6v2C94 62 91.8 64 90 66c-2.5 2.3-4.4 4.8-5.4 7 .7-.6 1.8-1.4 4-2.8 1.8-1.3 4.6-2.7 7.7-4v2zM83.4 159.8c-.6.7-1.7.8-2.5 0-.8-.5-.8-1.7-.2-2.4.6-.7 1.2-1.4 1.7-2.3.6-.7 1-1.6 1.5-2.6 1.4-3 1.6-5.6 1-8-.4-2.7-1.7-5-3.3-7.3-.6-.7-.4-1.8.4-2.3 1-.6 2-.4 2.6.4 2 2.7 3.3 5.5 4 8.6.6 3.2.3 6.6-1.4 10.3-.5 1-1 2-1.7 3-.6 1-1.3 2-2 2.8"/><path fill-rule="evenodd" clip-rule="evenodd" fill="#B07027" d="M80 128.2c-1.2.4-2.2 1.2-2.8 2.3-.6-.3-1-.4-1.4-.2-.7.6-.3 2.3 1 4 .5.8 1.2 1.4 1.8 1.8 1 .8 2.5 1 4 .6 2.3-.7 3.8-3.2 3-5.5-.6-2.2-3-3.5-5.6-2.8"/><path d="M80.6 136c.5 0 1 0 1.6-.2 1-.3 2-1 2.3-1.7.5-.7.6-1.7.4-2.6h-.2c-.2-1-1-1.7-1.7-2-.6-.5-1.5-.6-2.4-.4v-1.8c1.2 0 2.3 0 3.3.6s2 1.7 2.5 3c.4 1.5.2 3-.5 4-.7 1.3-1.8 2.2-3.3 2.7-.7.2-1.4.2-2 .2V136zm-.3-7l-1.4.7c-.5.4-.8.7-1 1.2-.3.3-.8.4-1.2.2h-.4v-.2.7c0 .6.5 1.4 1 2l.8 1c.3.3.5.5.8.6.5.4 1 .6 1.6.6v1.7h-.3c-.8-.2-1.5-.5-2.2-1-.3 0-.6-.4-1-.8l-1-1.2c-.7-1-1-2-1.3-2.7-.2-1 0-2 .6-2.3.3-.3.7-.4 1.2-.3h.4c.2-.4.5-.7 1-1 .4-.4 1-.8 1.8-1 .3 0 .6 0 .8-.2v1.8h-.3M77.3 191c-1-.3-2 .2-2.3 1-.3 1 .3 2 1.2 2.3l2.6 1c1 .6 1.8 1 2.7 1.7 2.6 2 4.2 4 5 6.5 1 2.5 1 5 .7 8 0 .8.6 1.7 1.6 1.8 1 0 2-.6 2-1.6.3-3.2 0-6.4-1-9.4s-3-6-6.3-8.2l-3-1.7c-1-.6-2.2-1-3.2-1.3"/><path fill-rule="evenodd" clip-rule="evenodd" fill="#B07027" d="M88.6 220.3c-1.3 0-2.5-.6-3.3-1.4-.5.3-1 .5-1.4.4-1-.4-1-2.2-.2-4 .3-1 .8-1.8 1.3-2.3 1-1 2.3-1.5 3.7-1.5 2.6 0 4.6 2 4.6 4.5 0 2.4-2.2 4.3-4.7 4.3"/><path d="M88.6 219.4h-.3v1.7h.2c1.5.2 3-.4 4-1.3 1-1 1.6-2.2 1.6-3.7 0-1.4-.5-2.8-1.4-3.7-1-1-2.4-1.6-4-1.6h-.3v1.7h.5c1 0 2 .4 2.6 1 .6.7 1 1.6 1 2.5 0 1-.5 1.8-1 2.4-.8.7-1.8 1-2.8 1m-.3 0c-.5 0-.8 0-1.2-.3-.4 0-.8-.4-1-.7-.4-.3-1-.3-1.3 0l-.4.2s-.2-.2-.2-.6c0-.7.2-1.5.5-2.4l.6-1 .7-1c.4-.3.8-.7 1.4-1l1.3-.2v-1.7c-.7 0-1.3.2-2 .4l-2 1.5c0 .4-.4.7-.7 1.2L83 215c-.4 1-.6 2-.6 3s.5 2 1.2 2.2h1.2l.4-.2 1.2.7c.6.2 1.2.4 2 .4v-1.6z"/><path fill-rule="evenodd" clip-rule="evenodd" fill="#4D1F0B" d="M51 197c.3 1.7 2.3 2.5 5 2 2.5-.7 4.8-3.2 4.8-4v-.3c1.7-.6 3-1.6 3.3-2.7 0 0-1.3 0 0 0 1.5 0 5-1.8 5-3 .2-1-.4-1.4-1.3-2 1-.4 2-1.5 2-2v-.3c1.7-.3 3-1 3-2.4 0-1.2-2-2.6-4.5-3 .6-1 1-2.2 1-3.6 0-1.3 0-2.6-.6-4 2 0 3.8-1 4-2.3 0-1.2-1.5-2.3-3.4-2.8.3-.4.5-.5.6-1.2 0-.8-1-2-2.5-2.8.6-.4 1-.4 1-1.5 0-1-3-3.3-4.6-3.7-1.6-.4-1.2-.3-1.7-.3v-.2c0-1-1.6-3.6-3.6-4.4-2-.7-3.7 0-4 1.4-.7-.8-1-1.2-2.5-1.8-1.6-.6-4.2 1-4.3 2v.5s.6.2 0 0-2.3-.4-3.2 0c-.5-.6-.7-.8-1.8-1-1-.4-3 0-3.7 1-.5-.2-.2-.3-1.6-.6-1.4-.4-4.2 2-4.3 3.2v.6c-1 .3-2 1-2.5 2h-.2c-1-.2-4.2 1.7-4.3 3.8-.2 2 .7 3.3 2 4-1 .7-1.7 2-1.8 3.3 0 1 .3 2 1 3-1.2.5-2 1.5-2 3.2 0 1.8 1.2 3.8 3 4.3v.3c0 1 .7 3 2 3.7-1 .8-1.6 1.5-1.6 3.3 0 1.8 2.5 4 4 4 1.4 0 1.4-.2 2-.6.4 1.7 2.6 2.8 4 2.6 1 0 1-.3 1.7-.6v.8c0 1.2 2.2 3.4 4 3 1.6-.3 2.2-1 3-1.8.7.8 2 1.2 3.7 1"/><path d="M52 197c0 .4.3.7.8 1 .7 0 1.5.2 2.5 0h.4c1-.3 2-.8 2.7-1.4 1-.7 1.5-1.4 1.5-1.6v-.5c0-.5 0-1 1-1 .6 0 1-.4 1.4-.7 0 0 .2 0 .3-.2v-.4h-.2c0-1 .5-1 1.2-1h.4c.7-.2 2-.6 3-1.2.6-.4 1.2-.8 1.2-1v-.5l-1-.5c-.4-.3-.5-1-.3-1.3 0-.2.2-.4.4-.4l1-.7c0-.3.3-.5.3-.6 0-.6.2-1 .7-1.2.4-.2.7-.4 1-.2l1-.5s.3-.4.3-.7c0-.3-.3-.7-1-1-.5-.5-1.5-.8-2.6-1-.4 0-.8-.4-.7-1v-.3l.7-1.6.3-1.7V174l-.6-1.8c-.2-.5 0-1 .5-1.3h.3c1-.2 1.8-.4 2.3-.8.5-.2.7-.5.7-.8 0-.3-.2-.6-.5-1l-2-1c-.6 0-1-.6-.7-1 0-.3 0-.4.3-.5v-.2c.2 0 .2-.2.2-.5 0 0 0-.5-.5-.8-.3-.4-.8-.8-1.4-1-.6-.3-.8-.8-.6-1.3 0-.2.3-.4.5-.5.2-.2.3-.2.4-.7 0 0-.5-.7-1.2-1.2-1-.8-2-1.4-2.7-1.6l-1-.2-.5.2c-1 0-1-.6-1-1v-.2-.3c0-.3-.3-1-1-2-.6-.5-1.2-1-2-1.4h-.4c-.6-.3-1.2-.3-1.6 0-.3 0-.6.2-.7.6-.2.5-.7.8-1.2.7l-.4-.4c-.6-.6-.8-1-2-1.4 0 0-.2 0-.3-.2-.5 0-1 .2-1.6.5l-.8.6v-2.4c.7-.5 1.6-.7 2.5-.6h.8l2 1.2c.2-.4.6-.6 1-.8.8-.3 1.8-.3 2.8 0 .3 0 .5 0 .7.2 1 .3 2 1.2 2.7 2 .7.8 1.2 1.8 1.4 2.5l1 .4c1 .2 2.5 1 3.6 2 1 .8 2 2 2 2.7l-.5 1.5.7.7c.7.8 1 1.6 1 2.2v.7l1.6 1c.7.8 1.2 1.6 1 2.5 0 1-.5 1.8-1.5 2.4l-2 .6.2 1c.2.7.2 1.5.2 2.2 0 .7-.2 1.4-.4 2 0 .4 0 .6-.2 1 1 0 1.7.5 2.3 1 1 .6 1.7 1.6 1.6 2.6 0 1-.5 1.6-1.2 2.2-.5.4-1.2.7-2 1 0 .3-.3.8-.7 1.3h-.3v.3c.5.4.7 1 .7 1.8 0 1-1 2-2 2.6-1 .6-2.3 1-3.3 1.3-.2.4-.6 1-1 1.3-.6.4-1.3.8-2 1-.2.8-1 2-2 2.8-1 .8-2.3 1.5-3.6 1.8h-.4c-1.3.3-2.5.2-3.5 0-.7-.4-1.3-1-1.6-1.6H49v-2h2c.4 0 1 .3 1 .8m-3-42.7v0m0-.5l-.2.2V155c0 .4-.3.6-.6.6h-.6c-.3 0-.5 0-.6-.3h-2.2c-.4 0-.7 0-1-.2-.4-.3-.5-.4-1.3-.7H41c-.6.3-1 .5-1.2 1-.3.3-1 .4-1.3 0-.2 0-.3 0-.4-.2l-.8-.2c-.4 0-1.2.4-1.8 1-.7.5-1.3 1-1.4 1.5v1c-.2.3-.3.6-1 .6-.3 0-.6 0-1 .3l-.2.3v.2c0 1-.5 1-1 1h-.2-.3c-.5 0-1.2.2-2 .8-.7.6-1.3 1.3-1.4 2-.2.8 0 1.4.2 2 .3.5.8 1 1.4 1 .4.4.6 1 .4 1.4 0 .2-.2.3-.4.4l-1 1c-.2.6-.4 1-.4 1.5v1.2l.7 1c.2.4.2 1-.2 1.4-.6.3-1 .7-1.2 1-.3.5-.4 1-.5 1.7 0 .7.3 1.4.8 2 .3.5.7 1 1.2 1h.2c1 0 1 .6 1 1v.5c0 .4 0 1 .5 1.8.2.5.6 1 1 1 .4.4.6 1 .4 1.4 0 0 0 .2-.2.3l-1 1c0 .3-.3.8-.3 1.5s.5 1.5 1.2 2c.6.7 1.3 1 1.8 1 1 0 1 0 1.2-.2l.4-.2c.5-.3 1-.2 1.4.3v.3c.2.5.6 1 1 1.3.8.5 1.5.7 2 .6.8-.2 1-.3 1-.4l.4-.2c.5-.2 1 0 1.3.3.2.3.2.5.2.8 0 .2-.2.4-.3.5l1 1.4c.6.4 1.3.8 1.8.8h.2l1.5-.6 1-1c.3-.4 1-.4 1.3 0l1 .5v2h-.2c-.5 0-1-.3-1.3-.5l-.7.6c-.5.5-1.2.8-2.2 1h-.6c-1 0-2-.5-3-1.2-.6-.6-1.2-1.4-1.5-2h-.7c-1 0-2-.2-3-1-.6-.3-1-.7-1.4-1.2l-1.6.2c-1 0-2.3-.7-3.2-1.6-1-1-1.7-2-1.8-3.2v-.2c0-1 .3-2 .6-2.5l.6-.7-.8-1c-.4-1-.7-1.8-.8-2.5-.8-.2-1.5-.8-2-1.6-.6-1-1-2-1-3.2 0-1 .4-2 .8-2.5.2-.4.5-.8 1-1-.3-.3-.4-.6-.5-1-.2-.5-.3-1-.2-2 0-.7.3-1.5.7-2.2l.6-.8c-.4-.4-.8-.8-1-1.3-.5-.8-.7-1.8-.6-3 0-1.2 1-2.5 2.2-3.3 1-.6 2-1 2.8-1.2.3-.4.6-.8 1-1l1.2-.7c.2-1 1-2 2-2.7 1-.8 2.2-1.4 3.2-1.3h.2c.7 0 1 .3 1.3.4l1.3-.8c1-.3 2-.3 2.7 0 1 .2 1.4.4 1.8.8H47c.3-.6 1-1.3 1.7-1.7h.2v2zM116.4 190.4c-1-.4-1.3-1.4-1-2.3.5-.8 1.5-1.3 2.4-1 8.6 3.7 16.6 4 23.5 4.5 2.6 0 5 .2 7.3.5 1 0 1.7 1 1.6 2 0 1-1 1.6-2 1.5-2.2-.3-4.6-.4-7-.5-7.3-.4-15.6-.8-24.8-4.6M118 172.3c-1 0-1.7-.8-1.7-1.8s.8-1.8 1.8-1.8c4.5 0 9.4-.3 14.4-.8 5.8-.6 11.8-1.4 17-2.3 1 0 2 .5 2.2 1.5 0 1-.6 2-1.5 2-5.3 1-11.4 1.7-17.3 2.3-5 .5-10 .8-14.6.8"/><path fill-rule="evenodd" clip-rule="evenodd" fill="#6C8FD4" d="M102.7 178.6c-.2 5.5 0 11.5.8 13.6 9.2 3.8 10.6 5 16.7 6.2 3.5-2.8 7-13.2 5.3-17l-4-1.8 4.2-1.5c2.2-6-.4-14-3.6-17.2-6 .6-7.6 1.6-17 4.4-1 2-2 8-2.3 13.4"/><path d="M114.6 196c1.6.6 3.2 1 5.4 1.5 1.6-1.5 3.2-4.6 4.2-7.8 1-3 1.3-6 .6-7.6l-3.5-1.6c-.5-.2-.6-.7-.4-1.2 0-.2 0-.3.3-.4l3.7-1.3c.8-2.6.8-5.5.3-8.3-.7-3-2-6-3.5-7.5-3 .3-4.8.7-7.2 1.4v-1.6c2.4-.7 4.3-1.2 7.5-1.5.3 0 .6 0 .7.2 2 1.8 3.5 5 4.2 8.7.6 3 .6 6.4-.5 9.4 0 .2-.3.4-.5.5l-2.2.7 2 1c.2 0 .4.2.5.4 1 2 .6 5.7-.5 9.2-1.2 3.6-3 7.2-5 8.8-.2.2-.5.3-.8.2-2.2-.4-3.8-1-5.4-1.4v-2zm-11-17.3v8c0 2 .3 3.8.6 5l6.2 2.5 4.2 1.7v1.8l-5-2-6.3-2.8c-.3 0-.5-.2-.6-.5-.4-1-.7-3.2-.8-5.6-.2-2.6-.2-5.6 0-8.4 0-2.8.3-5.8.7-8.3.4-2.4 1-4.4 1.4-5.5l.7-.4 6.7-2c1.2-.5 2.2-.8 3.2-1v1.7l-2.6 1c-1.7.5-3.8 1-6.5 2-.4 1-.7 2.6-1 4.6-.5 2.4-.8 5.3-1 8"/><path fill-rule="evenodd" clip-rule="evenodd" fill="#1E396E" d="M110 197.4c-8-.7-18.3-3.5-26-9 .7 2 2 4.2 2.2 5.5-2 1.6-5 3.8-9.8 4.7-5-6.5-7-14.8-6.5-23 .5-7.5 3.4-15 8.6-20.4 4.7 1.3 7.3 3.8 9.3 5.7-.6 1.3-2 2.6-2.8 4.3 3.6-3.5 21-6.4 26.7-6.2 4.8 8.7 3.7 30.3-2 38.4"/><path d="M109.8 198.2c-4.3-.4-9.3-1.4-14.2-3l-3.2-1.2v-2c1.2.7 2.5 1 3.7 1.6 4.7 1.5 9.4 2.5 13.5 3 2.7-4 4.2-11 4.6-18.2.5-7-.4-14.2-2.6-18.4-3.3 0-9.7.8-15.5 2l-3.6 1v-1.8l3-.8c6.3-1.4 13.3-2.3 16.5-2 .2 0 .5 0 .6.3 2.6 4.4 3.6 12.2 3.2 19.8-.4 7.6-2.2 15.2-5.2 19.4l-.8.2M92.4 194c-2.3-1-4.5-2-6.5-3.3v.3l1 2.7c0 .3 0 .7-.3 1-1 .8-2.4 1.7-4 2.6-1.6 1-3.6 1.7-6 2.2-.5 0-.8 0-1-.3-2.5-3.3-4.3-7-5.4-11-1-4-1.6-8.3-1.2-12.5.3-4 1.3-8 2.8-11.5 1.5-3.5 3.6-6.7 6.2-9.5.3-.3.6-.4 1-.2 2.4.7 4.2 1.7 5.8 2.7 1.5 1 2.7 2.2 3.7 3.3.2.2.3.5.2.8-.2.5-.5 1-1 1.5l4.7-1.6v1.8c-3 1-5.5 2-6.6 3-.2.2-.6.2-1 0-.4 0-.6-.6-.4-1 .4-1 1-1.8 1.6-2.6l.8-1.2c-.8-.8-1.8-1.7-3-2.6-1.3-1-3-1.7-5-2.4-2.2 2.6-4 5.5-5.4 8.7-1.5 3.3-2.4 7-2.7 10.8-.3 4 0 8 1.2 12 1 3.6 2.6 7 4.8 10 2-.5 3.7-1.2 5-2 1.4-.7 2.5-1.5 3.4-2.2l-.8-2-1-2.8c-.2-.2 0-.5 0-.7.3-.3.8-.4 1.2 0 2.4 1.5 5 3 7.8 4v2z"/><path fill-rule="evenodd" clip-rule="evenodd" fill="#FFF3EB" d="M64 175.7c.2-4.3 3-7.6 6.5-7.5 3.4.2 5.6 3.6 8.6 8.3-3.8 5.5-6 7.5-9.3 7.3-3.4 0-6-3.8-5.7-8"/><path d="M71.4 167.5c3.3.6 5.5 4 8.4 8.5.2.4.2.7 0 1-2 2.8-3.6 4.8-5 6-1 1-2.2 1.4-3.4 1.6v-1.8c.8-.2 1.5-.5 2.3-1 1.2-1.2 2.6-3 4.4-5.3-2.3-3.7-4.2-6.5-6.6-7.2v-1.8zm-8.3 8.2c.2-2.4 1-4.5 2.4-6s3.2-2.4 5.2-2.3h.8v2c-.3-.2-.6-.3-1-.3-1.3 0-2.7.7-3.7 2-1 1-1.8 2.8-2 4.8 0 2 .6 3.7 1.5 5 1 1.3 2 2 3.6 2.2.6 0 1 0 1.6-.2v1.8h-1.7c-2 0-3.7-1-5-2.8-1-1.6-1.7-3.8-1.6-6"/><path fill-rule="evenodd" clip-rule="evenodd" fill="#B07027" d="M49.4 195.2h.4c11.2.6 20.7-8 21.3-19.2.6-10.7-7.2-20-17.7-21.2-.5 2-2.2 3.2-4 3H49c-.6 1.5-2 2.5-3.8 2.4-.4 0-1 0-1.3-.2-.4 2-2.2 3.5-4.3 3.4H39v.6c0 1.6-1 3-2.4 3.5.3.7.5 1.4.4 2.2 0 1-.4 1.7-1 2.4 1 1 1.7 2 1.6 3.5 0 .8-.4 1.6-.8 2.2.7.8 1.2 2 1.2 3 0 .7-.2 1.3-.5 1.8 1.7.5 2.8 2 2.7 4 0 .4 0 .7-.2 1h.6c1.8.2 3.2 1.4 3.7 3h1.3c2.2 0 4 2 3.8 4.2v.5"/><path d="M53.7 154c5.4.8 10 3.5 13.3 7.4 3.3 4 5.2 9 5 14.7-.4 6-3 11-7 14.7-3 2.8-7 4.6-11.3 5.2V194c4-.6 7.4-2.3 10-4.8 3.8-3.3 6.2-8 6.5-13.4.3-5-1.4-10-4.5-13.5-3-3.5-7-6-11.8-6.7-.2 0-.2.2-.3.3v-2zm-4.2 42h-.2c-.6 0-1-.5-.8-1v-.2-.2c0-1-.2-1.7-.7-2.3-.6-.6-1.4-1-2.3-1H45h-.5c-.4.2-1 0-1-.5-.2-.7-.6-1.3-1-1.7-.6-.3-1.2-.5-2-.6h-.2-.2-.3c-.4-.2-.6-.6-.5-1v-.5l.2-.6c0-.7-.2-1.4-.6-2-.3-.5-1-1-1.5-1 0-.2 0-.2-.2-.2-.3-.2-.5-.7-.2-1 0-.3 0-.5.2-.8v-.6-1.4c-.3-.4-.5-.8-.8-1-.3-.4-.4-1 0-1.2 0-.3.2-.5.3-.8.2-.3.2-.7.2-1 0-.5 0-1-.2-1.5s-.5-1-1-1.2c-.3-.4-.4-1 0-1.3l.5-1 .2-1v-.8l-.4-.8c-.2-.6 0-1 .4-1.3.6-.2 1-.6 1.4-1 .3-.6.5-1 .6-1.8v-.3-.3-.3c0-.4.5-.7 1-.5h.5c1 0 1.6-.2 2.2-.7.5-.5 1-1 1-2v-.2c.3-.4.8-.6 1.2-.4h.5c.2.2.4.2.6.2.6 0 1.3 0 1.8-.5.6-.4 1-1 1.3-1.5.2-.3.5-.5 1-.5 0 0-.3 0 0 0 .7 0 1.4-.2 2-.6.6-.4 1-1 1.2-1.8 0-.4.5-.7 1-.6h.2v2c-.3.8-.8 1.4-1.4 1.8-.8.5-1.7 1-2.7 1-.4.6-1 1.2-1.6 1.6-1 .5-1.8.7-2.8.7h-.7c-.3 1-.8 1.6-1.5 2-1 .8-2 1.3-3 1.2-.2 1-.5 1.7-1 2.4-.4.5-.8 1-1.4 1.3l.2.4v1.3c0 .5 0 1-.3 1.6l-.3.7.8 1.2c.3.7.5 1.5.4 2.3 0 .5 0 1-.3 1.4 0 .2 0 .4-.2.6l.7 1.2.3 2c0 .4 0 .7-.2 1v.2c.7.4 1.2 1 1.7 1.5.5 1 .8 2 .8 3v.3c1 0 1.8.5 2.5 1 .5.5 1 1 1.3 1.8h.8c1.4 0 2.6.6 3.4 1.6.8.8 1.3 2 1.3 3.2 1.2 0 2.3 0 3.4-.2v1.7c-1.3 0-2.6.2-4 0h-.2"/><path fill-rule="evenodd" clip-rule="evenodd" fill="#965B18" d="M52.7 185c0 2.4 1.2 4.3 3 4.4 1.7 0 3-1.7 3.3-4 0-2.2-1.2-4-3-4.2-1.7 0-3 1.7-3.3 4M52.7 165.2c0 2.3 1.2 4.2 3 4.3 1.6 0 3-1.7 3.2-4 0-2.2-1.3-4-3-4.2-1.7 0-3.2 1.7-3.3 4"/><path fill-rule="evenodd" clip-rule="evenodd" d="M47.6 168.4c0 1 .7 1.8 1.6 1.8 1 0 1.8-.7 1.8-1.6s-.7-1.8-1.6-2c-1 0-1.8.8-1.8 1.8"/><circle fill="none" cx="49.3" cy="168.5" r="1.7"/><path fill-rule="evenodd" clip-rule="evenodd" d="M47 181.2c0 1 .6 1.8 1.6 1.8s1.7-.7 1.8-1.6c0-1-.7-1.8-1.7-1.8s-1.7.6-1.8 1.6"/><path fill="none" d="M47 181.2c0 1 .6 1.8 1.6 1.8s1.7-.7 1.8-1.6c0-1-.7-1.8-1.7-1.8s-1.7.6-1.8 1.6z"/><path d="M55.4 179c-.2.3-.7.5-1 .2-.5-.2-.7-.7-.4-1 .5-1 .8-1.8.8-2.7 0-.8 0-1.6-.4-2.2-.2-.4 0-1 .3-1.2.4 0 1 0 1 .4.7 1 1 2 .8 3.2 0 1.2-.5 2.3-1 3.3"/><path fill-rule="evenodd" clip-rule="evenodd" fill="#FFF" d="M57 166.7c4 2.6 5 13.6 2 17.4 10.2-4.3 9-15.4-2-17.3"/><path d="M62.3 167.7c1 .6 1.7 1.2 2.4 2 1.2 1.3 2 3 2 4.6.3 1.6 0 3.3-1 5-.6 1.4-1.8 2.7-3.4 3.8v-2c1-.8 1.5-1.7 2-2.6.7-1.3 1-2.6.8-4 0-1.3-.6-2.5-1.6-3.6l-1-1v-2zm-5.5 0c0-.2-.2-.2-.2-.3-.3-.2-.5-.5-.5-1 .2-.3.7-.6 1-.6 2.2.4 4 1 5.3 2v2c-.8-.7-1.7-1.2-2.8-1.6 1 1.8 1.7 4.2 2 6.6.2 2.6 0 5.2-.7 7.3l1.5-1v2c-1 .8-2 1.4-3 2-.4 0-.7 0-1-.2-.3-.3-.4-1 0-1.2 0 0 0-.3.2-.4 1.2-1.8 1.6-5 1.2-8.2-.3-3-1.3-6-3-7.4"/><path fill-rule="evenodd" clip-rule="evenodd" fill="#1E396E" d="M146.4 198.5c-.3 4.4 1 8 4.2 8.2 3.2.2 4 .3 4.4-7.7.4-8-.4-8-3.6-8.2-3.3-.2-4.8 3.3-5 7.7"/><path d="M150.7 206c2.5 0 3 0 3.5-7 .3-7.2-.3-7.2-2.8-7.3h-.7V190h.7c4 .2 5 .2 4.5 9-.6 8.7-1.5 8.8-5.3 8.6V206zm-3.5-7.4c0 2.2.2 4 .8 5.5.6 1.2 1.4 1.8 2.6 2v1.6c-2 0-3.2-1-4-2.7-1-1.8-1.2-4-1-6.5 0-2.5.6-4.7 1.6-6.2.8-1.4 2-2.2 3.5-2.3v1.7c-1 0-1.6.7-2 1.5-1 1.3-1.4 3.2-1.5 5.4"/><path fill-rule="evenodd" clip-rule="evenodd" fill="#1E396E" d="M148.2 162.5c.2-4.4 1.8-8 5-7.7 3.3.2 4 .2 3.7 8.2-.6 8-1.4 8-4.6 7.7-3.2 0-4.4-3.8-4.2-8.2"/><path d="M152.6 154h.7c4 .2 5 .2 4.4 9-.4 8.7-1.4 8.8-5 8.6V170c2.3 0 3 0 3.3-7 .4-7.2-.3-7.2-2.8-7.4h-.6V154zm-5.2 8.5c0-2.5.6-4.7 1.6-6.3 1-1.3 2-2 3.6-2.2v1.7c-1 0-1.6.6-2 1.5-1 1.2-1.4 3.2-1.5 5.4 0 2.2.2 4 1 5.5.4 1 1.3 1.8 2.5 2v1.6c-2 0-3.3-1-4-2.7-1-1.8-1.3-4-1-6.5M252.7 180c1 0 2 .5 2 1.5.3 1-.3 2-1.3 2-3.6 1-8.3 2.8-13 5-5.7 3-11.5 6.6-15 9.2-1 .6-2 .4-2.6-.4-.6-.8-.4-2 .4-2.5 3.8-2.7 9.7-6.4 15.8-9.4 4.8-2.4 9.7-4.4 13.7-5.3"/><path fill-rule="evenodd" clip-rule="evenodd" fill="#DD5377" d="M228.4 200.2c1.2 4.2.8 8-2.3 9-3 .7-3.8 1-6-6.8-2-7.7-1.2-8 2-8.7 3-1 5.3 2.2 6.4 6.5"/><path d="M229.5 200c.6 2.3.8 4.7.3 6.5-.5 1.8-1.6 3-3.5 3.6-1 .4-1.7.6-2.3.6v-2.3c.5 0 1 0 1.7-.2 1-.2 1.8-1 2-2 .4-1.5.3-3.4-.3-5.5-.5-2-1.4-4-2.4-5-.3-.2-.6-.5-1-.6v-2.4c1 .2 1.7.7 2.5 1.5 1.3 1.4 2.3 3.5 3 6m-5.5 10.6c-2 .2-3-1.2-5-8-2.3-8.6-1.3-9 2.6-10 1-.2 1.7-.2 2.4 0v2.3c-.5-.4-1-.5-1.8-.3-2.3.6-3 .8-1 7.5 1 4.5 1.8 6 2.8 6v2.4z"/><path fill-rule="evenodd" clip-rule="evenodd" fill="#D14927" d="M298.7 132.2c-1-2-4-3-7.4-2-3.6 1-6 3.6-5.4 6v.3c-2 1.2-3.4 3-3.2 4.7-3.6 1-6 3.7-5.4 6 .3 1.2 1.4 2 2.8 2.5-1.2 1.2-1.8 2.6-1.5 4 0 0 0 .3.2.4-2.2 1.4-3.4 3.3-3 5 .7 2.3 3.8 3.5 7.2 2.7 0 2 0 4 .6 6 .5 2.2 1.5 4 2.7 5.8-2.7 1.3-4.4 3.5-3.8 5.5.5 2 2.8 3 5.6 3-.3.6-.4 1.3-.2 2 .5 1.7 2.4 2.7 4.7 2.8-.6 1-1 2-.6 3 .7 2.3 4 3.4 7.7 2.4l2.2-.8v.3c.6 2.4 3.5 3.7 6.4 3 2.7-.8 4.4-3 4.2-5.2 1 .4 2.4.5 3.7 0 3-.7 4.8-3.3 4-5.7v-.5c1.6-.4 3-1.2 4-2 .7 0 1.6 0 2.5-.3 2-.6 3.6-2 4-3.7.8 0 1.6 0 2.4-.2 3-.7 4.7-3.3 4-5.7 0-.2 0-.4-.2-.6 1.3-.8 2.3-2 2.6-3.2h.2c3-.8 4.7-3.4 4-5.8-.4-2-2.2-3-4.3-3.2 1-1 1.6-2.6 1.3-4-.4-1.3-1.2-2.2-2.3-2.7 1-1.2 1.7-2.8 1.3-4.3-.6-2-2.8-3.3-5.3-3v-.4c-.5-1.6-2-2.8-4-3 1-1.2 1.5-2.7 1-4-.5-2.5-3.4-3.8-6.3-3-1 .2-1.8.7-2.5 1.3-1-1.8-3.5-2.7-6-2-1 .2-1.6.6-2.2 1 0-.2 0-.5-.2-.8-.6-2.5-3.5-3.8-6.4-3-1.7.4-3 1.4-3.7 2.6-1.3-1-3.4-1.2-5.6-.8"/><path d="M310 193l1-1c.5-.7 1-1.6.8-2.4 0-.5.3-1 .8-1h.3c.4.3 1 .4 1.5.4s1 0 1.6-.2c1.3-.3 2.4-1 3-2 .6-.8 1-1.8.6-2.7v-.3c-.3-.5 0-1 .3-1v-.2c.8-.2 1.5-.5 2-.8.7-.3 1.2-.7 1.6-1 .2-.3.5-.4.7-.4h2.3c1-.3 1.6-.8 2.2-1.3.6-.6 1-1.3 1.3-2 .2-.4.6-.6 1-.6h2c1.2-.5 2.2-1.2 3-2 .5-1 .7-2 .4-3v-.4c-.3-.4-.2-1 .2-1 .6-.4 1-.8 1.4-1.3.4-.4.6-1 .8-1.4 0-.3.3-.6.6-.6h.2c1.2-.4 2.2-1 3-2 .5-1 .7-2 .5-2.8 0-.8-.6-1.4-1-1.8-.8-.5-1.6-.8-2.5-.8-.5 0-1-.5-.8-1 0-.2 0-.4.2-.5l1-1.7v-1.7l-.7-1.2c-.3-.4-.7-.7-1.2-1-.3 0-.5-.6-.3-1 0 0 0-.2.2-.2l1-1.7v-1.8c-.2-.8-.8-1.4-1.5-2-.8-.3-2-.6-3-.5-.4 0-.8-.3-1-.7v-.2c0-.7-.5-1.2-1-1.7-.6-.4-1.3-.7-2-.8-.6 0-1-.5-1-1l.4-.4.8-1.6V137c-.3-.8-1-1.5-2-2-1-.4-2-.5-3.4-.2-.4 0-.8.3-1 .5-.5 0-.8.4-1 .6-.5.2-1 .2-1.3-.2-.5-.8-1.2-1.3-2-1.6-1-.3-2-.4-3 0-.5 0-.8.2-1 .3l-1 .6c-.4.3-1 .3-1.2 0l-.2-.7v-.3-.3c-.3-1-1-1.7-2-2.2l-1.6-.4v-1.6c.8 0 1.6.3 2.3.6 1.3.6 2.4 1.7 2.8 3l1.5-.5c1.4-.4 2.7-.3 4 0 1 .4 1.7 1 2.4 1.6 0 0 .3 0 .5-.2.4-.3 1-.5 1.5-.6 1.6-.5 3.3-.3 4.6.3 1.4.6 2.5 1.8 2.8 3.2.3 1 .2 1.7 0 2.5 0 .4-.3.8-.5 1.2.5.2 1 .5 1.6 1 .7.5 1.2 1.2 1.5 2 1.3 0 2.4.4 3.3 1 1.2.6 2 1.6 2.3 3 .3.8.2 1.7 0 2.6l-.8 1.6.8.7c.4.5.8 1.2 1 2 .2.8.2 1.6 0 2.5l-.6 1c.7.3 1.3.6 1.8 1 1 .7 1.6 1.6 2 2.7.3 1.4 0 3-1 4.2-.7 1-2 2-3.5 2.5-.2.6-.6 1-1 1.6-.3.5-.7 1-1.2 1.2.5 1.6 0 3-.8 4.3-.8 1.2-2.2 2.2-3.8 2.6H332l-.5.2-1.5 2c-.8.7-1.8 1.3-3 1.6l-1.4.3h-1c-.6.5-1 1-1.7 1.2l-1.7.7c.3 1.3 0 2.7-1 3.8-.7 1.2-2 2.2-3.7 2.6l-2.2.3h-1c0 .8-.5 1.7-1 2.5-.7.7-1.5 1.3-2.4 1.7v-2zm-12-60.5c-.4-.8-1.2-1.3-2.3-1.6-1.2-.5-2.7-.5-4.2 0-1.6.4-3 1.2-4 2.2-.6.8-1 1.8-.8 2.7v.2c.3.4 0 1-.3 1-1 .6-1.6 1.3-2 2-.6.6-.8 1.3-.7 2 0 .3-.3.7-.7.8-1.6.5-3 1.3-3.8 2.2-.8 1-1.2 2-1 2.8.2.4.4.8.7 1 .3.5.8.7 1.4 1 .5 0 .7.6.6 1 0 .2 0 .3-.3.4-.5.5-.8 1-1 1.6-.2.5-.3 1 0 1.4v.4c.2.4 0 1-.4 1-1 .7-1.6 1.4-2 2-.4.8-.5 1.4-.4 2 0 1 1 1.6 2 2 1 .4 2.5.4 4 0 .5 0 1 .3 1 .8v3l.6 3c.2 1 .6 1.8 1 2.7l1.6 2.6c.3.4.2 1-.2 1.2-1.4.7-2.4 1.4-3 2.3-.5.8-.7 1.6-.5 2.3.2.7.7 1.3 1.5 1.6.8.5 2 .7 3.2.6.5 0 1 .4 1 .8v.4c-.3.3-.3.6-.3.8-.2.3-.2.5 0 .8 0 .6.5 1 1 1.5.8.4 1.7.6 2.7.7.5 0 .8.4.8 1v.3c-.4.4-.5.8-.6 1.2-.2.3-.2.7 0 1 0 1 1 1.5 2 2 1.3.3 3 .3 4.5 0l1-.4c.4 0 .7-.2 1-.4.4-.2 1 0 1.2.3v.5c.4 1 1 1.6 2 2 1 .5 2.2.6 3.5.3.7-.2 1.3-.5 1.8-.8v2c-.4 0-1 .3-1.3.4-1.7.5-3.4.3-4.7-.3-1.2-.4-2-1.3-2.6-2.5h-.2c-.4.3-.8.4-1.2.5-2 .6-4 .5-5.5 0-1.6-.5-2.8-1.6-3.2-3-.2-.7-.2-1.3 0-2v-.5c-.7 0-1.5-.4-2-.8-1-.6-1.7-1.5-2-2.5 0-.4-.2-1 0-1.3v-.3c-1.2 0-2.3-.3-3-.8-1.3-.7-2-1.6-2.5-2.8-.3-1.2 0-2.5.8-3.7.7-1 1.6-1.7 2.7-2.3-.5-.6-1-1.3-1.2-2-.4-1-.8-2-1-3.2l-.6-3v-2.3c-1.5.2-3 0-4-.4-1.6-.6-2.7-1.6-3-3-.4-1-.2-2.2.4-3.2.5-.8 1.2-1.5 2-2.2 0-.8 0-1.6.3-2.4l.8-1.3-1-.6c-.6-.6-1-1.2-1.2-2-.4-1.4 0-3 1.3-4.3.8-1 2.3-2 4-2.4 0-1 .4-1.7 1-2.4.4-.8 1-1.5 2-2-.3-1.5.3-3 1.4-4.2 1-1.2 2.7-2.2 4.6-2.7 2-.5 3.7-.5 5 0 1.5.3 2.5 1 3.2 2h2.8c.7 0 1.5.3 2 .7l1.3-1.2c.7-.5 1.5-1 2.4-1 .8-.3 1.6-.4 2.3-.4v1.7c-.6 0-1.2 0-2 .3-.5.2-1.2.5-1.7 1-.5.3-1 .7-1.2 1.2-.2.4-.7.5-1 .3h-.2c-.5-.4-1.3-.7-2-.8-1-.2-2-.2-3 0-.3 0-.7 0-.8-.5M250.8 170.5c1 .2 1.6 1 1.4 2-.2 1-1 1.7-2 1.5-3-.6-9-1.6-16.4-1-4.6 0-9.7 1-15 2.8-.8.4-1.8 0-2-1-.5-1 0-2 1-2.3 5.4-2 10.8-3 15.8-3.2 7.6-.4 14 .6 17.2 1.2"/><path fill-rule="evenodd" clip-rule="evenodd" fill="#DD5377" d="M220 168.7c-1-4.3-3.4-7.4-6.5-6.5-3 .8-4 1-2 8.7 2.2 7.7 3 7.4 6 6.6 3.2-1 3.6-4.7 2.5-9"/><path d="M219 169c-.6-2-1.4-4-2.5-5l-1-.7V161c1 .3 1.8.8 2.5 1.6 1.4 1.3 2.4 3.4 3 5.8.7 2.4.8 4.7.4 6.6-.5 1.8-1.6 3-3.5 3.6h-.2l-2.2.5V177c.4 0 1 0 1.7-.2 1-.3 1.7-1 2-2.2.4-1.4.2-3.4-.3-5.5m-3.4-5.7c-.6-.2-1.2-.3-1.8 0-2.4.5-3 .7-1 7.3 1 4.6 1.7 6 2.8 6.2v2.3c-2.2.3-3.2-1-5-7.8-2.3-8.7-1.3-9 2.6-10 .8-.3 1.6-.3 2.4 0v2z"/><path fill-rule="evenodd" clip-rule="evenodd" fill="#C43573" d="M244.6 152.4c10.4-1.8 27.2-1.2 35.7 3.3 14.8-4 22.6 2.3 30.3 5.3-5.5 5.4-10 11.4-23.5 16.7-6 8-22 17-29 21.7-14.4-14.7-18.2-27.8-13.4-47"/><path d="M276.3 153.2c1.5.4 3 1 4 1.6 12.3-3 19.7.4 26.3 3.5l4.3 2c.4 0 .6.6.4 1 0 .2 0 .3-.2.4L309 164c-4.8 4.7-9.8 9.8-21.3 14.4-2.6 3.3-6.8 6.8-11.4 10v-2c4-3 7.8-6.2 10-9.2.2 0 .3-.2.5-.3 11.4-4.6 16.3-9.6 21-14.3l1.3-1.4-3-1.5c-6.5-3-13.7-6.4-25.5-3.3h-.6l-3.7-1.6V153zm-31.8-1.6c5.7-1 13.2-1.3 20.2-.7 4.2.3 8.2 1 11.6 2.2v1.7c-3.4-1.2-7.5-2-11.7-2.4-6.7-.6-13.8-.3-19.3.6-2.2 9.2-2.4 17-.3 24.2 2 7.2 6.4 14 13.2 21 1.3-1 2.7-1.8 4.2-2.7 4-2.7 9.3-6 14-9.3v2c-4.5 3.3-9.2 6.3-13 8.7l-4.8 3c-.4.3-.8.3-1 0-7.4-7.4-12-14.5-14.3-22.2-2.2-7.6-2-15.8.5-25.6 0-.3.4-.6.7-.6"/><path d="M291.7 151.7c.7.7.6 1.8 0 2.4-1 .7-2 .7-2.6 0-2-2.3-3.8-4.7-4.8-7.3-1-2.8-1.3-5.7-.7-9 .7-3.6 2.3-6.2 4.4-8 2-2 4.7-3.3 7.4-4.2 1-.3 2 0 2.3 1 .3 1-.2 2-1 2.2-2.5.7-4.6 1.8-6.3 3.3-1.6 1.5-3 3.5-3.4 6.2-.5 2.7-.3 5 .6 7.3.8 2.2 2.3 4.2 4 6.2"/><path fill-rule="evenodd" clip-rule="evenodd" fill="#EBCFBC" d="M303.6 161c-1-3.5-4.7-5.5-8.4-4.5s-6 4.6-5 8c1 3.5 4.7 5.6 8.4 4.6s6-4.5 5-8"/><path d="M302.7 161.2c-.4-1.5-1.4-2.7-2.7-3.4-1-.5-2-.8-3-.7v-1.6c1.3 0 2.6.3 3.8 1 1.7.8 3 2.4 3.6 4.4.5 2 0 4-1 5.6-1 1.7-2.5 3-4.6 3.5l-2 .2v-1.7c.6 0 1 0 1.5-.2 1.7-.5 3-1.5 3.8-2.8 1-1.3 1-2.8.7-4.3m-5.8-4h-1.6c-1.6.5-3 1.5-3.7 2.8-.8 1.3-1 2.8-.7 4.3.4 1.5 1.4 2.7 2.7 3.4 1 .5 2 .8 3.2.8v1.7c-1.5 0-3-.3-4-1-1.8-1-3-2.4-3.6-4.4-.6-2-.2-4 .8-5.7 1-1.5 2.7-2.8 4.8-3.4l2-.2v1.7z"/><path fill-rule="evenodd" clip-rule="evenodd" fill="#EBCFBC" d="M312.3 138.2c-11 2.7-17.7 14-14.7 25 2.7 10.3 13 16.6 23.4 14.6-.3-1.8 1-3.6 1.5-3.8.6 0 0 0 0 0 0-1.5 1-3 1.7-3 .6-.3.5 0 .8 0-.4-2 .8-4 1.5-4.2.7-.2.3 0 .5 0 0-.3 0 0-.3-.8-.2-1-.2-3 .5-4-.4-.4-.7-1-1-1.8 0-.8-.2-1.8 0-2.5-1-.6-1.6-2-2-3-.2-1-.2-1.6 0-2.3-.8-.6-1.5-1.8-1.7-2.7l-.2-1.6c-1.2 0-2.5-2-2.8-3.2-.3-1 0-.8-.2-1h-.3c-.6.2-2.3-.6-3-2-.3.2 0 .2-.8.4s-3.5-3-3.5-3.3c0-.4 0-.5.6-.8"/><path d="M327.4 160.8l.5.8v1c-.3.3-.4.8-.5 1.3v1.8-5zm0 5l.4.6v.7c0 .2-.3.3-.4.4V166zM315 141.4h.2l.2-.2h.2c.4-.2 1 0 1 .4.4.5.8 1 1.2 1.2.4.3.8.4 1 .4l.5-.2h.4c.2 0 .4.3.5.7v1.1l1.2 1.8c.4.4.7.7 1 .8.4 0 .7.4.7 1 0 .3 0 .6.3 1.3 0 .4.3 1 .6 1.3 0 .4.4.8.7 1 .2.2.3.4.3.7v2l.8 1.5c.2.4.5.8.8 1 .3.2.4.5.4.8v2.2l.4.8v6.6l-.4.2h-.2c-.2 0-.5.5-.8 1.2-.2.5-.3 1.2 0 2v.3c-.3.6-.7 1-1.2.7h-.2-.2l-.6.8c0 .3-.3.6-.3 1v.2c.3.5 0 1-.5 1h-.2c-.2.2-.5.6-.7 1.2 0 .4-.3 1-.2 1.7 0 .4-.2 1-.7 1-2 .3-4 .4-6 .2V177c1.8.2 3.4.2 5 0 0-.8.3-1.4.5-2 .3-.7.8-1.3 1.2-1.7 0-.6.3-1.3.6-1.8.4-.8 1-1.4 1.7-1.6 0-.6.2-1.3.4-1.8.4-1 1-1.7 1.5-2-.2-.7-.3-1.6-.2-2.5 0-.5.2-1 .4-1.5l-.3-.6c-.3-.3-.4-.7-.5-1.2-.2-.4-.2-1-.3-1.4v-1l-1-1-.8-2-.2-1.5v-.8l-.8-1c-.3-.6-.6-1.2-.7-1.8l-.3-1.4c-.4-.2-1-.6-1.3-1l-1.3-2.6v-.3c-.6 0-1.3-.3-2-.7l-1-1h-.2-.4v-1.6h.2zm0 0zm0 37.6V177v1.7zm0-37.6v1.6-1.4-.2m0 .2v-.2.2zm0-.3v.3-.3zm0 37.6V177v1.7zm0-37.4v1.4-1.4zm-2.4-4.2c.2 0 .3.2.4.4.3.4 0 1-.3 1l1 1.3 1.4 1.3v1.7c-.7 0-1.6-.8-2.4-1.6v-4zM315 179l-2.4-.5v-1.7l2.5.4v1.7zm-3-41.6h.6v3.8l-.7-.6v-3.2zm.6 41h-.7v-1.8c.2 0 .4 0 .6.2v1.7zm-1-41h.3v3.2c-.5-.4-.8-1-1-1.2-4.6 1.5-8.3 4.7-10.6 8.6-2.5 4.2-3.4 9.4-2 14.5v.4c1.3 4.8 4.4 8.8 8.4 11.3 1.6 1 3.3 1.8 5 2.3v1.8c-2-.6-4-1.4-6-2.6-4.2-2.7-7.6-7-9-12.4l-.2-.5c-1.4-5.7-.4-11.3 2.4-16 2.7-4.5 7-8 12.7-9.5"/><path fill-rule="evenodd" clip-rule="evenodd" fill="#D4B39D" d="M315 146c-.7-2.3-2.5-3.7-4.2-3.3-1.6.5-2.5 2.6-2 4.8.7 2.2 2.5 3.6 4 3 1.8-.3 2.7-2.4 2-4.6M320.6 167.2c-.6-2.2-2.4-3.6-4-3-1.7.3-2.6 2.4-2 4.6.6 2.2 2.4 3.6 4 3.2 1.7-.5 2.6-2.6 2-4.8"/><path fill-rule="evenodd" clip-rule="evenodd" d="M322.3 163c-.3-.8-1.2-1.4-2.2-1-.8 0-1.3 1-1 2 .2 1 1 1.5 2 1.3 1-.3 1.5-1.3 1.3-2.2"/><circle fill="none" cx="320.6" cy="163.6" r="1.7"/><path fill-rule="evenodd" clip-rule="evenodd" d="M319 150.7c-.3-1-1.3-1.4-2.2-1.2-1 .2-1.5 1.2-1.2 2 .2 1 1.2 1.6 2 1.4 1-.4 1.6-1.3 1.3-2.3"/><circle fill="none" cx="317.3" cy="151.2" r="1.7"/><path fill-rule="evenodd" clip-rule="evenodd" fill="#FFF" d="M309.3 148.2c-2.7 5 1.2 19 6 22-13.2-1-17-14.8-6-22"/><path d="M310 148.6c-1.2 2.3-1 6.7.2 11 1.2 4.2 3.3 8.4 5.5 9.8.4.3.5.8.2 1.2-.2.2-.5.4-.8.4-2.7-.2-5-1-7-2v-2c1.3 1 2.8 1.6 4.6 2-1.8-2.3-3.3-5.6-4.2-9 0-.6-.2-1-.3-1.5V148l.6-.5c.3-.3.8-.2 1 .2.2.3.2.7 0 1m-1.7 20.4l-2.2-1.4c-1.7-1.6-3-3.6-3.6-5.8-.6-2.2-.5-4.6.3-7 1-2.4 2.7-5 5.6-7v10.7c-.7-2.8-1-5.7-.6-8-1.6 1.5-2.8 3.3-3.4 5-.7 2-.7 4-.2 5.8.6 2 1.6 3.6 3.2 5l1 .8v2z"/><path fill-rule="evenodd" clip-rule="evenodd" fill="#EBCFBC" d="M302.8 129.7c-.5 1.2-1.4 2-2.4 2.6.2.6.2 1 0 1.4-.6.7-2.3.2-4-1l-1.5-2c-.8-1.3-1-2.7-.4-4 .8-2.5 3.4-3.7 5.7-3 2.2 1 3.4 3.6 2.5 6"/><path d="M303.6 130l-1 1.8-1.2 1v.3c0 .5 0 1-.4 1.3-.5.6-1.3.7-2.3.4V133h.4l.7.2v-.6c-.3-.4 0-1 .3-1 .5-.3 1-.6 1.2-1 .3-.3.6-.7.8-1.2.3-1 .3-2 0-3-.4-.8-1-1.5-2-1.8l-1.3-.2v-1.7c.6 0 1.2 0 2 .3 1.2.5 2.3 1.6 2.8 2.8.5 1.3.6 2.8 0 4.2m-4.8 4.7c-1-.2-1.8-.7-2.7-1.5l-1-1c-.4-.5-.7-1-1-1.2-.3-.7-.5-1.5-.6-2.3 0-.8 0-1.6.4-2.4.5-1.4 1.5-2.5 2.7-3 .7-.4 1.4-.6 2.2-.6v1.7c-.5 0-1 .2-1.4.4-1 .4-1.6 1-2 2l-.2 1.8.6 1.5v.2l.6.8 1 1c.4.4 1 .7 1.5 1v1.7zM316 160.8c.4.3.4 1 0 1.2-.3.3-.8.3-1 0-1-1-1.6-2-2-3-.2-1-.3-2.3 0-3.3.3-.5.7-.7 1.2-.5.4 0 .7.6.5 1-.2.7-.2 1.5 0 2.2.3 1 .8 1.7 1.4 2.4"/><path fill-rule="evenodd" clip-rule="evenodd" fill="#FFC4D4" d="M282.4 158.4c.2.8-.2 1.6-1 1.8-.8.2-1.6-.2-1.8-1-.2-.8.3-1.6 1-1.8.8-.2 1.6.3 1.8 1M282.7 163.3c.2.7-.3 1.5-1 1.7-.8.3-1.6-.2-1.8-1-.3-.8 0-1.6 1-1.8.7-.2 1.5.3 1.7 1M284.5 169c.2.7-.3 1.5-1 1.7-1 .2-1.7-.3-2-1 0-.8.4-1.6 1.2-1.8.7-.3 1.5 0 1.8 1M286.6 174c.2.7-.3 1.5-1 1.7-.8.2-1.6-.2-2-1 0-.8.4-1.6 1.2-1.8.8-.3 1.6.2 1.8 1"/><path d="M299.6 170.8c.8-.6 2-.4 2.5.4.7.8.5 2-.3 2.5-.7.5-1.5 1-2.2 1.8l-2 2.4c-2 2.5-2.6 5-2.7 7.6 0 2.6.8 5.2 2 7.7.3 1 0 2-1 2.3-1 .4-2 0-2.3-.8-1.4-3-2.2-6-2.2-9.2 0-3.3 1-6.5 3.4-9.8.7-1 1.5-2 2.3-2.8l2.6-2.2M128.5 225.7c-.7.7-1.8.7-2.5 0s-.6-2 0-2.5c2.3-2.3 4.4-5.5 6.3-8.6 1.3-2 2.5-4 3.7-5.4 1.5-2 3-3.7 4.5-5.4 1.7-2 3.5-4 5-6 .5-.8 1.6-1 2.4-.3.7.5 1 1.7.3 2.4l-5 6-4.5 5.3-3.5 5.2c-2 3.3-4.2 6.7-6.8 9.2"/><path fill-rule="evenodd" clip-rule="evenodd" fill="#C43573" d="M141.4 197.2c-3-3.3-4.2-7-1.8-9 2.4-2.2 3-2.8 8.3 3.3 5.2 6 4.5 6.5 2 8.7-2.4 2-5.8.3-8.6-3"/><path d="M145 187.2l3.5 3.7c5.8 6.6 5 7.2 2.2 9.8-1.5 1.2-3 1.4-4.8.8-.4 0-.7-.2-1-.3v-2l1.4.7c1.2.4 2.2.3 3-.5h.2c1.8-1.7 2.3-2-2.4-7.4l-2.2-2.4v-2.4zm-4.3 10.5c-1.6-1.8-2.8-3.8-3-5.6-.5-1.7 0-3.3 1.3-4.5 2.3-2 3.2-2.8 6-.3v2.4c-2.7-2.7-3.3-2.2-4.8-1v.2c-1 .8-1.2 1.8-1 3 .3 1.5 1.4 3.2 2.8 4.8 1 1 2 2 3 2.7v2c-1.4-.7-3-2-4.3-3.6"/><path fill-rule="evenodd" clip-rule="evenodd" fill="#E89F4B" d="M96.8 291c1.4 1.2 3.4.4 4.8-2 .6-1 1-2 1-3.2l.8-.6h.2l.5.7c2 2 5 2 7.3 0 1.4-1.2 2-3 2-4.7l.2-.2c2-1.5 2.4-4 1.5-6 1.6.5 3.5 0 5-1.2 1.5-1.3 2-3 2-4.7h.2c2.2-2 2.6-5.2.8-7.2-.6-.7-1.4-1.2-2.3-1.4 1-2 1-4-.4-5.7-1.7-2-5-2-7.2 0l-.2.2c-.2-1-.5-1.6-1-2.2-1.8-2-5-2-7.2-.2-.8.7-1.4 1.6-1.7 2.5-.8.3-1.5.7-2 1.2-2.2 2-2.7 5-1 7-1.3-.6-3.3-.2-5 1-.5-1.2-1.2-2.5-2.2-3.6-1-1.2-2.2-2-3.5-2.8.7-1 1.2-1.8 1.3-2.6h1.2c1.3 0 2.5-.6 3.3-1.6 1 1 2.4 1.8 3.8 1.8 2.7 0 4.8-2.5 4.7-5.5v-.5c.7.4 1.5.6 2.3.5 2.7 0 4.8-2.5 4.7-5.4 0-1-.4-2-1-3 .4-.6.5-1.3.5-2.2 0-3-2.3-5.2-5-5h-1.2c-.8-.6-1.8-1-3-1-.8 0-1.5.3-2.2.7-1-1.3-2.3-2-4-2-2.6 0-4.7 2.5-4.6 5.4v.3h-1c-1 0-2 .3-2.8 1-.6 0-1 .3-1.6.6-1-1.3-2.3-2-4-2-2.6 0-4.7 2.4-4.6 5.3v.3l-1-.2c-2.7 0-4.8 2.5-4.7 5.5v.5c-1.2-.3-2.6-.4-3.7 0-2 .8-2.7 2.4-1.8 4-1-.3-1.5-.4-3 .2-1.7.5-2.2 3.7-1.5 4.6.8 1 .3.2.4.4 0 0 .5-.3 0 0-.6.2-2 1.3-2.4 2-.8 0-1 0-2 .5s-2 2.2-1.8 3.7c-.6 0-.5-.2-1.7.5s-1.3 4.7-.4 5.8l.4.5c-.6 1-.7 2.2-.3 3.4 0 0 .7-.6 0 0-1 .8-1.7 4.5-.2 6.3 1.5 1.8 3.2 2.3 4.7 1.8-.2 1.4.3 3 1.3 4 1 1.2 2 1.7 3 2-.3 1.3 0 2.6 1.3 4 1.3 1.7 3.8 2.5 5.5 1.6 0 .2-.4-.4.3.4.6.7 3 2 4.4 1.6 0 1.3 0 2.4 1.5 4 1.4 1.4 5 1.6 6 .5 1-1 .8-1.2 1-2 1.6 1.2 4 .5 4.8-.5.8-1 .7-1 .8-1.8.2.3-.4-.2.6.8s4.3 1 5.2-.3c1-1.5 1-2.4.7-3.7 1.2 0 2.5-.5 3.5-2"/><path d="M104.8 285.2c.7.8 1.7 1.2 2.8 1.3 1 0 2.2-.4 3-1.2.7-.5 1-1 1.4-1.8.3-.7.4-1.4.3-2 0-.4 0-.7.3-1h.2c.8-.8 1.3-1.6 1.6-2.5.2-1 0-1.8-.3-2.6 0-.5 0-1 .6-1.3h.6c.7.3 1.5.3 2.2 0 .7 0 1.4-.4 2-1 .6-.4 1-1 1.3-1.7.3-.7.4-1.4.3-2 0-.4 0-.7.4-1h.2c1-1 1.4-2 1.6-3 0-1-.2-2-1-3 0-.2-.4-.4-.7-.6l-1-.4c-.5-.2-.8-.7-.7-1.2v-.2c.5-.7.7-1.5.7-2.3 0-.8-.4-1.5-1-2.2-.6-.7-1.6-1.2-2.6-1.2-1.2 0-2.3.5-3.3 1.3l-.2.3c-.4.3-1 .3-1.4 0v-.6l-.4-.8-.5-.8c-.6-.8-1.6-1.2-2.7-1.2-1 0-2.2.3-3 1l-.5.5v-2.4c.2 0 .4-.2.5-.3h-.5v-2h1c1 0 2-.4 2.7-1.2.7-.8 1-2 1-3.2 0-.4 0-.8-.2-1.2 0-.5-.3-.8-.5-1.2 0-.2-.2-.6 0-.8l.2-1v-1c0-1.2-.4-2.2-1.2-3-.7-.8-1.7-1.2-2.7-1.2h-.2v-2h.2c1.6 0 3 .8 4.2 2 1 1 1.7 2.5 1.8 4.2v1.4c-.2.3-.3.5-.3.8l.4 1.2c.3.6.4 1.2.4 1.8 0 1.7-.5 3.2-1.5 4.4-.6.5-1 1-1.6 1.3 1.5 0 3 .6 4 1.8l.8 1.3c1.2-.7 2.5-1 3.7-1 1.5 0 3 .6 4 1.8.8 1 1.3 2.2 1.3 3.3 0 1 0 1.7-.3 2.5.2 0 .3.2.5.3.4.4 1 .7 1.2 1 1 1.4 1.5 3 1.3 4.5 0 1.5-1 3-2 4 0 1-.2 1.7-.6 2.5-.3 1-1 1.8-1.8 2.5s-1.8 1.2-2.8 1.4h-1.5v2.4c-.4 1.3-1 2.4-2 3.4 0 .8-.2 1.6-.6 2.4-.4 1-1 1.8-1.8 2.5-1.4 1-3 1.7-4.5 1.7-1 0-2-.3-2.7-.8v-2.4zm-7.4 5.2c.5.3 1 .3 1.4.2.5-.2 1-.6 1.6-1.3l.4-.7c.3-.3.5-.8.6-1.3l.3-1.6c0-.3.2-.6.4-.7l.4-.2.4-.3c.5-.5 1-.5 1.5 0l.3.4.2.2v2.4c-.5-.3-1-.6-1.3-1l-.3 1.3-.7 1.6-.6.8c-1 1-1.7 1.7-2.6 2-.8.2-1.6.2-2.4 0l-1.4 1c-.2 0-.3.2-.5.3v-2.2c.4-.2.7-.6 1-1 .3-.4 1-.4 1.3 0zm7.4-36.7l-.4.6c-.3.3-.5.7-.6 1 0 .4-.3.6-.6.7-.3 0-.6.2-1 .4l-.7.6c-1 .7-1.4 1.7-1.6 2.8-.2 1 0 2 .7 2.8.3.4.2 1-.2 1.3-.3.2-.7.2-1 0-.4 0-1-.2-1.7 0s-1.5.5-2.2 1c0 .2-.3.3-.5.3v-3c.2 0 .4.4.5.6.6-.4 1.2-.7 1.8-.8l1-.2c-.3-.8-.3-1.6-.2-2.5.2-1 .7-2.3 1.6-3.2H99c-1 0-1.8 0-2.6-.5L95 255v-2.3c.3 0 .6 0 .8.2.5.5 1 1 1.4 1 .5.3 1 .5 1.6.4 1 0 2-.5 2.7-1.3.7-.7 1-1.8 1-3v-.2-.2c0-.5.4-1 1-1h.5l.8.4v2l-.4-.2v.8l.4-.3v2.4zm0-18.5h-.2c-.2 0-.3 0-.5.2-.2 0-.5 0-.8-.2l-1-.7-1.3-.2c-.5 0-.8 0-1 .2-.3 0-.6.2-1 .4-.3 0-1 0-1.2-.4-.3-.6-.8-1-1.4-1.3L95 233v-2c1 0 1.6.3 2.3.6L99 233c0-.2.2-.3.4-.3l1.4-.2c.7 0 1.3 0 2 .3.4 0 .8.4 1.2.6h.8v1.8zm-9.7 30c-.2 0-.5 0-.7-.3v-.3l-1-2-1.2-1.5c-.3-.5-.8-1-1.4-1.5-.6-.4-1.2-.8-1.8-1-.4-.4-.6-1-.4-1.4l.2-.2c.3-.2.5-.6.7-1l.4-1c0-.5.6-1 1-.8h.9c.6 0 1 0 1.5-.2s1-.6 1.2-1c.2-.2.5-.3.7-.3v2.3l-1 .7c-.7.3-1.4.5-2.2.5h-.5l-.3.7-.3.5 1 .8c.7.5 1.3 1 1.8 1.7.6.6 1 1.2 1.4 2v3.2zm0-32.3h-.3c-1 0-2 .4-2.7 1.2-.7.8-1 2-1 3.2v.2c0 .5-.4 1-1 1H90h-.4-.4c-.4 0-.8 0-1 .2h-.2v-2H89v-.2c.2-1.4.7-2.6 1.6-3.6 1-1.2 2.4-2 4-2h.5v2zM88 296v.5l.2-.2h.2c.4.4 1 .5 1.8.5.7 0 1.4-.2 1.7-.5v-.2c.5-.5.7-1 .8-1.4V293c-.2-.4.2-1 .7-1h.3c.3 0 .8 0 1.2-.2l.4-.3v2.2s-.4 0-.6.2v1c0 .6-.4 1.3-1 2.2l-.4.4c-.7.7-1.8 1-3 1-.8 0-1.6 0-2.2-.3V296zm0-57.2l-1 .6-.5.2c-.2 0-.4 0-.6.2l-.6.3c-.3.4-1 .2-1.2-.2-.4-.5-.8-1-1.4-1.3-.5-.2-1-.4-1.7-.4-1 .2-2 .7-2.7 1.5-.7.8-1 2-1 3v.2c0 .7-.4 1-1 1.2l-.2-.2h-.4-.4c-1 0-2 .5-2.7 1.3-.7 1-1 2-1 3.2v.5c0 .5-.3 1-1 1H70c-.5-.2-1-.3-1.7-.3-.5 0-1 0-1.3.3-.3 0-.4 0-.6.2-.5.2-.8.5-1 1v1l.2.2c.3.5 0 1-.3 1.3-.2 0-.4.2-.7 0h-.2c-.7 0-1.2 0-2.4.3l-.2.2c-.4.3-.6.8-.8 1.4v1.5c.4 0 .6 0 .8.4.3.7 0 1-.2 1.2l-.2.2c-.3.2-.5.3-.8.2l-.8.7-.7.8c0 .4-.4.6-.8.6H58c-.4 0-.6 0-1.4.4l-1 1c-.2.6-.3 1 0 1.5 0 .4-.3 1-.8 1H54l-.7.5c-.3.2-.5 1-.6 2 0 1 0 2 .4 2.3v.2s.3 0 .5.3l.2.4c.2.3.3.7-.2 1l-.3 1v.6s.2 0 .3.2c.5.7.2 1-.2 1.4 0 0-.2 0-.3.2-.3.2-.5 1-.6 2 0 1 0 2.2.6 3 .6.7 1.2 1 1.8 1.3.7.3 1.4.3 2 0 .5 0 1 .3 1 .8.2 0 .2.3.2.4v1.7c.3.6.6 1.2 1 1.6.4.5.8.8 1.2 1 .4.3.8.4 1.3.5.5 0 .8.6.7 1v1.7c.2.6.5 1.2 1 1.8.6.7 1.4 1 2.3 1.4.6 0 1 .2 1.6 0 .2 0 .3 0 .3-.2.7-.5 1-.2 1.4.2l.2.3c.3.4 1 .8 2 1 .5.4 1 .5 1.5.4.6 0 1 .3 1.2.8V297.7c.2.5.6 1 1.2 1.7.5.6 1.5 1 2.4 1 1 0 1.8 0 2-.4v-.2c.7-.6.7-.7.7-1 .2 0 .2-.3.2-.4 0-.5.6-1 1-.8.2 0 .4 0 .5.2.6.3 1.2.4 2 .4.6 0 1.3-.4 1.6-.8.5-.6.5-.8.5-1v-.4c.2-.5.7-.8 1.2-.7.2 0 .5.2.6.4 0 .2 0 .3.2.4v2.3c-.3 0-.5-.2-.6-.3 0 .2-.3.3-.4.6-.6.7-1.8 1.3-3 1.4h-2c0 .2-.4.6-1 1v.2c-.7.7-2 1-3.5 1-1.3-.2-2.7-.6-3.6-1.5 0 0-.2 0-.2-.2-.8-.8-1.3-1.6-1.5-2.3l-.2-1.2c-.5 0-1-.2-1.6-.4-1-.4-2-1-2.4-1.4-1 .3-1.8.2-2.8 0-1.2-.3-2.4-1-3-2-1-.8-1.3-1.6-1.6-2.5v-1.5l-1-.5c-.7-.3-1.3-.8-1.8-1.5-.6-.6-1-1.4-1.3-2.3l-.2-1.4c-.6 0-1.2 0-1.8-.3-1-.3-1.8-1-2.6-2-1-1-1.2-2.8-1-4.2 0-1 .4-2.3.8-3v-1.5c0-.5 0-1 .3-1.4 0 0-.2 0-.3-.2-.4-.8-.6-2.2-.5-3.5 0-1.3.4-2.7 1-3.3h.4c.5-.5 1-.6 1-.7l.6-1.6c.4-1 1-1.6 1.8-2 1-.5 1.4-.5 2-.5l.8-1c.2 0 .5-.3.7-.5-.3-.8-.3-1.8 0-2.8 0-1 .6-2 1.3-2.5l.8-.4 2-.4c0-.5 0-1 .3-1.4.3-.8 1-1.4 1.7-2l1-.3c.5-.3 1.2-.4 2-.4h1c0-1.4.6-2.7 1.5-3.7 1-1.3 2.4-2 4-2 .2-1.5.7-2.8 1.6-3.8 1-1 2.4-2 4-2 1 0 2 .3 2.7.7.6.2 1 .6 1.6 1 .3 0 .5 0 .8-.2l1.4-.8c.2 0 .4 0 .6-.2v2zM136 234.6c-.7.6-1.8.5-2.4-.3-.6-.7-.5-2 .3-2.5 2.7-2.2 6.4-4 10-5.4l5.5-2.8c2-1 4-2.4 5.8-3.6 2.3-1.5 4.6-3 6.8-4.2 1-.4 2 0 2.5.7.5 1 .2 2-.7 2.4-2 1-4.3 2.6-6.6 4l-6 3.7c-1.6 1-3.7 2-5.8 3-3.3 1.4-6.8 3-9.3 5"/><path fill-rule="evenodd" clip-rule="evenodd" fill="#6C8FD4" d="M149 248.5C129 263 99.5 267.8 85 269c3-14.2 12-42.7 29-60.4 19.4 6.8 30.6 20.5 34.7 40"/><path d="M149.4 249.2c-8.3 6-18.2 10.3-28 13.5l-4.3 1.3v-1.8l4-1c9.4-3.2 19-7.4 27-13-2-9.4-5.8-17.3-11.4-23.8-5-5.8-11.4-10.4-19.5-13.8v-1.8c8.7 3.4 15.6 8.3 21 14.5 5.8 6.8 9.6 15.2 11.7 25 0 .4 0 .7-.3 1M117 264c-12.3 3.6-24 5.2-31.8 5.8-.4 0-1-.3-1-.8v-.3c2-8.3 5.8-21.7 12.2-35 4.4-9 10-18.3 17.2-25.7.2-.2.6-.3 1-.2l2.5 1v1.8l-2.6-1c-6.7 7.2-12.2 16-16.5 25-6 12.5-10 25-11.8 33.4 7.7-.7 19-2.3 31-5.8v1.8z"/><path fill-rule="evenodd" clip-rule="evenodd" fill="#EBCFBC" d="M89.8 265c-3-3.2-3-7.7-.5-10 2.5-2.2 7-1.3 9.7 2 3 3.2 3 7.6.5 10-2.5 2-7 1.3-9.7-2"/><path d="M94.4 253.2c2 .4 3.8 1.5 5.3 3.2 1.5 1.8 2.4 4 2.5 5.8 0 2-.6 4-2 5.3-1.6 1.3-3.6 1.7-5.6 1.3h-.2V267c.2 0 .3 0 .5.2 1.4.3 3 0 4-1s1.5-2.3 1.5-4c0-1.5-.8-3.2-2-4.7-1.2-1.3-2.7-2.2-4-2.6V253zM89 265.6c-1.4-1.8-2.3-4-2.4-6 0-2 .6-4 2-5.2 1.6-1.3 3.6-1.7 5.6-1.3l.2.2v1.7l-.5-.2c-1.6-.3-3 0-4.2 1-1 1-1.5 2.3-1.5 3.8 0 1.6.8 3.4 2 5 1.3 1.2 2.7 2 4 2.4v1.8c-1.8-.4-3.7-1.5-5.2-3.2"/><path fill-rule="evenodd" clip-rule="evenodd" fill="#EBCFBC" d="M92.8 289.2l.3-.3c8.5-7.5 9.4-20.3 2-28.7-7-8-19-9.3-27.4-3 1 1.7.6 3.8-1 5v.2c.6 1.5.2 3.3-1 4.4l-1.2.6c1.2 1.7 1 4-.7 5.4-.2 0-.4.3-.6.4.3 0 .5.3.7.5 1 1 1.2 2.8.6 4l2 1.3c.5.7.8 1.6.8 2.5 1.4-.2 2.7.3 3.6 1.3.5.8 1 1.5 1 2.3 1 0 2.2.5 3 1.4.4.5.6 1 .8 1.5 1.6-.7 3.5-.4 4.7 1 .4.3.6.6.8 1 0-.2.2-.3.4-.4 1.3-1.2 3.2-1.3 4.7-.5 0-.3.4-.7.7-1 1.7-1.4 4.3-1.3 5.7.4l.4.5"/><path d="M93.5 289.7c-.2 0-.2.2-.3.2-.4 0-1 0-1-.4h-.3c0-.2-.2-.2-.2-.3-.6-.7-1.4-1-2.2-1-.8-.2-1.7 0-2.3.7-.2 0-.3.2-.4.3l-.4.5c-.2.4-.7.5-1 .3-.7-.3-1.4-.4-2-.4-.7 0-1.3.3-1.8.7v-2l1.6-.4c.7 0 1.5 0 2.2.2l.5-.5c1.2-1 2.5-1.3 3.7-1.2 1.2 0 2.3.6 3.2 1.4 3.7-3.5 5.8-8.2 6.2-13 .3-5-1.3-10-4.8-14.2-3.3-3.8-8-6-12.6-6.5v-1.7h.2c5 .5 10 3 13.7 7 3.8 4.5 5.5 10 5.2 15.5-.5 5.5-3 10.7-7.4 14.6m-11.8.7c0 .2-.2.2-.2.3h-.2c0 .2-.2.3-.3.3-.3 0-.8 0-1-.5l-.2-.4s-.2 0-.3-.2c-.5-.6-1-1-1.7-1-.7-.2-1.4 0-2 .2h-.2c-.4.2-1 0-1-.5l-.3-.7-.4-.5-1-.8-1.5-.3c-.4 0-.7-.3-.8-.8 0-.3 0-.6-.2-1l-.6-.7-1.3-1h-1.4c-.6 0-1-.4-1-1 0-.2 0-.6-.2-1 0-.2-.3-.5-.5-.8l-.6-.7c-.4 0-.7-.3-1-.3-.4-.3-.6-.8-.5-1.2.3-.6.4-1.2.3-1.8 0-.5-.4-1-.8-1.6l-.2-.2h-.2c0-.2 0-.3-.2-.4-.2-.4 0-1 .3-1 0-.2.2-.2.2-.3l.2-.2c.6-.5 1-1.2 1-2s0-1.5-.5-2.2c-.3-.5 0-1 .4-1.2.2 0 .4 0 .5-.2.2 0 .3-.2.4-.4.4-.4.8-1 1-1.6v-1.8c-.3-.3-.2-.7 0-1h.2c.5-.5 1-1.2 1-2 0-.6 0-1.4-.4-2-.2-.4 0-.8.3-1 4.4-3.4 9.7-4.7 14.8-4.2v1.7c-4.5-.5-9.2.6-13 3.3.2 1 .2 1.8 0 2.6 0 1-.5 1.8-1.2 2.5.2.8.2 1.6 0 2.4-.3 1-.8 2-1.5 2.5 0 .2-.3.3-.5.4.4.7.5 1.6.4 2.5-.2 1-.7 2.2-1.6 3 .6.7 1 1.5 1 2.3v2h.4l1 1c.4.4.6 1 .8 1.3 0 .4.2.6.3 1 .4 0 1 0 1.3.2.8.3 1.4.8 2 1.4.3.3.5.8.7 1.2 0 .3.2.5.3.7.4 0 1 .2 1.3.4.6.2 1 .6 1.6 1.2l.6.8h2.3c1 .3 2 .8 2.8 1.7.4 0 .7-.2 1-.4v2z"/><path fill-rule="evenodd" clip-rule="evenodd" fill="#D4B39D" d="M87.8 282.5c1.5 1.7 3.8 2 5 1 1.4-1 1.2-3.4-.3-5-1.5-1.8-3.7-2.3-5-1.2-1.3 1-1.2 3.4.3 5.2M73.3 265.8c1.5 1.7 3.8 2.2 5 1 1.4-1 1.2-3.4-.3-5-1.5-1.8-3.7-2.3-5-1-1.3 1-1.2 3.3.3 5"/><path fill-rule="evenodd" clip-rule="evenodd" d="M73 271c.5 1 1.6 1 2.3.3.7-.6.8-1.7.2-2.5-.6-.7-1.7-.8-2.5 0-.7.5-.8 1.6 0 2.3"/><path fill="none" d="M73 271c.5 1 1.6 1 2.3.3.7-.6.8-1.7.2-2.5-.6-.7-1.7-.8-2.5 0-.7.5-.8 1.6 0 2.3z"/><path fill-rule="evenodd" clip-rule="evenodd" d="M81.3 280.8c.6.7 1.7.8 2.4.2.8-.6.8-1.7.2-2.5-.7-.7-1.8-.8-2.5 0-.8.5-.8 1.6-.2 2.3"/><path fill="none" d="M81.3 280.8c.6.7 1.7.8 2.4.2.8-.6.8-1.7.2-2.5-.7-.7-1.8-.8-2.5 0-.8.5-.8 1.6-.2 2.3z"/><path fill-rule="evenodd" clip-rule="evenodd" fill="#C43573" d="M164 223c2.8 3.4 6.2 5.2 8.6 3 2.4-2 3-2.6-2.2-8.6s-5.8-5.5-8.3-3.4c-2.3 2.2-1 5.7 2 9"/><path d="M167.6 225.2l1.4.7c1 .3 2.2.2 3-.6 2-1.7 2.5-2-2.2-7.5l-2.2-2.5V213l3.5 3.8c6 6.7 5 7.3 2.2 10-1.4 1-3 1.3-4.8.7-.3 0-.5-.2-.8-.3v-2zm-3-2.7c1 1 2 2 3 2.7v2c-1.5-.8-3-2-4.3-3.6-1.7-1.8-2.8-3.8-3.2-5.6-.2-1.8.2-3.4 1.6-4.6 2.2-2 3.2-2.8 6-.3v2.5c-2.7-2.7-3.3-2.2-5-1v.2c-.8.7-1 1.8-.8 3 .3 1.4 1.3 3 2.7 4.8"/><path fill-rule="evenodd" clip-rule="evenodd" fill="#FFF" d="M81.7 263.5c3 .5 8.3 7 8.7 10 4.8-7.4-.6-14-8.7-10"/><path d="M87.6 267c1.2 1.4 2.3 3 3 4.4.6-1.4.8-2.8.7-4 0-1-.5-2-1-2.6-.7-.7-1.5-1.2-2.6-1.4v-1.8h.4c1.5.4 2.6 1 3.5 2 .8 1 1.3 2.3 1.5 3.7.2 2-.3 4.3-1.8 6.6l-.7.4c-.4 0-1-.3-1-.8 0-1-.8-2.4-2-3.8V267zm-3.7-3.4l3.5 3.2v3c-.3-.6-.8-1.3-1.3-1.8-1.6-2-3.4-3.4-4.6-3.6-.3 0-.5-.2-.6-.5-.3-.5 0-1 .3-1.2 2.4-1.2 4.5-1.5 6.3-1.2v1.7c-1-.2-2.3 0-3.7.3M86.3 273c0 .5-.2 1-.7 1-.4 0-1-.2-1-.6-.2-1-.6-1.8-1.2-2.5-.5-.7-1-1-1.8-1.3-.4-.2-.7-.6-.6-1 0-.5.6-.8 1-.7 1 .3 2 1 2.7 1.8.8 1 1.3 2 1.6 3.2"/><path fill-rule="evenodd" clip-rule="evenodd" fill="#FFF" d="M125.4 258c-.7-1-.6-2 .2-2.8.7-.6 2-.6 2.6.2.7.8.6 2-.2 2.6-.8.7-2 .6-2.6 0M116.7 247.8c-.7-.7-.6-2 0-2.6 1-.7 2-.6 2.8.2.6.8.6 2-.2 2.6-.8.7-2 .6-2.6-.2M108 237.8c-.7-.8-.7-2 0-2.6 1-.7 2-.6 2.7.2.7.7.6 2 0 2.6-1 .7-2 .6-2.8-.2M136 254.7c0-.3 0-.6.4-.8.5-.5 1.2-.7 1.8-.5l-2.3 1.2M127.5 246.5c-.7-.8-.6-2 .2-2.6.7-.8 2-.7 2.6 0 .7.8.6 2-.2 2.7-.7.7-1.8.6-2.5-.2M118.8 236.5c-.7-.8-.6-2 0-2.6 1-.8 2-.7 2.8 0 .6.8.6 2-.2 2.7-.8.6-2 .6-2.6-.2M138 247c-.7-1-.6-2 .2-2.8.8-.6 2-.6 2.6.2.7.8.6 2-.2 2.6-.7.7-2 .6-2.6 0M129.3 236.8c-.7-.7-.6-2 .2-2.6.8-.7 2-.6 2.6.2.8.8.7 2 0 2.6-1 .7-2 .6-2.7-.2M120.6 226.8c-.7-.8-.6-2 0-2.6 1-.7 2-.6 2.8.2.6.7.6 2-.2 2.6-.8.7-2 .6-2.6-.2M111.8 216.8c-.6-.8-.6-2 .2-2.6s2-.6 2.6 0c.7 1 .6 2 0 2.8-1 .6-2 .6-2.8-.2M140 235.5c-.5-.8-.5-2 .3-2.6.3-.4.8-.6 1.2-.6l1.5 3-.2.3c-.8.7-2 .6-2.7-.2M131.4 225.5c-.7-.8-.6-2 .2-2.6.8-.8 2-.7 2.6 0 .7.8.6 2-.2 2.7-.8.6-2 .6-2.6-.2M122.7 215.5c-.4-.5-.6-1-.4-1.7l3 1.8c-.8.7-2 .6-2.6 0M103.2 259.5c-.6-.8-.6-2 .2-2.6.8-.8 2-.7 2.6 0 .7 1 .6 2 0 2.7-1 .7-2 .6-2.8-.2M94.5 249.5c-.7-.8-.6-2 .2-2.6.8-.8 2-.7 2.6 0 .7.8.6 2-.2 2.7-.7.7-1.8.6-2.5-.2M114 258.2c-.6-.8-.5-2 .2-2.6.8-.7 2-.6 2.7.2.5.7.5 2-.3 2.6-.8.7-2 .6-2.6-.2M105.3 248.2c-.6-.8-.6-2 .2-2.6.8-.7 2-.6 2.6 0 .8 1 .7 2 0 2.8-.8.6-2 .5-2.7-.2M98 235c.6 0 1 .3 1.4.7.7.8.6 2-.2 2.6-.7.7-2 .6-2.6 0L98 235"/><path fill-rule="evenodd" clip-rule="evenodd" fill="#C43573" d="M59.8 289c-2.8-.4-7-1-6.6-4 .3-2.8 1.5-1.4 3-3.3 1.4-2 2.7-5.6 5.2-1.5 2.6 4 3 9.6-1.6 8.8"/><path d="M59.7 289.8h-.2c-.4 0-.8 0-1.2-.2V288H60c.6.2 1 .2 1.4 0 .5 0 .8-.3 1-.7 0-.5.2-1.2 0-2 0-1.4-.7-3-1.7-4.7-.8-1.3-1.3-1.6-1.6-1.3-.2 0-.5.4-.7.8v-2.3c1-.6 2.4-.3 4 2 1 1.8 1.7 3.7 2 5.4 0 1.2 0 2-.4 3-.5.8-1 1.4-2 1.7-.7.2-1.4.3-2.3 0zm-1.4-.2c-3-.5-6.3-1.4-6-4.6.3-2.3 1-2.5 2-3 .3 0 .8-.3 1.2-.8l.7-1c.6-1 1.2-2 2-2.4v2.3c0 .4-.3.7-.5 1l-.8 1.2c-1 1-1.5 1.2-2 1.4-.5.2-.8.3-1 1.6 0 1.7 2 2.3 4.3 2.7v1.6z"/><path fill-rule="evenodd" clip-rule="evenodd" fill="#C43573" d="M61.7 291c0 3 0 7 3 7.2 2.8 0 1.6-1.4 3.7-2.5 2-1.2 5-3 1.4-6-3.8-3-8.4-3.4-8 1.3"/><path d="M66.6 296.2c.2-.4.6-1 1.3-1.3v-.2c1-.4 1.8-1 2.3-1.5.5-.7.5-1.6-1-3l-2.7-1.6V287c1.2.3 2.5 1 3.7 2 2.6 2.3 2.5 4 1.3 5.3-.7 1-1.7 1.5-2.6 2h-.2c-.7.5-1 1-1 1.2-.4.5-.6 1-1.2 1.2v-2.5zm-4-5.2v.3c0 2.5 0 6 2 6 1.2 0 1.4-.2 1.6-.6 0-.2.2-.4.4-.5v2.5c-.5.2-1 .3-2 .3-3.8 0-3.8-4.5-3.8-7.7v-.3c0-1 0-1.8.4-2.5.4-1 1-1.4 2-1.7.8-.3 1.8-.3 2.7 0h.6v2l-1-.4c-.7-.2-1.4-.2-2 0-.3 0-.6.4-.8 1-.2.3-.3 1-.3 1.6z"/><path fill-rule="evenodd" clip-rule="evenodd" fill="#C43573" d="M60.5 291c-1.2-1.5-1-3.7.4-5 1.3-1.2 3.5-1 4.8.4 1.3 1.4 1 3.6-.3 5-1.5 1-3.7 1-5-.5"/><path d="M63.2 284.3h.3c1 0 2 .6 3 1.5.7 1 1 2 1 3 0 1.3-.6 2.3-1.5 3-.8.8-1.8 1.2-2.8 1.2v-1.7c.6 0 1.2-.2 1.7-.7.4-.4.7-1 .8-1.8 0-.6-.2-1.3-.7-2-.3-.4-1-.7-1.7-.8v-1.7zm-3.3 7.2c-1-1-1.2-2-1.2-3.2 0-1 .6-2 1.5-3 .8-.6 2-1 3-1v1.7c-.7 0-1.4.2-2 .7-.4.4-.7 1-.8 1.8 0 .6.2 1.3.7 2 .5.4 1 .7 1.8.8h.2v1.7H63c-1.2 0-2.3-.6-3-1.5"/><path fill-rule="evenodd" clip-rule="evenodd" fill="#FFF" d="M111 227.5c-.7-.8-.6-2 0-2.6 1-.8 2-.7 2.8 0 .6 1 .6 2-.2 2.7-.8.7-2 .6-2.6-.2"/><path d="M95 240c-.2 1-1 1.2-1.7.8 2.3-7.2 1.5-12 .3-15.4-.8-2.3-2.2-4.2-3.7-6-.7-.5-.8-1.6-.3-2.3.5-.6 1.3-.7 2 0 1.7 2 3.3 4.2 4.3 7 1 2.7 1.4 6 .8 9.8 0 1-.4 2.3-.7 3.3 0 1-.5 2-1 3M108.7 264.4c-5 1.2-1.3 1.6-.7 1.7l2.8.7 3 1.2c2.8 1.3 4.7 3.3 6 5.5 1 2.3 1.6 5 1.8 7.7 0 1 1 1.7 1.8 1.7 1-.2 1.8-1 1.7-2 0-3.2-.7-6.3-2.2-9-1.5-3-4-5.5-7.5-7.3-1.2-.5-2-.3-3.2-.7-1-.4-2.2.5-3.3.4"/><path d="M147.3 289.4c.5.8 0 2-.7 2.4-1 .5-2 .2-2.4-.7l-1.6-2.3-2-2.3c-2.4-2.2-5-3.3-7.4-3.7-2.6-.4-5.2 0-7.8.8-1 .3-2-.2-2.2-1.2-.3-1 .2-2 1.2-2.2 3-.8 6.2-1.3 9.3-.8 3.2.4 6.4 1.8 9.3 4.6l2.4 2.7 2 3"/><path fill-rule="evenodd" clip-rule="evenodd" fill="#EBCFBC" d="M118 286.8c.8 1 2 1.8 3 2 0 .7 0 1 .4 1.4.7.5 2.3-.4 3.5-2l1-2.4c.4-1.2.2-2.7-.6-4-1.5-2-4.2-2.6-6.2-1.3-2 1.4-2.5 4.2-1 6.3"/><path d="M121.7 288.3c.2.2.2.4.2.7 0 .2-.2.3 0 .5l.5-.2 1.7-1.6.6-1 .4-1c0-.6.2-1.2 0-1.7 0-.6-.2-1-.5-1.5v-.2c-.7-.8-1.5-1.3-2.4-1.5h-.6V279h1c1.3.4 2.5 1.2 3.4 2.5.5.7.8 1.4 1 2.2 0 .8 0 1.6-.2 2.4 0 .5-.2 1-.5 1.4l-.8 1.3c-.6 1-1.4 1.6-2 2-.7.4-1.3.5-1.8.5v-3zm-3-2c.4.5.7.8 1.2 1 .3.4.7.6 1.2.7.2 0 .4.2.5.3v3c-.3 0-.6-.2-.8-.4-.5-.4-.7-.7-.8-1v-.5c-.5-.2-1-.4-1.3-.7-.7-.4-1.2-1-1.6-1.5-1-1.3-1-2.7-1-4 .3-1.4 1-2.6 2.3-3.5 1-.6 2-1 3-.8v1.7c-.7 0-1.4 0-2 .5-1 .6-1.4 1.4-1.5 2.3-.2 1 0 2 .6 2.8M174.7 295.5c-.8.6-1 1.7-.4 2.5s1.7 1 2.5.4c.7-.6 1.6-1 2.4-1.5 1-.6 2-1 3-1.3 3-1 5.7-1 8-.2 2.6.8 4.8 2.3 6.8 4 .8.7 2 .7 2.5 0 .7-.8.6-2 0-2.6-2.5-2.2-5-4-8.2-5-3-1-6.5-1-10.3.3l-3.4 1.4c-1 .6-2 1-3 1.8"/><path fill-rule="evenodd" clip-rule="evenodd" fill="#B07027" d="M202.2 305.7c-1 .6-2.4.8-3.5.5-.2.6-.5 1-1 1-.8.3-1.8-1.2-2.2-3.2-.2-1-.2-2 0-2.6.2-1.3 1-2.5 2.2-3.3 2.2-1.2 5-.5 6.2 1.6 1.2 2 .4 4.8-1.8 6"/><path d="M201.8 305l-1.4.5h-.5v1.7h.6c.7-.2 1.4-.4 2-.8 1.3-.8 2.2-2 2.6-3.3.3-1.2.2-2.6-.5-4-.8-1-2-2-3.3-2.2-.5-.2-1-.2-1.5-.2v1.7h1c1 .3 1.7.8 2.2 1.6.5 1 .6 1.8.3 2.7-.2 1-.8 1.7-1.7 2.3m-2 .5h-1c-.4-.2-.8 0-1 .5v.5h-.2l-.4-.5c-.4-.5-.7-1.3-1-2.2v-1.2-1l.7-1.6c.2-.4.6-.8 1-1 0 0 .2 0 .2-.2.6-.3 1.2-.4 1.7-.5v-1.7c-1 0-2 .3-2.7.8-.7.4-1.3 1-1.8 1.7l-1 2.3v1.3c0 .5 0 1 .2 1.6.2 1 .6 2 1 2.8.7.8 1.5 1.3 2.3 1.2.4 0 .7-.3 1-.7 0 0 0-.2.2-.3h.7v-1.7zM179 257.6c-.5.8-1.6 1-2.4.5-.8-.5-1-1.6-.5-2.4 5.3-7.8 7.2-15.5 9-22.2.6-2.5 1.2-5 2-7 0-1 1-1.6 2-1.3 1 .4 1.5 1.4 1.2 2.4-.7 2-1.2 4.4-1.8 6.8-1.8 7-3.8 15-9.3 23.4"/><path fill-rule="evenodd" clip-rule="evenodd" fill="#F00" d="M192.6 231c4.2 1 8 .5 8.8-2.6.8-3 1-4-6.7-6-7.8-1.8-8-1-8.8 2s2.3 5.5 6.6 6.5"/><path d="M193.8 230.3c1.7.4 3.3.4 4.5 0 1.2-.3 2-1 2.3-2v-.2c.6-2.3.8-3-6-4.6-.4 0-.6 0-.8-.2v-1.8l1 .3c8.6 2.2 8.4 3 7.4 7-.4 1.7-1.7 2.8-3.4 3.3-1.4.4-3.2.4-5 0v-1.7zm-1-.2c.3.2.6.3 1 .3v1.8c-.5 0-1 0-1.4-.2-2.4-.6-4.5-1.6-5.8-3-1.3-1-2-2.7-1.5-4.5 1-3.6 1.3-4.6 8.8-3v2c-6.3-1.6-6.4-1-7 1.4-.3 1.2 0 2.2 1 3 1 1 2.8 2 5 2.4M161.6 252.5c-.2 1-1 1.6-2 1.4-1-.3-1.6-1.2-1.5-2.2 1-4.4 1.6-9.2 2-14.2.7-6 1-12 1.3-17.3 0-1 .8-1.7 1.8-1.7s2 1 1.8 2c-.2 5.4-.5 11.4-1 17.4-.6 5-1.3 10-2.2 14.5"/><path fill-rule="evenodd" clip-rule="evenodd" fill="#1E396E" d="M163.8 269.7c5.4 1.3 11.3 2.2 13.5 2 5.5-8.4 7-9.6 9.3-15.3-2-4-11.6-9.6-15.5-8.5l-2.5 3.3-.7-4.2c-5.6-3.3-14-2.3-17.7.2-.5 6.2.2 8 1 17.8 2 1.3 7.5 3.3 12.8 4.7"/><path d="M168.2 269.8l3.8.6c2 .3 3.8.4 4.8.4l3.8-5.6c2.3-3.4 3.5-5 5-8.8-1-1.8-3.8-4-6.8-5.6-2.7-1.5-5.5-2.4-7.2-2l-2.5 3c0 .4-.5.5-.8.3v-5.7c.2.2.4.4.4.7l.4 2.2 1.4-1.8.4-.3c2.2-.5 5.6.6 8.8 2.3 3.4 2 6.5 4.4 7.7 6.6.2.2.2.4 0 .7-1.6 4-2.8 6-5.3 9.5l-4 5.8c0 .2-.3.4-.5.4-1.2.2-3.3 0-5.7-.3-1.2 0-2.4-.2-3.6-.5v-1.7zm-4-1l4 1v1.7l-4.6-1c-2.7-.7-5.5-1.6-8-2.4-2.2-.8-4-1.6-5-2.4-.2 0-.3-.3-.4-.6l-.7-7c-.5-4.3-.7-6.5-.2-11 0 0 0-.4.3-.5 2.2-1.5 5.7-2.4 9.4-2.4 3.2 0 6.5.7 9.2 2.3v5.8h-.3c-.2 0-.3-.3-.4-.5l-.6-4c-2.4-1.2-5.2-1.7-8-1.7-3.2 0-6.2.7-8 2-.5 3.8-.2 6 .2 10l.7 6.7c.8.6 2.4 1.3 4.3 2 2.3.8 5 1.7 7.8 2.4"/><path fill-rule="evenodd" clip-rule="evenodd" fill="#01754D" d="M184.3 266.4c-3.8 5.6-8.2 17.7-12.5 23l4.5-.3c1.3 2.5 3 5.7 2.8 10.6-14 7-33 2.2-42-10.6 2.2-4.4 5-6.4 7.4-8l3.8 2.4c-.5-8.2.7-21.2-1-26.3 9.4-3 30.4 2.2 37 9.4"/><path d="M185 267c-1.6 2.4-3.4 6-5.3 10-2 4-4 8.3-6 11.4h.5l2-.2c.4 0 .7.2 1 .5l1.8 4.4c.6 2 1 4 1 6.6 0 .3-.3.6-.6.8-5.8 3-12.4 3.8-18.8 3v-1.7c6 .8 12.2 0 17.7-2.7 0-2-.4-3.8-1-5.3-.3-1.5-1-2.7-1.5-3.7h-1.5c-.6 0-1.4 0-2.4.2-.3 0-.5 0-.7-.2-.3-.3-.4-.8 0-1.2 2.2-2.8 4.6-7.8 7-12.6 1.7-3.6 3.3-7.2 5-9.7-3.5-3.3-10-6-16.7-7.8-2-.5-4-1-6-1.2v-1.7l6.4 1.2c7.4 2 14.5 5 18 9 .2.2.2.6 0 1m-24.4 36.4c-1.6-.2-3-.4-4.6-.8-7.8-2-15-6.5-19.7-13-.2-.4-.2-.8 0-1 1-2.3 2.4-4 3.8-5.3 1.5-1.3 2.8-2.2 4-3h1c.4.4 1 .7 1.6 1l.7.5v-9c0-6.2 0-12.4-1-15.4 0-.5.2-1 .6-1 3.4-1.3 8.4-1.3 13.6-.6v1.7c-4.7-.7-9-.7-12.4.2 1 3.5.8 9.3.7 15 0 3.8-.2 7.6 0 10.7v.5c-.4.3-1 .4-1.3 0l-2-1.2-1.2-.7c-1 .7-2.2 1.5-3.2 2.6-1.2 1-2.3 2.5-3.3 4.3 4.4 6 11 10 18.4 12l4.2.7v1.7z"/><path fill-rule="evenodd" clip-rule="evenodd" fill="#FFF3EB" d="M154.2 307.3c-4.2-1-7-4.5-6-7.8.7-3.3 4.8-5 9-4s7 4.5 6 7.8c-.8 3.3-4.8 5-9 4"/><path d="M155.7 294.3c.6 0 1 0 1.7.3 2.3.6 4.2 1.8 5.4 3.4 1.3 1.6 1.8 3.6 1.3 5.5-.4 2-1.8 3.4-3.7 4.2-1.3.6-3 1-4.6.7v-1.7c1.4.2 2.8 0 4-.5 1.4-.7 2.4-1.7 2.7-3 .4-1.5 0-3-1-4.2-1-1.3-2.5-2.3-4.4-2.8l-1.3-.2v-1.7zm-1.7 14c-2.3-.7-4.2-2-5.4-3.5-1.3-1.7-1.8-3.6-1.3-5.5.5-2 2-3.4 3.8-4.3 1.4-.6 3-.8 4.7-.7v1.7c-1.4 0-2.8 0-4 .6-1.4.6-2.4 1.7-2.8 3-.4 1.5 0 3 1 4 1 1.4 2.5 2.4 4.4 3h1.3v2l-1.7-.4"/><path fill-rule="evenodd" clip-rule="evenodd" fill="#FFF3EB" d="M146 339.8c10.8 2.7 22-4 24.6-14.7 2.7-10.8-4-21.8-14.7-24.6-11-2.7-22 4-24.8 14.8-2.7 10.8 4 22 14.8 24.6"/><path d="M151 339.6c3.5 0 7-1 10-2.8 4.2-2.6 7.4-6.7 8.8-12 1.3-5.2.3-10.4-2.2-14.7-2.6-4-6.7-7.4-12-8.7-1.5-.4-3-.6-4.7-.6V299c1.6 0 3.3.2 5 .6 5.7 1.4 10.3 5 13 9.7 2.8 4.6 3.8 10.3 2.4 16-1.4 5.6-5 10.2-9.6 13-3.3 2-7 3-11 3v-1.7zm-4.8-.6c1.6.4 3 .6 4.7.6v1.7c-1.8 0-3.5-.2-5.3-.7-5.6-1.4-10.2-5-13-9.6-2.7-4.7-3.7-10.4-2.3-16 1.4-5.7 5-10.3 9.7-13 3.3-2 7-3 11-3v1.7c-3.7 0-7 1-10 2.7-4.3 2.6-7.6 6.8-9 12-1.3 5.2-.3 10.4 2.2 14.7 2.6 4.4 6.8 7.6 12 9"/><path fill-rule="evenodd" clip-rule="evenodd" fill="#FFD9BF" d="M162 322c2.3.6 4.4-.3 5-2 .3-1.6-1.2-3.4-3.4-4-2-.5-4.3.4-4.7 2-.5 1.7 1 3.5 3 4M140.7 316.7c2.2.6 4.3-.3 4.7-2 .5-1.7-1-3.5-3.2-4-2.2-.6-4.3.3-4.7 2-.4 1.7 1 3.5 3.2 4"/><path fill-rule="evenodd" clip-rule="evenodd" d="M143.8 322c1 .2 2-.3 2-1.2.4-1-.2-2-1-2.2-1-.2-2 .4-2.2 1.3-.3.8.3 1.8 1.2 2"/><circle fill="none" cx="144.2" cy="320.3" r="1.7"/><path fill-rule="evenodd" clip-rule="evenodd" d="M156.3 325c1 .4 1.8-.2 2-1 .3-1-.3-2-1.2-2.2-.8-.3-1.8.3-2 1.2-.2 1 .3 2 1.3 2"/><circle fill="none" cx="156.7" cy="323.5" r="1.7"/><path fill-rule="evenodd" clip-rule="evenodd" fill="#FF0" d="M129.6 320.8c6 2.2 14 13.8 12.7 21-8.8-2-14.3-13.8-12.7-21"/><path d="M135.8 324.4c1.4 1.4 2.8 3.2 4 5 2.4 4.2 4 8.8 3.3 12.5 0 .3-.4.7-1 .6-2.3-.6-4.4-1.8-6.2-3.3V337c1.7 1.6 3.6 3 5.7 3.7.2-3-1.2-7-3.3-10.4-.7-1.2-1.5-2.3-2.4-3.4v-2.6zm-6-4.4c2 .7 4 2.3 6 4.4v2.5c-1.7-2.3-3.7-4-5.6-5-.4 3.5.7 7.8 3 11.4.8 1.3 1.6 2.5 2.6 3.5v2.3c-1.6-1.4-3-3-4-5-2.7-4.4-4-9.7-3-13.6 0-.5.5-.8 1-.7zM141.8 313c-.3.3-.8.3-1.2 0-.4-.3-.4-.8 0-1.2 1.5-1.8 3.6-3 6-3.6 2.2-.5 4.7-.5 7 0 2.4.6 4.6 1.7 6.4 3.2 2 1.6 3.4 3.8 4 6.3 0 .5-.2 1-.6 1-.5 0-1 0-1-.6-.6-2-1.8-4-3.5-5.3-1.7-1.3-3.7-2.3-5.8-2.8-2-.6-4.2-.6-6.2 0-2 .4-4 1.4-5.2 3"/><path fill-rule="evenodd" clip-rule="evenodd" fill="#FF0" d="M171.6 327c-9.3-3.6-27.8 4.8-32.5 13.5 11.8 5.5 30 1.6 32.6-13.6"/><path d="M170.6 327.5c-4-1.2-9.7-.3-15 1.8v-1.8c5.8-2.2 12-3 16.3-1.4.2.3.5.6.4 1-.3 2-.8 3.6-1.6 5.2-2.2 4.6-6 7.8-10.6 9.7-1.5.5-3 1-4.7 1.2v-1.7c1.4-.3 2.7-.7 4-1.2 4.2-1.7 7.8-4.6 9.8-8.8.6-1.3 1-2.6 1.3-4m-15 1.8c-.5 0-1 .3-1.3.4-6 2.5-11.4 6.4-14 10.4 1.8.8 3.6 1.4 5.5 1.7 3.2.5 6.5.4 9.7-.2v1.7c-3.3.7-6.7.7-10 .2-2.3-.4-4.6-1-6.7-2-.5-.4-.6-1-.4-1.3 2.4-4.5 8.6-9 15.3-11.8l1.8-.7v1.8z"/><path fill-rule="evenodd" clip-rule="evenodd" fill="#F00" d="M157.6 222c-4.3-1-7.4-3-6.6-6.3.8-3 1-4 8.7-2 7.8 2 7.5 2.8 6.7 6-.8 3-4.6 3.5-8.8 2.4"/><path d="M158.8 212.6l1 .3c8.6 2 8.4 3 7.5 6.8-.5 1.8-1.8 3-3.5 3.4-1.4.4-3 .4-5 0v-1.7c1.7.4 3.3.4 4.6 0 1-.3 2-1 2.2-2v-.2c.6-2.4.8-3-6-4.7-.4 0-.6 0-.8-.2v-1.8zm-1.4 10.4c-2.4-.6-4.5-1.6-5.8-3-1.3-1-2-2.7-1.4-4.5 1-3.6 1-4.6 8.6-3v2c-6.2-1.6-6.4-1-7 1.4-.3 1 0 2 1 3s3 1.8 5 2.3l1 .2v1.8c-.5 0-1-.2-1.4-.3M155.7 316.4c.3.3.4.8 0 1.2-.3.3-.8.3-1.2 0-.6-.6-1.5-1-2.3-1.3-.8-.3-1.5-.3-2.2 0-.5 0-1 0-1-.5-.3-.5 0-1 .4-1 1-.5 2.2-.5 3.2-.2 1.2.3 2.2 1 3 1.8"/><path fill-rule="evenodd" clip-rule="evenodd" fill="#B4DECF" d="M149 280.2v-9c9.2 1 18-3.3 22.8-10.8 3 1 6 2.3 8 3.7-6.2 10.8-18.2 17.2-30.8 16.2"/><path d="M294.2 225c.7 1 1.8 1 2.6.3.7-.7.7-1.8 0-2.5l-1.7-2.3c-.4-1-1-1.8-1.4-2.7-1.3-3-1.5-5.7-1-8.2.5-2.5 1.7-5 3.3-7 .5-1 .3-2-.5-2.6-.8-.6-2-.4-2.5.4-1.8 2.6-3.3 5.5-4 8.6-.6 3-.3 6.6 1.4 10.2.6 1.2 1 2.3 1.8 3.2.6 1 1.3 2 2 2.7"/><path fill-rule="evenodd" clip-rule="evenodd" fill="#EBCFBC" d="M301.4 196.7c.8 1 1 2.3 1 3.5.6 0 1 .3 1 .7.4.8-1 2-3 2.5-1 .3-1.8.4-2.5.4-1.4-.2-2.7-1-3.6-2-1.5-2-1.2-5 .7-6.4 2-1.4 5-1 6.4 1"/><path d="M300.7 197.2c.4.4.6 1 .7 1.4 0 .5.2 1 0 1.4 0 .5.3 1 .8 1h.5v.2s0 .2-.4.5c-.5.4-1.2.8-2 1l-1.3.3h-.5v1.7h.7l1.5-.3c1-.4 2-1 2.7-1.4.8-.7 1.2-1.6 1-2.3-.2-.4-.4-.8-.8-1l-.4-.2c0-.4 0-1-.2-1.4 0-.5-.5-1.2-1-1.8-.8-1.2-2-2-3.4-2.2v1.8c.8 0 1.6.6 2 1.4m-2 5.8h-.6c-.6 0-1-.2-1.6-.4-.5-.3-1-.6-1.3-1v-.2c-.6-.8-.8-1.8-.7-2.7 0-1 .6-1.8 1.3-2.3 1-.7 1.8-.8 2.7-.7h.2V194c-1.3-.2-2.7 0-4 1-1 .8-1.7 2-2 3.5 0 1.3.3 2.8 1.2 4 .5.7 1.2 1.2 1.8 1.6.8.5 1.6.7 2.3.7h.7V203zM247.2 222.6c1 .2 1.6 1 1.4 2-.2 1-1.2 1.7-2 1.5-10-2-17-6.2-23.2-10l-6-3.6c-1-.4-1.3-1.5-.8-2.4.4-.8 1.5-1.2 2.4-.7 2 1 4 2.3 6.3 3.7 6 3.6 12.7 7.7 22 9.6"/><path fill-rule="evenodd" clip-rule="evenodd" fill="#3764BD" d="M218.2 216.6c-2.3 3.8-5.3 6-8 4.4-3-1.7-3.6-2 .6-9 4-6.8 4.8-6.3 7.6-4.6 2.7 1.7 2 5.4-.2 9.2"/><path d="M219 217c-1.2 2.3-2.8 4-4.4 5-.2 0-.4 0-.5.2v-2.5c1.2-.8 2.3-2 3.3-3.7 1-1.8 1.8-3.6 1.8-5 0-1.2-.3-2-1.2-2.7-1.5-1-2-1.3-3.7.7v-3.2c1.7-1.3 2.8-.6 5 .6 1.6 1 2.3 2.7 2.2 4.5 0 1.8-.8 4-2 6m-5 5.2c-1.6.6-3.2.6-4.7-.3-3.5-2.2-4.3-2.7.4-10.4 1.7-3.2 3-5 4-5.8v3.2l-2.3 3.7c-3.6 6-3 6.2-1 7.4 1 .7 2 .6 3 0 0 0 .2 0 .4-.3v2.5zM257.3 207.2c.8.6 1 1.7.5 2.5-.6.8-1.7 1-2.5.5-3.8-2.6-7.7-5.7-11.6-9-4.6-3.7-9.2-7.8-13.2-11.5-.7-.7-.7-1.8 0-2.5.6-.8 1.8-.8 2.5 0 4 3.6 8.4 7.6 13 11.4 3.8 3 7.6 6 11.3 8.6"/><path fill-rule="evenodd" clip-rule="evenodd" fill="#C74D18" d="M265.8 224c-2.8 4.7-6.4 9.4-8.3 10.8-9.7-2-11.5-2-17.2-4.3-1.3-4.3 1.5-15 5-17l4.3.7-2.5-3.5c1.7-6.3 8.4-11.6 12.8-12.4 4.8 4 5.4 5.7 11.8 13.3-.4 2.3-3 7.7-5.8 12.4"/><path d="M266.5 224.4c-1.4 2.4-3 5-4.6 7-1.6 1.8-3 3.4-4 4-.2.2-.4.3-.7.2l-1.6-.3v-1.8c.5 0 1 .3 1.6.4 1-.8 2-2 3.2-3.7 1.5-2 3-4.4 4.6-6.8 1.5-2.3 3-5 4-7l1.7-4.6-4.3-5.4c-2.5-3.2-3.8-4.8-6.8-7.4-1.2.3-2.5 1-4 1.8v-2c1.5-.8 2.8-1.3 4-1.5.3 0 .6 0 .8.2 3.4 2.8 4.7 4.5 7.4 8 1 1.4 2.5 3 4.4 5.4.2.3.3.6.2.8-.2 1.2-1 3-2 5.3-1 2.4-2.4 5-4 7.4m-10.7 11c-2-.6-3.8-1-5.3-1.2-4.2-.8-6.4-1.2-10.5-3-.3 0-.5-.2-.5-.5-.8-2.3-.3-6.4.8-10 1-3.6 2.7-6.8 4.7-8h.5l2.3.4-1.4-1.8v-.7c.7-3 2.6-6 5-8 1.3-1.5 2.8-2.7 4.3-3.5v2c-1 .7-2.2 1.5-3.2 2.6-2 2-3.7 4.3-4.4 7l2.3 3c.2.2.2.5.2.7 0 .5-.5.8-1 .7l-4-.5c-1.4 1-2.7 3.6-3.6 6.6-1 3.3-1.5 6.8-1 9 3.7 1.4 5.7 1.8 9.7 2.6l5 1v1.7z"/><path fill-rule="evenodd" clip-rule="evenodd" fill="#1E396E" d="M249 236c6.6 1.4 18.2 7 25 7.6l-3.4 3c.8 2.6 2 6 5.4 9.4 15-5 25-21.6 22.5-37.2-4.6-1.5-8.2-1-11-.4l-1 4.4c-5.3-6.3-15.3-14.7-17.7-19.5-9 4.3-20 23-19.8 32.8"/><path d="M274 242.8c.5 0 1 .4.8 1 0 0 0 .3-.3.5-.2 0-.4.3-.6.4v-2zm0 9.3v3l1.4 1.6c.2.2.5.3.8.2 7.7-2.6 14.2-8 18.3-15 4.2-7 6-15 4.8-23 0-.5-.3-.7-.6-.8-2.4-.8-4.5-1-6.4-1-1.8 0-3.4.3-4.8.6-.4 0-.6.3-.7.6l-.5 2c0 .2 0 .5-.2.7l-6.2-6.5-6-6v2.5l4.8 4.7c2.7 2.6 5.3 5.3 7.3 7.6l.4.3c.5 0 1-.2 1-.7l.6-2.4c0-.5.2-1 .3-1.4 1.2-.3 2.5-.5 4-.5 1.6 0 3.4.2 5.4.8 1 7.4-.7 15-4.6 21.4-3.8 6.4-9.7 11.5-16.8 14-1-1-1.7-2-2.3-3m-24.2-16.6c3 .6 6.6 2 10.4 3.3 5 1.8 10 3.6 13.7 4v2l-1.3 1-1 1c.2 1.2.6 2.5 1.3 4l1 1.4v3c-1-1.2-2-2.5-2.5-3.7-.8-1.6-1.3-3-1.7-4.5 0-.3 0-.7.2-1 .5-.3 1-.8 1.5-1.3.2 0 .3-.2.5-.3-3.6-.8-8-2.4-12.4-4-4-1.3-8-2.7-10.8-3.3-.4-.2-.7-.5-.7-1 0-5 2.8-12.3 6.7-18.8 4-6.6 9-12.4 13.7-14.6.4-.2 1 0 1.2.4.7 1.5 2.3 3.4 4.3 5.5v2.5c-2.4-2.4-4.4-4.6-5.5-6.5-4 2.3-8.7 7.6-12.3 13.6-3.7 6-6.3 12.6-6.4 17.4"/><path fill-rule="evenodd" clip-rule="evenodd" fill="#FFF3EB" d="M299 244c2.4-3.7 1.8-8-1-10-3-1.7-7 0-9.4 3.6-2.2 3.7-1.7 8 1.2 10 3 1.6 7 0 9.3-3.6"/><path d="M298.4 243.5c1-1.6 1.4-3.5 1.2-5-.2-1.6-1-3-2-3.7-1.2-.6-2.4-.7-3.7-.4v-1.7c1.4-.3 3 0 4.4.7 1.7 1 2.7 2.8 3 4.8.2 2-.3 4.2-1.5 6.2-1.3 2-3 3.5-5 4.2l-1 .3V247l.4-.2c1.6-.6 3-1.8 4-3.5m-4.5-9h-.7c-1.5.7-3 2-4 3.5-1 1.7-1.4 3.6-1.2 5.2.3 1.5 1 2.8 2.3 3.5 1 .7 2.3.8 3.6.5v1.7c-1.7.2-3.3 0-4.6-.8-1.7-1-2.7-2.8-3-4.8-.2-2 .3-4.2 1.5-6.2 1-2 3-3.5 4.7-4.2l1.2-.3v1.7z"/><path fill-rule="evenodd" clip-rule="evenodd" fill="#FFF3EB" d="M327 262.7c5.7-9.6 2.7-22-7-27.8-9.5-6-22-3-27.8 6.7-5.8 9.6-2.7 22 7 28 9.4 5.7 22 2.6 27.7-7"/><path d="M326.2 262.3c2.8-4.6 3.4-10 2.3-14.7-1.2-5-4.2-9.2-8.8-12-3.2-2-6.7-2.8-10-2.8V231c3.6 0 7.4 1 10.8 3 5 3.2 8.3 8 9.6 13.2 1.4 5.2.7 11-2.3 16s-7.8 8.3-13 9.5c-1.7.5-3.4.7-5 .7v-1.7c1.4 0 3-.2 4.5-.6 4.8-1 9.2-4 12-8.7m-16.6-29.5c-1.6 0-3 .2-4.6.5-5 1.2-9.3 4.2-12 8.8-2.8 4.7-3.5 10-2.3 14.8 1.2 5 4.2 9.2 8.8 12 3.2 2 6.6 3 10 3v1.6c-3.7 0-7.4-1-11-3-5-3-8.2-8-9.5-13.2-1.2-5.2-.5-11 2.5-16s7.8-8.2 13-9.5c1.7-.4 3.4-.6 5-.6v1.8z"/><path fill-rule="evenodd" clip-rule="evenodd" fill="#FFD9BF" d="M316 243c1.2-2 1-4-.5-5-1.4-1-3.6 0-4.8 1.8-1 2-1 4.3.6 5.2 1.5 1 3.6 0 4.8-2"/><path fill-rule="evenodd" clip-rule="evenodd" d="M309.3 259.6c.5-1 .3-2-.6-2.4-.8-.5-2-.3-2.4.6-.5.8-.2 1.8.6 2.3.8.6 1.8.4 2.3-.4"/><path fill="none" d="M309.3 259.6c.5-1 .3-2-.6-2.4-.8-.5-2-.3-2.4.6-.5.8-.2 1.8.6 2.3.8.6 1.8.4 2.3-.4z"/><path fill-rule="evenodd" clip-rule="evenodd" d="M316 248.6c.5-.8.2-2-.6-2.4-.8-.5-2-.2-2.4.6-.5.8-.2 2 .6 2.4.8.5 2 .2 2.4-.6"/><circle fill="none" cx="314.5" cy="247.7" r="1.7"/><path fill-rule="evenodd" clip-rule="evenodd" fill="#FFD9BF" d="M304.5 262c1-2 1-4.4-.6-5.3-1.6-1-3.7 0-5 2-1 2-.8 4 .7 5 1.4 1 3.6 0 4.8-1.8"/><path d="M299.6 255.5c.3.4.2 1-.2 1.2-.4.3-1 .2-1.2-.2-1-1.6-1.6-3.5-1.6-5.4 0-1.8.6-3.7 1.5-5.4 1-1.7 2.4-3.3 4-4.4 2-1.4 4.2-2.3 6.8-2.2.4 0 .8.3.8.8s-.4 1-1 1c-2-.2-4 .6-5.6 1.8-1.4 1-2.6 2.3-3.4 3.8-.8 1.5-1.3 3-1.3 4.7 0 1.7.4 3.2 1.3 4.5"/><path fill-rule="evenodd" clip-rule="evenodd" fill="#C74D18" d="M301.8 270.5c3.8-5.3 17.3-9.3 23.7-6-4.5 7.7-17.4 9.6-23.7 6"/><path d="M313.7 263c4.5-1 9-1 12.2.6.4.3.6.8.4 1.3-2.4 3.8-6.6 6.3-11 7.4l-1.7.4v-2c.4 0 .8 0 1.2-.2 3.6-1 7-2.8 9-5.7-2.7-1-6.5-1-10.3 0v-2zm-12.7 7c2-3 7-5.5 12-6.8.2 0 .5 0 .7-.2v2h-.3c-4 1-8 3-10 5.2 2.7 1.2 6.6 1.4 10.3.7v1.8c-4.5.8-9.2.3-12.4-1.5-.4-.3-.6-1-.3-1.3z"/><path fill-rule="evenodd" clip-rule="evenodd" fill="#C74D18" d="M320.6 232.8c-6.5 10.4-7.3 35.8-3.5 40.6 16-6 21-30.8 3.6-40.6"/><path d="M323.2 268.5c1.8-1.6 3.2-3.5 4.4-5.6 1.6-3 2.6-6 3-9.3.2-3.2 0-6.5-1.2-9.6-1.2-3-3.2-6-6.2-8.3v-2.4c4 2.7 6.5 6.3 8 10.2 1.2 3.3 1.6 7 1.2 10.4-.3 3.4-1.4 6.8-3 9.8-1.7 2.8-3.7 5.3-6.2 7.2v-2.5zM321 234c-2.7 5-4.3 12.3-5 19.5-.6 8 0 15.8 1.5 18.7 2-1 4-2 5.7-3.7v2.5c-1.7 1.3-3.6 2.4-5.7 3.2-.4.2-1 0-1-.3-2.3-2.8-3-11.5-2.3-20.7.7-7.8 2.5-16 5.6-21 .3-.4 1-.6 1.3-.3l2.2 1.3v2.4L321 234"/><path fill-rule="evenodd" clip-rule="evenodd" fill="#3764BD" d="M237 185.7c2-3.7 2.8-7.5 0-9.2-2.7-1.6-3.4-2-7.5 4.8-4.2 6.8-3.5 7.2-.7 9 2.8 1.5 5.8-.8 8-4.6"/><path d="M236 185.2c1-2 1.8-3.7 1.8-5 0-1.3-.4-2.2-1.3-2.8-1.5-1-2-1.3-3.7.8V175c1.6-1.3 2.7-.6 4.8.6 1.7 1 2.4 2.6 2.3 4.5 0 2-1 4.2-2.2 6.3-1.3 2-3 4-4.5 4.8l-.5.3V189c1-1 2.2-2.2 3-3.8m-3-7c-.7.8-1.4 2-2.4 3.6-3.6 6-3 6.2-1 7.4 1 .6 2 .5 3 0l.4-.3v2.3c-1.5.7-3 .7-4.6-.2-3.5-2-4.3-2.6.4-10.3 1.8-3 3-5 4.2-5.7v3.2z"/><path fill-rule="evenodd" clip-rule="evenodd" fill="#6C8FD4" d="M255.3 237c1.6-9.2 9.3-22 16.8-28l-2.5-3.2c-8 5.8-16.8 20.3-18 30l3.8 1.3"/><path d="M308.3 246.7c.4-.2 1 0 1.2.3.2.4 0 1-.4 1.2-.6.4-1.4 1-1.8 1.8-.5.7-.7 1.4-.7 2 0 .6-.3 1-.8 1-.4 0-.8-.3-1-.8 0-1 .4-2 1-3 .7-1 1.6-2 2.6-2.5M274.4 249.6c1-.3 2 .2 2.3 1 .3 1-.2 2-1 2.4l-2.7 1-2.6 1.8c-2.6 2-4 4.2-4.8 6.6-.8 2.5-1 5.2-.5 8 .2 1-.5 1.7-1.5 2-1 0-1.8-.7-2-1.7-.3-3-.3-6.3.7-9.4 1-3 2.8-6 6-8.3 1-.8 2-1.5 3-2 1-.6 2.2-1 3.2-1.4"/><path fill-rule="evenodd" clip-rule="evenodd" fill="#B07027" d="M267 278c1.3-.5 2.2-1.5 2.6-2.6.6.2 1 .2 1.4 0 .6-.7 0-2.4-1.4-4l-2-1.4c-1.3-.5-2.8-.6-4 0-2.4 1-3.5 3.7-2.5 6 1 2 3.8 3 6 2"/><path d="M266.8 277.2c.5-.2 1-.5 1.2-.8.4-.4.6-.8.8-1.3.2-.3.6-.5 1-.4h.6v-.6l-1.4-2-1-.7-1-.5c-.2-.2-.6-.3-1-.3v-1.7c.6 0 1.3.2 1.8.5.4 0 .8.4 1.2.6.4.2.8.6 1.2 1 .8.8 1.4 1.7 1.6 2.4.4 1 .4 2-.2 2.5-.3.2-.7.4-1 .4h-.5c0 .4-.4.8-.8 1-.4.6-1 1-1.7 1.4l-1.5.4v-1.7c.3 0 .5-.2.8-.3m-.8-6.7h-.5c-.5 0-1 0-1.6.3h-.2c-1 .5-1.6 1.2-2 2-.3 1-.3 1.8 0 2.7.5 1 1.3 1.6 2 2h2.2v1.7c-1 .2-1.8 0-2.6-.2-1.3-.5-2.4-1.4-3-2.7-.7-1.3-.6-2.8 0-4 .4-1.3 1.4-2.4 2.7-3 1-.4 1.7-.6 2.5-.6h.5v1.8zM225 293c.8.5 1 1.6.6 2.4-.5 1-1.6 1.2-2.4.7-.8-.4-1.7-.8-2.6-1-1-.5-2-.8-3-1-3-.7-5.8-.4-8 .6-2.5 1-4.6 2.8-6.4 4.8-.7.7-1.8.8-2.5 0-.8-.5-.8-1.7-.2-2.4 2.2-2.3 4.7-4.4 7.6-5.6 3-1.3 6.4-1.8 10.4-1 1.2.4 2.4.7 3.5 1.2l3 1.4"/><path d="M240.7 289.8c-.2 1 .5 2 1.6 2.2 1 .2 2.3-.3 2.5-1.3l1-2.7c.5-1 1-1.8 1.7-2.7 2-2.7 4.4-4.4 7.2-5.3 2.8-1 6-1.2 9.2-1 1 0 2-.8 2-1.7 0-1-.8-2-2-2-3.8 0-7.5.2-11 1.4s-6.6 3.3-9 6.7c-1 1-1.5 2-2 3.2-.5 1-1 2-1.3 3.2M216.3 254.7c.5.8 0 2-.7 2.4-1 .5-2 .2-2.4-.7-1.5-2.8-4-5.7-6.5-8.4l-4.2-5.2-4-5.8c-1.3-2.2-2.8-4.4-4.2-6.4-.6-.8-.4-2 .3-2.5.8-.5 2-.3 2.5.5 1.7 2 3 4.3 4.6 6.6 1.3 2 2.5 4 3.8 5.7 1 1.5 2.5 3.2 4 5 2.5 2.7 5.2 5.8 7 9M227 246.4c1 .6 1 1.7.4 2.5-.7.6-1.8.7-2.5 0-3-2.4-5-4.3-6-6.8-.8-2.5-.6-5.3.6-9.4l.2-.5c1-4 2.2-7.5 1.8-9.2 0-.5-.7-.8-2.3-.4-1 .2-2-.4-2-1.4-.3-1 .3-2 1.3-2 4-1 6 .4 6.5 3 .7 2.8-.5 6.8-2 11.2v.4c-1 3.3-1.2 5.4-.5 7.2.6 1.7 2.2 3.3 4.6 5.4"/><path fill-rule="evenodd" clip-rule="evenodd" fill="#DD5377" d="M214 221.8c-3-2.3-5-5.2-3-7.5 1.6-2.3 2-3 7.6 1.4 5.8 4.3 5.2 4.8 3.5 7-1.6 2.3-4.8 1.4-8-1"/><path d="M216.7 213l2.6 1.8c6.5 5 6 5.6 3.8 8.5-1 1.6-2.8 2-4.6 1.8-.5 0-1-.2-1.7-.4v-2.4c.7.4 1.4.6 2 .7 1 0 2 0 2.6-1 1.2-1.5 1.4-2-3.3-5.5-.5-.3-1-.6-1.3-1V213zm-3.3 9.7c-1.8-1.4-3.2-3-4-4.5-.5-1.5-.5-3 .6-4.5v-.2c2-2.4 2.6-3.3 6.7-.6v2.6c-3.6-2.5-4-2-5-.8v.2c-.5.7-.5 1.5-.2 2.4.5 1.2 1.7 2.4 3.2 3.5l2 1.2v2.4c-1-.5-2.2-1-3.3-2z"/><path fill-rule="evenodd" clip-rule="evenodd" fill="#DD5377" d="M192.5 234.3c-4 2-7.8 2-9-.8-1.5-3-2-3.7 5.4-7 7.2-3.4 7.5-2.6 8.8.3 1.4 3-1.3 5.7-5.3 7.5"/><path d="M193 235.3l-2.5 1V234c.5 0 1-.4 1.6-.6 2-1 3.6-2 4.5-3.2.6-1 .8-2 .4-3-1-2-1.3-2.6-6.5-.2v-2.4c6.3-2.7 6.7-1.6 8.3 1.7.8 2 .5 3.5-.6 5-1 1.6-3 3-5.2 4m-2.5 1c-1.4.4-2.8.6-4 .4-1.8 0-3.3-1-4-2.8-1.8-3.8-2.2-4.7 6-8.5l2-1v2.4c-.4 0-.8.3-1 .4-6.4 3-6.2 3.5-5.2 5.6.5 1 1.4 1.5 2.5 1.6 1 0 2.3 0 3.7-.6v2.3z"/><path fill-rule="evenodd" clip-rule="evenodd" fill="#C43573" d="M195.8 263.7c12.2 21.3 37 38 49.7 44.8-4.4-13.3-2-42.3 2.7-67-20.5-1.8-40.7 6.2-52.4 22.2"/><path d="M222 291.7c8 6.5 16 11.7 22 15-1.5-6.2-2-15-1.6-25 .6-12.3 2.4-26.5 4.8-39.5-8.7-.6-17.3.6-25.2 3.4v-1.8c8.2-3 17.2-4 26.2-3.2h.2c.5 0 .8.6.7 1-2.5 13.2-4.3 27.6-5 40.2-.3 11 .3 20.4 2.3 26.4v.7c-.3.3-.8.5-1.2.2-5.8-3.2-14.3-8.5-23-15.4v-2zm-25.2-28c5 8.5 12 16.3 19.3 23l6 5v2c-2.4-1.7-4.7-3.7-7-5.8-7.7-7-15-15-20-24v-.8c6-8 14-14 23-18l4-1.4v1.8l-3.3 1.2c-8.7 3.7-16.3 9.4-22 17"/><path fill-rule="evenodd" clip-rule="evenodd" fill="#4D1F0B" d="M228.3 341c-2.4 1-5.3-.3-6.6-3-.8-1.6-.6-3.5.2-5l-.2-.3c-1.3-2.6-.3-5.7 2-6.8 1-.5 2-.6 2.8-.4-.2-2 .8-4.2 2.7-5 2.4-1 5.4 0 6.6 2.8v.4c.5-.6 1-1 2-1.5 2.3-1 5.3 0 6.5 2.8.5 1 .6 2 .5 3 .6.6 1 1.2 1.4 2 1.2 2.6.2 5.7-2.2 6.8l-1.2.3c-.4 1-1.2 2-2.2 2.4-.7.3-1.5.5-2.3.4-.2 1.6-1 3-2.6 3.6-2.5 1.2-5.5 0-6.7-2.8v-.2l-1 .5"/><path d="M234 319.8c1 .5 1.7 1.2 2.3 2l1.2-.6c1.5-.7 3-.6 4.5 0 1.4.6 2.6 1.7 3.4 3.3.2.5.4 1 .5 1.7v1.2l.5.7.7 1.3c.7 1.5.8 3.2.4 4.7-.5 1.5-1.5 2.7-3 3.4l-.7.3h-.3l-1 1.2c-.4.4-1 .7-1.5 1l-1.3.4h-.7c-.2.8-.5 1.4-1 2-.4.6-1 1.2-2 1.6-.7.4-1.5.5-2.3.5v-2c.5 0 1 0 1.5-.2.6-.2 1-.6 1.4-1l.6-1.8c0-.6.5-1 1-1h1c.2 0 .5 0 .8-.2l1-.7.8-1c0-.4.3-.6.7-.6l.4-.2h.4c1-.6 1.6-1.4 2-2.4.3-1 .2-2.2-.3-3.3 0-.2-.3-.5-.5-.8l-.6-.7c-.2-.2-.4-.5-.3-.8v-1.2c0-.4-.2-.8-.4-1.2-.5-1.2-1.3-2-2.3-2.4-1-.5-2-.5-3 0-.3 0-.6.2-.8.4l-.6.7-.6.5c-.5 0-1 0-1.2-.6v-.3-.2l-1-1.4V320zm-5.3 21.7c-1.4.7-3 .6-4.5 0-1.4-.6-2.6-1.7-3.3-3.3-.6-1-.8-2-.7-3 0-1 .2-1.7.5-2.4-.6-1.6-.7-3.2-.2-4.6.4-1.5 1.5-2.7 3-3.4.4-.3 1-.4 1.5-.5h.7c0-1 .3-1.7.7-2.4.5-1.2 1.4-2 2.5-2.5 1.4-.7 3-.7 4.4 0 .2 0 .4 0 .6.3v2.3l-1.3-.8c-1-.4-2-.5-3 0-.7.3-1.3 1-1.7 1.6-.3.7-.5 1.5-.4 2.4v.3c0 .5-.6.8-1 .7h-1.2c-.4 0-.7 0-1 .3-1 .4-1.7 1.3-2 2.3-.3 1-.3 2.2.2 3.3v.2c.3.4.3.8 0 1l-.5 2c0 .8.3 1.5.6 2.2.5 1 1.4 2 2.4 2.4 1 .4 2 .4 3 0 0 0 .2 0 .3-.2 0 0 .2 0 .3-.2h.2c.5-.3 1 0 1.3.4l.2.2c.5 1 1.3 2 2.3 2.3.5.2 1 .3 1.6.3v2c-.7 0-1.5-.2-2.2-.5-1.2-.4-2.3-1.3-3-2.5"/><path fill-rule="evenodd" clip-rule="evenodd" fill="#4D1F0B" d="M274 318c2.4-1 3.4-4.2 2-7-.7-1.6-2.2-2.7-3.8-3v-.3c-1.4-2.7-4.3-4-6.8-2.8-.8.3-1.5 1-2 1.7-1.4-1.5-3.6-2-5.5-1.2-2.5 1-3.5 4.2-2.2 6.8 0 .2 0 .3.2.5-.8 0-1.6 0-2.4.3-2.4 1.3-3.4 4.3-2 7 .3 1 1 1.7 1.8 2.3 0 .7.2 1.5.5 2.2 1.2 2.7 4 4 6.5 2.8.4 0 .8-.4 1-.6 1 .3 2.2.2 3.2-.2.8-.4 1.4-1 1.8-1.5 1.4 1 3 1 4.5.4 2.4-1 3.4-4.2 2.2-7h-.2l1-.4"/><path d="M273.8 317.4c1-.5 1.7-1.3 2-2.3.3-1 .2-2-.3-3.2-.3-.7-.8-1.3-1.3-1.8-.6-.4-1.3-.7-2-.8-.3 0-.5-.3-.6-.6v-.2c-.7-1.2-1.5-2-2.5-2.4-1-.4-2-.5-3 0-.3 0-.6.3-.8.6l-.7.8c0 .2-.3.3-.4.4V305l1.3-.7c1.5-.7 3-.7 4.5 0 1.4.5 2.6 1.6 3.3 3 1 .3 1.7.7 2.3 1.3.8.6 1.5 1.4 2 2.4.7 1.5.7 3.2.3 4.7-.5 1.5-1.5 2.7-3 3.4.4 1.4.4 2.8 0 4-.5 1.6-1.5 2.8-3 3.5-.8.4-1.8.5-2.7.5-.7 0-1.4-.3-2-.5l-.4.3-1.2.8-1.3.4v-2h.6l.8-.6.6-.7c.3-.4 1-.5 1.3-.2.5.3 1.2.5 1.8.6.7 0 1.3 0 1.8-.2 1-.5 1.7-1.3 2-2.3.3-1 .3-2.2-.3-3.3 0-.2 0 0 0 0v-.2c-.3-.5 0-1 .4-1.3l.5-.2h.3m-9.7-9.7h-.8l-.2-.2c-.6-.7-1.4-1-2.2-1.2-.7-.2-1.5 0-2.2.2-1 .4-1.7 1.3-2 2.3-.3 1-.2 2 .3 3.2v.2c.3.6 0 1.2-.3 1.4-.2 0-.4.2-.6 0-.2 0-.5 0-.8.2-.3 0-.6 0-1 .2-1 .5-1.5 1.3-2 2.3-.2 1 0 2.2.4 3.3.2.4.4.8.7 1 .2.5.5.7 1 1 .2 0 .3.4.3.7v1l.4 1c.5 1 1.4 1.8 2.4 2.2 1 .4 2 .5 3 0 0 0 .3 0 .4-.2.2 0 .3-.2.4-.3.3-.2.6-.3 1-.2.3.2.8.2 1.2.2h.7v1.8h-2-.2l-.6.5c-1.5.6-3 .6-4.5 0-1.4-.6-2.7-1.8-3.4-3.3l-.4-1.3-.3-1-1-1c-.3-.3-.6-.8-.8-1.4-.8-1.5-1-3.2-.5-4.7s1.5-2.8 3-3.5l1.3-.4c-.4-1.2-.4-2.5 0-3.7.5-1.5 1.5-2.7 3-3.4 1-.6 2.3-.7 3.4-.5 1 .2 1.6.5 2.3 1 .2 0 .3-.2.4-.3v2.6z"/><path fill-rule="evenodd" clip-rule="evenodd" fill="#4D1F0B" d="M239 300c25.6-11.8 39 24 15.8 34.5-23 10.7-41.7-22.6-16-34.5"/><path d="M246.6 297c5.8-.8 10.7 1 14.3 4.3 2 1.8 3.6 4 4.8 6.7 1 2.5 1.7 5.3 1.8 8 .2 7.5-3.5 15.2-12.4 19.3-3 1.4-6 2-8.6 2.2v-1.8c2.5 0 5-.7 7.8-2 8.2-3.7 11.6-10.8 11.4-17.5 0-2.6-.6-5.2-1.7-7.5-1-2.3-2.4-4.4-4.2-6-3.3-3-7.8-4.7-13.2-4V297zm-8 2.2c2.8-1.3 5.5-2 8-2.3v1.7c-2.3.2-4.7 1-7.3 2-8.7 4-12 10.5-12 16.8 0 2.5.7 5 1.8 7.3 1.2 2.3 2.7 4.4 4.6 6 3.4 3.2 8 5 13 5v1.7c-5.5.2-10.5-2-14.2-5.3-2-1.8-3.7-4-5-6.6-1-2.6-1.8-5.3-2-8 0-7 3.7-14 13.2-18.4"/><path fill-rule="evenodd" clip-rule="evenodd" fill="#B07027" d="M240 303.5c-3.3 1.5-7.2 0-8.8-3.5-1.6-3.5-.3-7.5 3-9s7.2 0 8.8 3.5c1.6 3.5.3 7.5-3 9"/><path d="M240.4 304.3c-1 .5-2.2.7-3.3.7v-1.8c1 0 1.8 0 2.6-.4 1.5-.7 2.5-2 3-3.3.4-1.4.4-3-.3-4.6-.7-1.7-2-2.8-3.4-3.3-.6-.3-1.3-.4-2-.4v-1.7c1 0 1.8.2 2.6.5 1.8.8 3.3 2.2 4.2 4.2 1 2 1 4 .4 5.8-.7 2-2 3.5-3.8 4.3m-3.3.7c-.7 0-1.6-.3-2.4-.6-1.8-.7-3.3-2-4.2-4s-1-4-.3-6c.7-1.8 2-3.4 4-4.2 1-.5 2-.7 3-.6v1.7c-.7 0-1.6 0-2.4.4-1.4.7-2.4 2-3 3.3-.4 1.4-.4 3 .3 4.6.7 1.6 2 2.7 3.3 3.2.6.3 1.2.4 1.8.4v1.8z"/><path fill-rule="evenodd" clip-rule="evenodd" fill="#B07027" d="M227.8 324.5c-4.6-10.2-.2-22.3 10-27 10.2-4.6 22.2-.2 27 10-1.4 9.5-6.8 14.2-14.3 17.6-7.5 3.5-16.7 4.7-22.7-.5"/><path fill-rule="evenodd" clip-rule="evenodd" fill="#FFF" d="M234.8 315.7c.3-3.3 12.6-9.2 19.3-10-8-8-21.2-2.4-19.2 10"/><path d="M245.3 295c3-.3 5.7.2 8.3 1.2 5 1.8 9.5 5.6 12 11v.5c-.7 5-2.5 8.5-5 11.4-2.6 3-6 5-9.8 7l-5.5 2v-2c1.7-.4 3.3-1 4.8-1.7 3.8-1.7 7-3.6 9.3-6.3 2.3-2.6 4-6 4.5-10.4-2.2-4.7-6.2-8-10.8-9.8-2.4-1-5-1.4-7.7-1.2V295zM227 324.7c-2.4-5.3-2.4-11-.6-16 2-5.2 5.7-9.6 11-12 2.6-1.2 5.3-1.8 8-2v1.8c-2.5 0-5 .7-7.2 1.7-5 2.3-8.4 6.3-10.2 11-1.7 4.6-1.6 9.8.6 14.7 2.5 2 5.7 3 9 3.2 2.6 0 5.2-.4 7.7-1v1.7c-2.5.6-5 1-7.7 1-3.8-.2-7.4-1.3-10.3-4 0 0-.2 0-.2-.2z"/><path fill-rule="evenodd" clip-rule="evenodd" fill="#965B18" d="M257.5 312.2c2-1 3-3 2.4-4.5-.8-1.6-3-2-5-1-2.2.8-3.3 2.8-2.6 4.4.8 1.7 3 2.2 5 1.2M237.3 321.3c2-1 3.2-3 2.4-4.6-.7-1.5-3-2-5-1s-3 3-2.4 4.4c.7 1.7 3 2.2 5 1.3"/><path fill-rule="evenodd" clip-rule="evenodd" d="M253.6 316.6c-1 .4-2 0-2.3-1-.4-.8 0-1.8 1-2.2.7-.4 1.8 0 2.2 1 .4.7 0 1.8-1 2.2"/><path fill="none" d="M253.6 316.6c-1 .4-2 0-2.3-1-.4-.8 0-1.8 1-2.2.7-.4 1.8 0 2.2 1 .4.7 0 1.8-1 2.2z"/><path fill-rule="evenodd" clip-rule="evenodd" d="M242 322c-1 .3-2 0-2.4-1-.4-.8 0-1.8 1-2.2.8-.4 1.8 0 2.2.8.4 1 0 2-1 2.3"/><circle fill="none" cx="241.2" cy="320.3" r="1.7"/><path d="M243.3 307.7c3-1.3 6.2-2 8.7-2.2-1.8-1.4-3.7-2.2-5.6-2.5-1-.2-2-.2-3 0V301h3.3c3 .6 5.8 2 8.4 5 .3 0 .4.4.3.7-.2.4-.6.6-1 .5-2.5-.8-7 .2-11 2v-1.8zm-8.7 5.7c1.8-2 4.7-4 7.8-5.3l1-.3v1.8h-.3c-3.8 2-7.3 4.5-8.3 7 0 .2-.4.4-.7.5-.5 0-1-.3-1-.8-.4-3.7.3-7 1.8-9.4 1.3-2 3-3.7 5-4.6 1.2-.5 2.3-1 3.5-1v1.7c-1 0-1.8.3-2.7.7-1.7.8-3.2 2-4.3 4-1 1.5-1.6 3.5-1.7 5.7"/><path fill-rule="evenodd" clip-rule="evenodd" fill="#FFC4D4" d="M240.5 288.5c-.7.4-1.6 0-2-.7-.3-.7 0-1.6.8-2 .7-.3 1.6 0 2 .8.3.7 0 1.6-.8 2M236 288c-.7.4-1.6 0-2-.6-.3-.8 0-1.6.8-2 .7-.3 1.6 0 2 .8.2.7 0 1.5-.8 2M231.4 290.6c-.7.3-1.6 0-2-.7-.3-.8 0-1.7.8-2 .7-.4 1.6 0 2 .7.2.7 0 1.6-.8 2M228.2 294.5c-.8.3-1.6 0-2-.7-.3-.7 0-1.6.7-2 .7-.3 1.5 0 2 .8.2.7 0 1.6-.8 2M209.2 257.2c-.7.4-1.6 0-2-.7-.3-.7 0-1.6.8-2 .7-.3 1.6 0 2 .8.2.7 0 1.6-.8 2M204.5 261c-.7.5-1.6.2-2-.6-.2-.7 0-1.6.8-2 .8-.3 1.6 0 2 .8.3.7 0 1.6-.8 2M201 265.4c-.7.4-1.6 0-2-.7-.2-.7 0-1.6.8-2 .7-.2 1.6 0 2 .8.3.7 0 1.6-.8 2M242.8 247.8c-.7.3-1.6 0-2-.7s0-1.5.8-2c.7-.2 1.6 0 2 1 .3.6 0 1.5-.8 1.8M237.4 247.6c-.7.4-1.6 0-2-.7-.3-.8 0-1.7.8-2 .7-.4 1.6 0 2 .7.3.7 0 1.6-.8 2M225.3 249.2c-.7.4-1.6 0-2-.7-.2-.7 0-1.6.8-2 1-.3 1.7 0 2 .8.4.7 0 1.6-.7 2M231.3 248.2c-.8.3-1.6 0-2-.7-.3-.8 0-1.6.7-2 .8-.3 1.6 0 2 .7.3.8 0 1.6-.7 2M219.7 251.2c-.8.4-1.6 0-2-.7-.3-.7 0-1.6.7-2 .8-.2 1.6 0 2 .8.3.7 0 1.6-.7 2M214.3 254c-.7.2-1.6 0-2-.8-.3-.8 0-1.6.8-2 .8-.3 1.7 0 2 .8.4.7 0 1.6-.7 2"/><path d="M248 311.6c.5 0 .8.4.8 1 0 .4-.5.7-1 .7-.8 0-1.8 0-2.6.5-.7.3-1.3.7-1.7 1.3-.3.5-.8.7-1.2.4-.4-.2-.5-.7-.3-1 .6-1 1.5-1.8 2.5-2.2 1-.5 2.3-.7 3.5-.6"/><path fill-rule="evenodd" clip-rule="evenodd" fill="#FFF" d="M190.3 279.4c52.3 0 95-42.7 95-95s-42.7-95-95-95-95 42.7-95 95 42.7 95 95 95"/><path fill-rule="evenodd" clip-rule="evenodd" fill="#CBDEF2" d="M190.3 276.6c50.8 0 92.2-41.4 92.2-92.2 0-50.8-41.4-92.2-92.2-92.2-50.8 0-92.2 41.4-92.2 92.2 0 50.8 41.5 92.2 92.3 92.2"/><path fill-rule="evenodd" clip-rule="evenodd" fill="#FFF" d="M239.7 116c5-.2 2.6-.4 1.7 1.5-1 2-4.3 3-5.2 1.6-1-1.3-1.6-3.2 3.5-3M189 127c3 0 5.4-4.8 5.4-1.3s-5.2 4.2-.3 5.4c5 1.3 1.3 1.3 1.3 3.2 0 2-2.3.2-4.4 1.6-2.3 1.4-4.4.5-2.5-1.2 2-1.6-.5 2.4-4.5-.2s0-7.5 5-7.5M249.6 224.6c-1.2 1.7-4.7 6-5.4 8.7-.7 2.6-5 6-1.4 7.6 3.5 1.3 2.6 1 5.6-4.8 3-6 6-14.6 1.2-11.6M276.6 194c2.6-.4 2.6 4 .7 4.3-2 .3-3.3-4.2-.7-4.4M153.6 269c-5-2.3-10-5-14.4-8-1.5-1.3-3-2.7-4-4.2-9-11-12-18.3-14-23-2.2-4.7-3.2-8.2-2.7-12.7.5-4.3-5.2-3-5-7 .3-4-1.6-3-1.6-5.8s-2 6-3 2c-1-3.7 3.6-13.8-.4-14-4-.2-4-3.5-5.2-6-1-2.3-3.7-.6-5.2-3.5v-2.3c0-23.5 8.8-45 23.4-61.2 1 1.2 1.4 2.2 2.3 1.3 1.5-1.6 9.5-7 7.6-4-1.8 3-3.7 3.3-1 2.6 3-.6 3.4-6 7.2-5 3.7 1 8.2 5 5.4 6.5-3 1.7-6 3-7.8 2.4-2-.6-1.4-1-.2-2.5 1-1.4 1.8-3.7-.7-2.5-2.6 1-3.3 3.5-5 1.6-1.6-2-4.2 1.6-2 2.6 2 1-1.5 3.7-4.6 3.7-3 0-7 7.5-4.8 7.5s1.7 1.6 2.2 3.3c.4 1.6.2-3 3.3-3.3 3-.3 3.2-2.4 2-2.6-.6-1.5 3-2.2 3-3.4.4-1.2.4-4.2 2.5-4 2 .2 1.6 3.5 3.5 2.8 2-.7-1.6 4.2 3.3 4.5 5 0 2.6-.4 0 2.5-2.6 2.8.7 3.5.2 6.8-.4 3.3-1.4.2-3.3.2s-.8-2.8-.8-2.8-.2-.2-4.4-.2c-4.3 0-3.3 2.8-.5 3.2 2.8.5-.7 4.3-3 5.5-2.4 1 .4-5-2.2-2-2.5 3-5 3.8-5.8 6.2-.7 2.3-1.6 7.3-4.7 9-3 1.6-3.7 5-3.2 8 .4 2.7-2 2-2.6-.3-.7-2.3-5.2-1.8-5.4 2.4-.3 4.2-.3 9 1.4 7 1.6-1.8 2.3-4.2 7.3-1.8 5 2.3 4.4 3.3 3.3 5.4-1.2 2-1.7-.2-3.8-2-2-1.5-6 0-6 2.2-.4 2 2.2 1.4 2.2 5.7 0 4 3 6.4 3.6 4 .7-2.3.2-4.6 4.4-2.3 4.3 2.4 3.5.3 6 3.3s4.4 1.7 7 5.2c2.5 3.5 4 9.4 9.3 10 5.4.8 2 3.2 5 3.4 3 .2 6.8 2 6.3 5.6-.4 3.8-2 7-1.6 10.4.4 3.3-.5 8-3.3 8s-3.5 5-4.5 8.4c-1 3.3-3.8 3.3-2.7 6.4 1.2 3 5.7 9 16.5 16 .3 0 .5.3.8.5"/><path fill-rule="evenodd" clip-rule="evenodd" fill="#FFF" d="M259.3 123.5c14.3 16.2 23 37.6 23 61v3.5c-1.3-2-2-5.3-3.3-8-2.6-5-2 10.8-4.3 14.8-2 4-2.5-3.5-2.5-7.8 0-4.2-6-6-6.6-11.2-.7-5.2-5-3.6-7.8-4-2.8-.5-6-5.4-4.7-2.6 1.5 2.8.6 5.4 3 4 2.3-1.4 1.8 1 5 2 3.4 1.3-1 6.2-4 10-3.2 3.7-5 5-9.3 5-4.2 0-2.8-5-3.7-8-1-2.7-1-9.3-6-11.8-4.8-2.6 5.5 16.6 7.4 18.8 1.8 2 9 1 3.5 2.3-5.7 1.4-.6 4.2 4 .7 4.8-3.5-.3 12.5-8 18-7.4 5.7-2.5 21-5.3 22.2-2.8 1.2-2.3 7.5-7 10-4.7 2.2-9.4 9.5-15.3 10.2-6 .7-6-8.7-8.7-14-2.8-5-.5-12.5-.5-17s-4.7-11-2.3-14c2.2-2.7-1.5-4-5.7-4.3-4.3-.5-7.8-1.2-13.2-.3-5.3 1-9.8.7-10.5-3.5-.7-4.2-5.6-8.7-5.6-12.2s-.4-8.7.8-10.8c1.2-2 9.4-8 9.7-10.8.2-3 1.4-7 3.7-7.3l3-.5s9.7-2.2 13-2.7c3.3-.4 6.3.3 6.3 3 0 3 3 2 7.3 4.8 4.3 3 3 3.4 4.7-.6 1.7-4 2.8-1.2 7 .4 4.3 1.7 7.8 1 9.5-1.6 1.6-2.6 1.4-3-2.6-4.2-4-1.2 0 1-4.5 1s-3.6-5-3.6-7c0-2.3-2.6 4-4 4.8-1.4.7-2.8-2-3.3-5.2-.4-3.3-6.2-5.4-8.6-5.8-2.3-.5 3.3 2.8 6 4.2 3 1.4 1.5 2-.3 2s.3 2.7-2 3.2c-2.4.4-2.4.2-1.2-2.2 1-2.3-2.6-1.6-4.5-4.7-2-3 1.2 5.2-1.6 5.2s-1.5-5.2-.5-7c1-2-2.8 1.4-4.7-.5-2-2 .5 3.7-3.5 4.5-4 .7-3.3 4.2-5.4 5.8-2.2 1.7-4.5 1-7 .3-2.7-.7-1.5-1.2-2.4-3.6-1-2.3 1-2 1-4.2 0-2 1.5-4 4.4-3 2.8 1 5 0 4-1.7-1-1.5-2.4-4 1-4 3.2 0 5.5-1 6.5-4.4 1-3.2 7-1.6 4.5-3.5-2.5-1.8 5 .8 2-4-3-4.6-5 1.8-5.2-2.7-.3-4.5 4.4-1 6.3-5.6 2-4.7 2.8-2 7.3-2 4.3-.4 6-1 15 1.5 9 2.3 1 1.6-2.4 1.6-3.3 0 1 3 4 3 5 0 5.6-3.2 7-1.8 1.2 1.4 6-.2 8 1.2 2.2 1.4 3-1 3.3-2 0-1.3 2.7 1.8 4.7 1.8 1.8 0 2.5 1 5.6 1.5M138.7 115c2 1.3 2-1.7 8-2.7 6-1 9.4-2.3 20-4 10.5-1.6 11.2-1.6 17-1.6 5.5 0-.6-.3-1.5 3-1 3.3-2.2 7.6-10.8 8-8.7.5-15 5.2-16.7 9.4-2 4.4-3.8 4-5 0-1-4.3.7-5.3 3-6.7 2-1.4 3-4.7-.4-4.7-3.3 0-5.2.5-9 1-4 .4-11.7 2-4.6-1.5"/><path fill-rule="evenodd" clip-rule="evenodd" fill="#FFF" d="M178.2 119c2.8 0 5.4-.6 2.3 2.5-3 3-4 3-6.6.2-2.6-2.8-.5-3.5 4.2-2.6"/></svg>