<svg xmlns="http://www.w3.org/2000/svg" xmlns:xlink="http://www.w3.org/1999/xlink" width="375.8" height="376.6" viewBox="0 0 375.774 376.645"><defs><circle id="a" cx="186.3" cy="189.4" r="183.6"/></defs><clipPath id="b"><use xlink:href="#a" overflow="visible"/></clipPath><path opacity=".5" clip-path="url(#b)" fill="#B5B5B5" d="M175.8 177l-2.8 9 52.3 12.3 3.3-10.7-52.8-10.6z"/><circle clip-path="url(#b)" fill="#B2D235" cx="187.8" cy="189" r="183.6"/><path clip-path="url(#b)" fill="#A2C121" d="M187.8 372.6C86.4 372.6 4.2 290.4 4.2 189S86.4 5.4 187.8 5.4"/><g clip-path="url(#b)"><g fill="#FF839B"><path d="M186.6 103.7l20.3 4.8-9.6 11-14 5.6s-7.8-4-7.6-4.5c.2-.7 10.8-16.8 10.8-16.8zM41 326.2l19.4 4.7 37-26 26-30.4-9.8-4s-47 41-72.6 55.6z"/></g><path fill="#FF839B" d="M168.8 250.2s28-91 26.6-116.5c-1-19.2-2-30.3-8.8-30-8.2.4-35.8 25.3-49.3 74.7C124 227.8 94 291.4 41 326.2l127.8-76z"/><path fill="#EC4963" d="M188.2 255s28-91 26.7-116.6c-1-19.2-2.2-30.2-9-30-8 .4-35.8 25.3-49.2 74.7-13.4 49.5-43.4 113-96.4 148l127.8-76z"/><path fill="#E6E7E8" d="M273 139.3l-71.3-20S182.3 132 169.4 174C156.4 216.4 125 296 77 321l78 17.7s72-52.7 73.6-54.6c1.7-1.8 30.6-65.5 31.6-70.6 1-5 13-74 13-74z"/><g><g fill="#FF839B"><path d="M278.4 128.5l20.3 4.7-9.5 11-14.2 5.6s-7.6-4-7.5-4.6c.2-.6 11-16.7 11-16.7zM132.7 351l19.5 4.6 37-25.7 26-30.7-9.8-4s-47.2 41-72.7 55.6z"/></g><path fill="#FF839B" d="M260.5 275s28-91 26.6-116.5c-.8-19.2-2-30.3-8.6-30-8.3.4-36 25.3-49.3 74.7s-43.4 113-96.3 147.7l127.8-76z"/><path fill="#EC4963" d="M280 279.7s27.8-91 26.6-116.5c-1-19.2-2-30.3-8.8-30-8.2.4-35.8 25.3-49.3 74.7-13.4 49.3-43.4 112.8-96.3 147.6l127.7-76z"/></g></g><path opacity=".7" clip-path="url(#b)" fill="#263248" d="M223.2 149s-2.5-2.5-7.4 3.5c-4.8 6-7.3 17.8-17 16.6-10-1-3-16.5-2.3-17.6 1-1.2 8.2-7.3 10.4-9 2.2-1.6 11-4.6 13-4.6s7 5 7 5l-3.8 6.3z"/><path clip-path="url(#b)" fill="#231F20" d="M227 142.8l-3.8 6.3s-2.5-2.5-7.4 3.5"/><path opacity=".7" clip-path="url(#b)" fill="#263248" d="M221.5 162.3s-1.7 4.6 5.6 6c7.4 1.3 12.4-5.8 13-7 .8-1 4.3-8.3 4.3-8.3s6-5.4 4.4-13c-1.5-8-10.7-4.5-10.7-4.5l-9 11-7.5 15.8z"/><path clip-path="url(#b)" fill="#E2E2E2" d="M175 173.7s-13.8 40.6-25 65.6l57 13.7s17-33.3 23.8-68L175 173.8zM146.5 244.4l59 13s-4 9.7-7.5 15l-59.4-13.7s5.4-8.3 8-14.3z"/><path clip-path="url(#b)" fill="#FFF" d="M135.2 263.7l62.3 12.7s-17.3 31.7-35.5 45c0 0-31.2-18.8-57.6-16.7 0 0 18-17 30.8-41zM83.3 319.6l66.7 16.2 4.8-5-64.4-16"/><path clip-path="url(#b)" fill="#FFF" d="M90.4 314.7l-7 5 66.6 16M293.5 133.4l-15.7-4s-7.8 3.2-11.2 8.4c0 0 10.3.8 14.6 5 0 0 8.3-8.2 12.3-9.4zM202 108.4l-14.7-3.6s-7 2-11.5 7c0 0 10.2.5 14.6 5.6 0 0 6.2-7.5 11.5-9z"/><path clip-path="url(#b)" fill="#AF0032" d="M304 173.7s2.3-15.4-1.4-24l-71.4 155 21-12 51.7-119zM241.3 237.5L215 316l-35.7 22.7s44-46 62-101.2z"/><g clip-path="url(#b)"><path fill="#FFCC8F" d="M215.4 83l-11.2-24-7-2.5s-4-5.4-1.8-9.7c2.2-4.2 11.3-7.3 11.3-7.3l5.2 5.8s2.4.4 3.8 2.3c0 0 .7 3.3-1.5 5.7L225 76.7l-9.6 6.3z"/><path fill="#00A388" d="M222 77.5l-12.3 6.3s10 13.7 10.7 20c.8 6.2-7.6 22.5-7.6 22.5l5.5 8.8 6.3 2.8s7-2 7.4-2.4c.4-.4 14.8-.4 14.8-.4s11.4-19 18.5-23.3c7-4.4 19.2-5 19.2-5s-3.8-14.2-9-17c-5.5-2.5-11.5 7.4-11.8 7.5-.4 0-9.3 2.2-11 2-1.8-.4-18.3-6-18.8-6.2-.5 0-11.2-9-11.6-9.8-.3-.7-.3-5.7-.3-5.7z"/><path fill="#F2623D" d="M276.8 92.8s7-12.2 3.2-20c0 0-.5 2.4-2 5.5 0 0-3.2-16-13.5-20.3 0 0 .6 3 .7 5.4 0 0-15-11.3-30.8-9.4l5 3.2-16.2.3 10.6 5.8s29.2 10 29.6 9.8c.4 0 11.3 17 11.3 17l2 2.8z"/><path fill="#FFCC8F" d="M262 64.2s18 10.2 14.7 29c-3 19-31.6 25.3-48 15-16.2-10.3-11-35-5.5-41 6-6.6 18.2-7.8 24.6-7 0 0 3.6-6.4 8-4.3 4.5 2 6 5.5 6.2 8.2z"/><path fill="#FFF" d="M235.3 64.3s-2.3 2 1 3.5c3.4 1.4 24.2 8 27.5 7.7 3.3-.2 4.6-2.3 4.6-2.3s4.3 14.4-10.7 19.5c-15 5-27.2-1-29-10.5-1.8-9.6 4-16.8 6.6-18z"/><path fill="#C18442" d="M230.8 96s4.5 7.8 15 5c0 0-13.5 7-15-5z"/><path fill="#FFCC8F" d="M282.4 102l18.4-18.8 7.6-.2s5.4-3.8 4.7-8.5c-.6-4.8-8.2-10.7-8.2-10.7l-6.8 3.8s-2.5-.4-4.5 1c0 0-1.7 2.8-.3 5.8l-18.5 17.4 7.7 10.3z"/><path fill="#F8981D" d="M199.8 136.6s4.7-11 9.8-12.6c5-1.6 13 1.7 14.6 5.7 1.5 4 4 5 4 5s8-10.2 14.5-6.8c6.4 3.4 9.7 8 6.5 16-3.2 8.2-11 11.8-11 11.8s-12.8-4.4-13.2-5c-.4-.7-1.5-4-1.5-4s-7-5.8-15 9c-8 15-12.6-4.5-12.5-5 0-.6 1.4-10 1.7-10.5.4-.5 2-3.7 2-3.7z"/><path fill="#A7A9AC" d="M195.5 134s9.8-1.2 12.5 5.2c2.6 6.3 2 12.2.6 19.2-1.5 7-6 11.6-10.7 10.6-5-1-6-14.5-6-14.5l.7-6.2 2.8-14.2z"/><path fill="#FFF" d="M203.5 166s3.6-16.3 1-25.3-16.8-9.4-18 2.8c-1 12 3.2 20.3 3.2 23 0 2.6 7 8.8 13.8-.5z"/><path fill="#A7A9AC" d="M236.3 136s7.8.3 8.4 7.4c.6 7-5 18-8.2 20.7-3.3 2.8-9.5.7-10 .4-.4-.4-2.5-8.5-2.2-9.6.3-1.2 12-18.7 12-18.7z"/><path fill="#FFF" d="M243 148.5s1.8-8.5-4.7-11.6c-6.5-3-9.2-1.4-13.3 6.8-4 8-7.4 15.6-4.8 19 2.6 3.2 8.2 7.5 13.7 1.3 5.5-6 9-15.5 9-15.5z"/></g><path clip-path="url(#b)" fill="#231F20" d="M248.7 61.8s2.7-4.8 5.3-4c2.5.6 3.5 6 2.7 7-.7.8-8-3-8-3zM222 72s-7.2 14.2.4 28.2c8 14.7 32 12.6 39 9 7-3.6 12.3-8.7 14-14 0 0-14.7 19.7-39.8 11.3C216 100 222 72 222 72zM263 64.3s14.3 6.4 14.8 23.4c0 0 2.5-5 2-9 0 0-1 2-1.8 2 0 0-3.2-12.5-10.3-18.4L267 65l-4.8-2.7.8 2z"/><g clip-path="url(#b)" fill="#231F20"><path d="M277.5 93.3l5 7.3L300 81.4l8.2.6s-6-.5-9.8-3.8c0 0-10.8 15-21 15zM298.8 68s4 1.7 4.8 3c1 1.3 1.4 4.5 1.4 4.5s-2.6 2.4-3.7 2c-1-.4-2.5-4.8-2.5-4.8s-.6 3.2 2.4 5.8c0 0 4.3-.7 5.2-3 0 0-.7-3.4-2-5.2-1.3-2-2.8-2.8-2.8-2.8s2.8-2.2 4.5-2l-1-1s-4 2-6.2 3.4z"/></g><g clip-path="url(#b)" fill="#231F20"><path d="M219 73.8l-1.2 5.2-2.6 1.2-10.6-22-7.2-2.7s4.8 1.2 9.8-.2c0 0 2.6 14 11.7 18.5zM211 45.8s-4.2 0-5.6.8c-1.4.8-3.2 3.5-3.2 3.5s1.5 3.4 2.6 3.5c1.2 0 4.2-3.4 4.2-3.4s-.7 3.3-4.5 4.5c0 0-3.6-2.5-3.6-5 0 0 2-2.7 4-4 2-1 3.6-1.2 3.6-1.2s-1.6-3.2-3.2-3.7l1.5-.4s2.5 3.3 4 5.6z"/></g><path clip-path="url(#b)" fill="#231F20" d="M221.8 103.2s10.6 16.6 39 8.6c0 0-31.6 16.3-39-8.6zM226.5 137.3s-3 3-3.7 8c0 0-7-4.2-13 4.5l.5-7.3s7-10.4 16.2-5.2zM249.3 135.5s2.2 4.8-4.5 14.3c0 0 2.3-6.2.2-9.7 0 0 4.6-.6 4.3-4.5zM279.5 100.6l3.6 5.4s-9-1.3-18.7 5.4c-9.7 6.6-15.6 19.6-15.6 19.6l-3-2.5s13.6-16 21.8-20.4c8.3-4.4 12-7.4 12-7.4zM214.8 82.3l-4 2s6.3 8.5 7.4 12l-3.4-14z"/><path clip-path="url(#b)" fill="#E6E7E8" d="M225.3 146s4.7-9.3 7.6-9.2c2.8 0 9.3 3.2 9.4 9.8 0 6.5-6 9.6-6 9.6s-1-10.4-11-10.2zM203.4 153.4s1-8-.7-11.5c-1.6-3.6-5.7-8-10.2-5.2-4.6 2.6-5.7 6.7-5 12 0 0 10-2.7 16 4.6z"/></svg>