<svg xmlns="http://www.w3.org/2000/svg" width="376.3" height="376.6" viewBox="0 0 376.265 376.645"><circle fill="#00E572" cx="188.4" cy="188.2" r="183.7"/><path fill="#02D357" d="M188.4 372C87 372 4.7 289.5 4.7 188 4.7 86.7 87 4.4 188.4 4.4"/><path fill="#EFD19C" d="M144.2 293c1.6.4 3.4 2 1.5 7.2 0 0 1.3 7.8 10.6.2 0-.2-2.7-39-3.2-55L136 247s5 33.3 8.4 46z"/><path fill="#86A8A9" d="M127 194.7l1.7 49.4 27.5 3.2 3.8-30.4 4.5 24.6 27.5-4-8-40.3"/><path fill="#EFD19C" d="M177.3 295.3l6 5.6s1-3.6 4.7-4.8c0 0-6-4.3-1.7-7 0 0 1-48.3.3-51l-15.6 1s2.4 40.2 6 56h.3z"/><path fill="#729EB1" d="M157 248.5c0 .7-.5 1.3-1.3 1.2l-27.4-1.5c-.7 0-1.3-.7-1.3-1.4l.3-4.7c0-.6.7-1.2 1.4-1.2l27.4 1.6c1 0 1.4.7 1.4 1.4l-.3 4.7zM193 240c0 1-.4 1.5-1 1.6l-27.5 2.6c-.7 0-1.4-.4-1.4-1.2l-.4-4.6c0-.8.5-1.4 1.2-1.5l27.3-2.7c1 0 1.5.4 1.6 1.2l.5 4.6z"/><path fill="#634200" d="M158.6 298.4s9.8 9.4.7 14c0 0-25.6 12.4-38.4 2.5 0 0-12.8-10 4.4-14.8 0 0 6.5-1.7 10.6-1.2 0 0 5.4-1.7 6.4-6 0 0 6.3-1.2 3.3 7.2 0 0 1.5 9 13-1.8z"/><path fill="#FFF" d="M130.5 299.2l-4.5.8c4.7 3 6 7 6 7.2l3.3-1c0-.2-1-3.8-4.8-7zM137.4 305.2l2.6-.7c0-.2-1-3-3.7-5.6h-.3c-1.2-.2-2.7 0-4.2 0 4.3 2.4 5.5 6 5.6 6.2z"/><path fill="#EFD19C" d="M128.7 115.7s-29 2.5-47.3-18.2c0 0-4.2-6.2.7-9.8 0 0 3.3-2.4-.2-2.4 0 0-4.2.7-5.4 4.6 0 0-2.6-.3-5.5-11.4 0 0-.5-1.8-2-1.8 0 0-1.5 0-1 3 0 0 1.2 5.3 2.5 9 0 0-4.3-5.7-7.8-8.8 0 0-1.5-1.2-2.3 0 0 0-.6 1 .6 2.4l5.6 7.6-8-3.6s-1-.2-1.5.6c0 0-.5 1 .7 1.8l8 5.3H59c-1 0-2.4 1-.2 2 0 0 6.4 2.2 8.3 2.7 0 0 2.6 4.7 9.8 4 0 0 19 27.5 54.4 25l-2.5-12z"/><path fill="#634200" d="M186.3 289.2s3.7-2.3 6.8 6.7c0 0 25.2 4.4 20.3 16.3 0 0-5.8 7.8-18.7 4.3 0 0-21-5-21.5-17 0 0-.3-7.8 4.3-4.3l6 5.6s1-3.6 4.7-4.8c0 0-6-4.3-1.7-7z"/><path fill="#EFD19C" d="M199.8 138.6s1.2 27.5 27.8 44c0 0 6.8 3.3 9.7-2 0 0 1.8-3.6 2.4-.2 0 0 0 4.2-3.8 6 0 0 .5 2.6 12 3.8 0 0 1.8.2 2 1.7 0 0 0 1.3-3 1.3 0 0-5.2-.4-9.2-1.2 0 0 6.4 3.6 10 6.6 0 0 1.3 1.2.4 2.2 0 0-1 .8-2.6-.2l-8.3-4.4 4.8 7.3s.4 1-.3 1.6c0 0-1 1-2-.2l-6.4-7.2 1 6.8c.2.8-.6 2.5-1.8.3 0 0-3-6-4-7.7 0 0-5-1.8-5.2-9 0 0-26.8-10.7-35.8-50l12.3.6z"/><path fill="#FFF" d="M203.7 299c-1.2-.4-2.4-1-3.5-1.2-2.7 2.8-4 6.3-4.2 6.5l3 1.3c.7-1.4 2.4-4.7 4.7-6.5zM194.8 296.3c-2 2.5-3 5.2-3 5.4l2.4 1s1.3-3.3 3.5-5.7l-3-.7z"/><path fill="#7F451D" d="M165 47s-2.7 2-2.5 4.5c0 0 20.4-12.2 40.2 10L199 61c-1-.3 16.3 12.5 3.8 33.4 0 0-2.4-2.2-6.3 4 0 0 6.2-12.4-5.2-18.5C180 74 159.6 74 158 66c0 0-15.2.7-12.7 17.7 0 0-.8-2.3-2.8-4.2v4.7s-2-3.3-3.6-2.2c0 0-2-21 15.8-26.6 0 0-2.3-2-4.8-.4 0 0 2-5 8.2-2 0 0 .7-5.3 6.8-6z"/><path fill="#EFD19C" d="M202.8 94.4s-2.4-2.2-6.3 4c0 0 6.2-12.4-5.2-18.5C180 74 159.6 74 158 66c0 0-15.2.7-12.7 17.7 0 0-.8-2.3-2.8-4.2v4.7s-2-3.3-3.6-2.2c-4.8 5 3.7 10.8 3.7 10.8 6 21 21.4 22.6 21.4 22.6 20 4.8 31.6-12.5 31.6-12.5 4.2.6 7-3 7-3 3.3-6.8.2-5.6.2-5.6z"/><path fill="#FCE6B4" d="M164 115.4s-3.7-.4-8.4-3.5c-1 12.2 6.3 14.2 6.3 14.2 6.3 2 11-6 13-10.3-3.2.4-7 .4-11-.6z"/><path fill="#E74568" d="M186.7 144l4.2 15s8-2 16.2-8.2c0 0-8.6-22-15.6-30.6 0 0-5.7-3.5-11.4-5.6-1.6.6-3.3 1-5 1.3-2 4-7 12-13.3 10.2 0 0-7.4-2-6.4-14.3-1.8-1.3-3.7-3-5.6-5.2-9 .5-21.3 4.2-36 5-2 10.7 0 19.5 0 19.5s14.2.5 19.2-.4c0 0-5.8 21-3.5 40.5 0 0 .3 5.5-4.2 10 0 0-3.4 2.4.2 6 0 0 2.5 2.6-1 5 0 0-4 2.2 1.6 5.3 5.6 3 32.6 17.2 60.8 1.2v-3s3.8-3 .6-7.2c0 0-3.3-5-2.4-13.3l1.5-31.6z"/><path fill="#8E562F" d="M165 52.6s15.3-8 31 5.4c0 0-14.4-9.5-31-5.4z"/><path fill="#6D3C1B" d="M169.7 55.3s37.4-1.5 33 33.7c0 0 2-28.3-33-33.7z"/><path fill="#8E562F" d="M165 55.3c6 19 29.8 4 34.4 31.2-5.8-27.3-31.5-10-34.3-31.2z"/><path fill="#8E562F" d="M161 58s-3 14.7 18 16c0 0-14.4-2.8-18-16z"/><path fill="#6D3C1B" d="M157.4 56.3S146.7 58.5 144 71c0 0 6-10.8 13.4-14.7z"/><circle fill="#7F451D" cx="156.2" cy="87.2" r="2.5"/><path fill="#7F451D" d="M155 77.5s3.8-4.2 6 2c0 0-3-3-6-2zM187 92c0 1.5-1 2.6-2.4 2.6s-2.5-1-2.5-2.5c0-1.3 1.2-2.5 2.6-2.5 1.4 0 2.5 1.2 2.5 2.6z"/><circle fill="#FCE6B4" cx="183.9" cy="91.4" r=".8"/><circle fill="#FCE6B4" cx="157.3" cy="86.5" r=".8"/><path fill="#7F451D" d="M172.2 94c.2.4.4.8.4 1.3 0 1.4-1.2 2.6-2.6 2.6-.5 0-1-.3-1.3-.5.4.7 1.2 1.2 2 1.2 1.5 0 2.7-1.2 2.7-2.6 0-.8-.5-1.6-1.2-2zM183.2 82.4s4-4.2 6 2c0 0-2.8-3-6-2z"/><path fill="#F15D2D" d="M161 100.5s2.4 17 16.3 3.2c0 0-12.7 0-16.3-3.2z"/><ellipse transform="rotate(24.874 186.988 97.306)" fill="#E5AB6C" cx="187" cy="97.3" rx="3.9" ry="1"/><ellipse transform="rotate(10.36 151.257 90.293)" fill="#E5AB6C" cx="151.3" cy="90.3" rx="3.9" ry="1"/><path fill="#EDD39A" d="M164 115.4s-3.7-.4-8.4-3.5v1.6c2.4 1.8 8.6 5.3 18.7 3.8l.8-1.5c-3.2.4-7 .4-11-.6z"/><g><path fill="#FF95BB" d="M248 311.6s4 3.3.4 8.4c0 0-6.4 4.3-10.2 5.6 0 0-5.4 2-8.8-2.7 0 0-3.3-5 4.6-8.5 0 0 1 6.8 7 4.2 0 0 8-2.5 7-7z"/><path fill="#FDE8B4" d="M234 314.5s1 6.8 7 4.2c0 0 8-2.5 7-7 0 0 3.5-25.5 6.5-40l-11-2s-2.4 23.3-3.4 36.4c0 0 0 5.6-6 8.5z"/><path fill="#FF95BB" d="M242.8 319.8c-2.8-5.3-7-6.4-7-6.4l1.4-1s3.8.7 7 6.7l-1.4.8zM292.5 290s4.6-2 7.8 3.3c0 0 1.2 7.7 1 11.7 0 0-.4 5.8-6.2 7 0 0-5.6 1-5.6-7.8 0 0 6.6 2 6.7-4.6 0 0 1-8.3-3.5-9.5z"/><path fill="#FDE8B4" d="M289.4 304.2s6.6 2 6.7-4.6c0 0 1-8.3-3.5-9.5 0 0-20-12-30-23l-6.3 9.3s14 12.7 28 19c0 0 5 2.3 5.2 9z"/><path fill="#FF95BB" d="M297.8 298.4c-6 .3-8.7 3.6-8.7 3.6l-.4-1.6c.2 0 2.4-3.2 9-3.5l.2 1.4zM243.7 221.6s-4.7 38.5-13 56.8c0 0 24 16.3 57.3-1.8 0 0-15.4-46.6-17.4-57l-5.5 1.8s1 12.2-5.7 13c0 0-8.4 1-10-11.8l-5.6-1z"/><path fill="#FDE8B4" d="M259.3 234.3c5-.5 5.7-7 5.8-10.5-4.4 1.7-7.8 1.8-7.8 1.8-2.7 0-5 0-7.4-.4 2.3 10.2 9.5 9 9.5 9zM277 224.2s5.8 12.5 16.7 18.8c0 0 4 .2 9.7-4 1-.6 2.5-.4.8 1.5 0 0-1 1.3-2.2 2.5 0 0 3.7.2 7.2 0 0 0 1.6-.3 2 .6 0 0 .3 1-2 1.6l-5 .8 6.8 1s1.7 0 1.7 1c0 0 0 1-2 1-1.8 0-7-.4-7-.4l5 2s1.3.3 1 1.3c0 0-.4 1-2 .6l-6.8-1.8s3 1 3 3.8c0 0-4-.8-9.8-6.7 0 0-14-5.6-22.5-24.2l5.4.4zM238.7 228.2s-4 13-14 20.7c0 0-4 .7-10.3-2.8-1-.5-2.5 0-.6 1.6l2.5 2.2s-3.7.6-7 .8c0 0-1.7 0-2 1 0 0-.2 1 2 1.2l5.3.2-6.7 1.8s-1.8.4-1.7 1.3c0 0 0 1 2 .8 2-.2 7-1.3 7-1.3l-4.8 2.6s-1 .5-.8 1.5c0 0 .6 1 2 .4l6.7-2.7s-3 1.6-2.5 4.2c0 0 3.5-1.3 8.7-7.8 0 0 13-6.4 19-26l-5 .2z"/><path fill="#FF95BB" d="M244 221.5s-4.5 0-10 13l9.6 2.2.3-15.2zM270.2 219.4s4.3-1.2 13 10l-9 4.6-4-14.6z"/><path fill="#FDE8B4" d="M270.8 177.8s-4.8 5.6-17.6 4.5c0 0-13.6-2.6-20.7 4.5 0 0-7.7 6-7.8 16.2 0 0-7-1.5-2.3 5 0 0 2.5 3 6.5 3.5 0 0 7.6 15 28.2 14 0 0 17.8-.3 26.2-20 0 0 5.6-1.2 4.6-7 0 0-.7-2.3-2.6-1.3 0 0-1.7.7-1.4 3.3 0 0-.8-.6-1.2-3.4 0 0-4.3-5.6-7.7-8.5 0 0-6-6-4.2-10.7z"/><g fill="#7F451D"><path d="M227.8 211.2c-3.4-.8-5.4-3-5.4-3-.8-1.2-1.3-2-1.5-2.8-12.8 8.4.4 15.6.4 15.6 3.5 1.7 1.4 3.5 1.4 3.5-2.3 2.5-4.6-.2-4.6-.2 2 8 11.3 2.5 11.3 2.5 5.4-3.3.4-9.7.4-9.7-1.8-2.2-2.2-4.4-2.2-5.8zM232.5 186.8c7-7 20.7-4.5 20.7-4.5 12.8 1 17.6-4.5 17.6-4.5-1.7 4.7 4.3 10.7 4.3 10.7 3.5 3 7.8 8.6 7.8 8.6.4 3 1.2 3.5 1.2 3.5-.3-2.6 1.4-3.3 1.4-3.3 2.3-19.8-13.5-29.8-13.5-29.8-19-12.2-36.6.5-36.6.5-18.3 13-10.7 35-10.7 35 0-10.3 7.8-16.2 7.8-16.2zM292 219.2c-2.7-1 .6-4.2.6-4.2 4.3-4 4.2-8.4 4.2-8.4 0-3.7-5.5-6.8-9-8.4.2 0 .2.2.2.2.7 4-1.8 5.8-3.4 6.6 1.4 1.8-1.3 7.2-1.3 7.2-3.4 7.6 1.2 10.3 1.2 10.3 8.5 5 12.8-5 12.8-5-2.8 3-5.3 1.7-5.3 1.7z"/></g><path fill="#7F451D" d="M235.6 193s2-6.2 7.7-1.2c0 0-5-2.5-7.7 1.3zM263.6 200.3s2.4-4.7 6.4-2c0 0 1.6 1.4 2.7 1 0 0-.7 1.4-3 .5 0 0-3.3-1-6 .5zM272 190s-3-6-7.7 0c0 0 4.4-3.3 7.8 0z"/><path fill="#F15D2D" d="M248.4 213.2s6.7 1 14.7-.7c0 0-7.8 12.8-14.6.7z"/><path fill="#7F451D" d="M256 209c-1.4-.2-2.5-1.3-2.5-2.7l-.2 1c0 1.3 1 2.4 2 2.4s1.8-.4 2.2-1.2c-.5.3-1 .4-1.5.4z"/><path fill="#935931" d="M269.5 169.8s-17.8-11.5-32.2 1.2c0 0 15-7.4 32.2-1.2zM269.6 171.8s-10.8 6.6-24 4c0 0 15 7.3 24-4z"/><path fill="#6D3C1B" d="M275.3 173.6s8.2 6.8 8 21c0 0-2.8-13.7-8-21z"/><path fill="#935931" d="M248.6 171.5s-17.3-.8-23.8 15c0 0 11.7-14.7 23.8-15z"/><path fill="#6D3C1B" d="M226.6 191.3s2.8-13 20.2-11c0 0-15.7 1-20.3 11z"/><path fill="#7F451D" d="M246 202.3s-3-4.4-6.6-1c0 0-1.4 1.4-2.5 1.2 0 0 .7 1.2 3 0 0 0 3-1.5 6-.2z"/><ellipse transform="rotate(173.54 236.846 208.82)" fill="#FFA49F" cx="236.9" cy="208.8" rx="4.3" ry="2.6"/><ellipse transform="rotate(173.535 275.18 204.67)" fill="#FFA49F" cx="275.2" cy="204.7" rx="4.3" ry="2.6"/><path fill="#EDD39A" d="M249.8 225.2l.5 2c3 .3 8.7.6 14.7-1.8v-1.6c-4.4 1.7-7.8 1.8-7.8 1.8-2.7 0-5 0-7.4-.4z"/></g></svg>