<svg xmlns="http://www.w3.org/2000/svg" xmlns:xlink="http://www.w3.org/1999/xlink" width="367.4" height="369.5" viewBox="0 0 367.429 369.539"><defs><circle id="a" cx="183.7" cy="183.7" r="183.7"/></defs><clipPath id="b"><use xlink:href="#a" overflow="visible"/></clipPath><circle clip-path="url(#b)" fill="#00E572" cx="183.7" cy="183.7" r="183.7"/><path clip-path="url(#b)" fill="#02D357" d="M183.7 367.4C82.3 367.4 0 285.2 0 183.7S82.3 0 183.7 0"/><path clip-path="url(#b)" fill="#965A3C" d="M225.4 366.5c0 20.6-18.8 26.3-42 26.3-23 0-41.8-5.7-41.8-26.3s18.8-37.3 42-37.3c23 0 41.8 16.7 41.8 37.3z"/><path clip-path="url(#b)" fill="#FFF" d="M233.3 398h-99.6c-3.6 0-6.5-3-6.5-6.5 0-3.6 3-6.5 6.5-6.5h99.6c3.6 0 6.5 3 6.5 6.5 0 3.6-3 6.5-6.5 6.5z"/><g clip-path="url(#b)" fill="#AB7B63"><path d="M182 409.5h-34.2v-33.8c0-9.5 7.7-17 17-17 9.5 0 17.2 7.5 17.2 17v33.8zM223.2 409.5H189v-33.8c0-9.5 7.7-17 17-17 9.5 0 17.2 7.5 17.2 17v33.8z"/></g><path clip-path="url(#b)" fill="#005E7F" d="M27.5 334h310v24h-310z"/><g clip-path="url(#b)"><path fill="#FFE7D7" d="M207.8 253l-7.3-2c-1.8-.6-2.8-2.2-3-4-1-5-1-18.5-.8-20.7 0-.2-.2-.3-.4-.3h-25c-.2 0-.4 0-.4.3 0 2.2 0 15.4-.8 20.7-.3 1.8-1.3 3.4-3 4l-7.7 2c6.8 3.2 16 5 24 5s17.5-2 24.3-5z"/><path fill="#FFCDAB" d="M196.5 243.2v-12.8c0-.2-.2-.4-.3-.4h-24.8c-.2 0-.3.2-.3.4v12.8c7 3.2 18.4 3.2 25.5 0z"/><path fill="#23A3B0" d="M234.8 262.4c-2-1.7-4.6-3-7.2-3.8l-19.8-5.7c-6.8 3-16.2 5-24.2 5s-17.3-1.8-24-5l-19.7 5.6c-2.3.7-4.5 1.7-6.4 3-10 7.4-7 19.4-7.5 21.6v.4H184s57-.2 57-.4c-.4-2 3.3-13.5-6-20.8z"/><path fill="#FFE7D7" d="M183.8 162.7c-28.5-1-29 26-28.5 35 .3 6.4 3 19 4.2 23.6.8 2.7 2.3 5.2 4.3 7 .8 1 1.7 1.7 2.7 2.3 5 3.7 11 7.4 17 7.4 6.2 0 12.4-3.6 17.6-7.4 1-.6 2-1.4 2.7-2.2 2-2 3.5-4.4 4.3-7 1.4-4.8 4-17.3 4.2-23.8.4-9 0-36-28.4-35z"/><path fill="#641B19" stroke="#641B19" stroke-width="3" stroke-linecap="round" stroke-linejoin="round" stroke-miterlimit="10" d="M176 191.8c-1.6-2.7-4.3-4-7-3.2-2.8.6-5.5 3-7 6.5 4-4.3 7-6.4 14-3.2zM190.6 191.8c1.7-2.7 4.4-4 7-3.2 3 .6 5.5 3 7 6.5-4-4.3-7-6.4-14-3.2z"/><g fill="#FFE7D7"><path d="M162.3 205.5c0 4-1.3 7-4.5 7s-7.2-3-7.2-7c0-3.8 2.6-6.8 5.8-6.8s6 3 6 6.8zM217 205.5c0 4-4 7-7.2 7s-4.5-3-4.5-7c0-3.8 2.6-6.8 5.8-6.8 3.4 0 6 3 6 6.8z"/></g><path fill="#444" d="M196.5 198c2.4 0 4.4 1.6 5 3.8v-1c0-2.6-2.2-4-5-4-2.7 0-5 1.4-5 4 0 .4 0 .7.2 1 .5-2.2 2.5-3.8 4.8-3.8z"/><path fill="#FFF" d="M196.5 205.7c2.4 0 4.4-1.6 5-4-.6-2-2.6-3.7-5-3.7s-4.3 1.6-4.8 3.8c.5 2.3 2.5 4 4.8 4z"/><path fill="#444" d="M170 198c2.4 0 4.3 1.6 4.8 3.8v-1c0-2.6-2-4-4.8-4s-5 1.4-5 4v1c.6-2.2 2.6-3.8 5-3.8z"/><path fill="#FFF" d="M170 205.7c2.4 0 4.3-1.6 4.8-4-.5-2-2.5-3.7-4.8-3.7s-4.4 1.6-5 3.8c.6 2.3 2.6 4 5 4z"/><circle fill="#B1413D" stroke="#B1413D" stroke-width="5" stroke-miterlimit="10" cx="196" cy="202.5" r="1.9"/><circle fill="#B1413D" stroke="#B1413D" stroke-width="5" stroke-miterlimit="10" cx="170.6" cy="202.5" r="1.9"/><circle fill="#3B3F3F" stroke="#592714" stroke-miterlimit="10" cx="196" cy="202.5" r="1.9"/><circle fill="#3B3F3F" stroke="#592714" stroke-miterlimit="10" cx="170.6" cy="202.5" r="1.9"/><circle fill="#FFF" cx="169.3" cy="201.5" r="1.2"/><circle fill="#FFF" cx="194.9" cy="201.5" r="1.2"/><path fill="#641B19" d="M158.6 175.8c1-4.5 5.3-8 10.2-10 5-2.2 26.3-9.8 33.8-2.4 3 3 3.2 10-1.4 12.2-2.3 1-5 1.2-7.7 1s-5.2-1-7.8-1.4c-6.4-1.2-13-1.4-19.7-.6-1.7.2-3.5.5-5 1.2s-3 1.8-3.4 3.2"/><path fill="#641B19" d="M157.5 207c-1.4-6.3-2.8-12.7-2.2-19 .5-6.6 3-16 9.7-17-5.2 12.2-8.3 25.5-7.3 38.6M210 207c1.3-6.3 2.7-12.7 2.2-19-.5-6.6-4.2-21-8.5-17 .7 1.7-4 2.5-2.6 3.4 8 4.6 9.7 23.7 8.8 35.2"/><g fill="#FFD8BD"><ellipse cx="169.2" cy="210.9" rx="4.6" ry="4"/><ellipse cx="198.2" cy="210.9" rx="4.6" ry="4"/></g><g><path fill="#EDB188" d="M174.6 219.7l1 .2c.6 0 1.4.4 2.4.6l1.5.4c.6 0 1 .2 1.7.3h3.6l1-.2h.7c.3-.2.6-.3 1-.3l.8-.3 1.7-.6 1.5-.5 2.4-1 .8-.2-.6 1-1.8 1.7-1.4 1c-.5.5-1 .8-1.7 1.2l-2 .7-1 .3-1.2.2H183c-.7 0-1.5 0-2.2-.3-.6-.3-1.3-.6-1.8-1l-1.6-.8-1-1-1-.8-.6-.7z"/></g><g fill="#23A3B0"><path d="M131.3 265.7c-11 13.7-4.8 51.6-4.3 56.2.5 4.4 1.8 9 4 12 2.5 3.3 6 4.3 9 4 3-.6 5.8-2.4 8.6-4.3M237 266.2c8 11.5 4.5 51 4 55.7-.5 4.4-1.8 9-4 12-2.5 3.3-6 4.3-9 4-3-.6-5.8-2.4-8.6-4.3"/></g><g><path fill="#FFF" d="M231 330.7h-95c-1.8 0-3.3-1.4-3.3-3.3v-52c0-1.8 1.5-3.3 3.3-3.3h95c1.8 0 3.2 1.6 3.2 3.4v52c0 2-1.4 3.3-3.2 3.3z"/><path fill="#D3D3D3" d="M237.2 334v-3.3H128.5v3.2h108.7z"/><path fill="#FFF" d="M128.5 334c0 3 2.5 5.3 5.4 5.3h98c2.8 0 5.2-2.4 5.2-5.3H128.5z"/></g><g><circle fill="#EAEAEA" cx="182.3" cy="302.9" r="11.5"/><circle fill="#C4C4C4" cx="182.3" cy="302.9" r="6.1"/></g></g><g clip-path="url(#b)"><ellipse opacity=".2" fill="#91959D" cx="38.4" cy="231.3" rx="34.3" ry="2.3"/><path fill="#FFD2B2" d="M37.4 160.8s-7-1.7-9 1c-2.3 3 .2 2.6 0 4.7-.2 2-4.2 3.7-6.5 1.4-2.4-2.4 1-18.8 17.3-14.2l-2 7z"/><path fill="#FF975F" d="M22.6 166.8c.4-.6 1-1.2 1.6-1v-.3c.6 0 1 .5 1.3.7.5.3 1.2.8 1.6 0 .4-.6 0-1-.3-1.6l-1-1.4s0-.2 0 0c1 .6 2.6 2.7 2 3.5-.7.6-1.3.7-2 .4-.5 0-1-.4-1.3-.8h-1l-.7.8c0 .2-.3 0 0-.2z"/><path fill="#FFD2B2" d="M75 171.6s5.4 4.4 8.6 2.7c3.2-1.7.8-2.4 1.8-4.2 1-1.7 5.4-1.6 6.6 1.5 1 3-8.7 16.6-21.7 5.6l4.6-5.4z"/><path fill="#FF975F" d="M85.2 170.6s.4-.2.4 0c0 1.2 0 2.2 1 3 2 1.3 3.2-.2 3.4-.5v.2c0 .5-.6 2-3 1.3-1.4-.4-2.4-2.5-1.8-4z"/><path fill="#FF975F" d="M86.4 174.2c.2 0 .3.4.3.6l.7.7c.4.3 1 .2 1.6.3.2 0 .2.6 0 .6-.8.2-1.3-.2-1.8-.6-.4-.4-1-1-.8-1.6z"/><g><path fill="#FFD2B2" d="M60.7 220.7l-4-21.3L46 202l11 20"/><path fill="#00AEEC" d="M57 221.5s0 2.8 1.8 4.6c0 0 10.4-2 13.8-4.7 0 0-7.2-2.4-12-2.4l-3.5 2.5z"/><path d="M63 219.3c.3-.5 1-1 1.5-.6v.2l-.4 1c-.2.4 0 1 0 1.6 0 .7-1 1-1.3.2-.2-.8 0-1.7.3-2.5zM65.5 221.6c0-.6.2-1 .4-1.6 0-.2.7-1 1-.6.2.3 0 .7 0 1v1.2c0 .4-.4.7-.8.7s-.7-.3-.7-.7z"/><path fill="#FFF" d="M60.7 221.5c-.7 1-1 2.4-1.2 3.6 0 .2 0 .2 0 0 .5-1 1-2.2 1.3-3.4zM61.6 222.7l-1 2.6c0 .3.5.4.6 0 .3-.7.4-1.6.5-2.5zM63 223.2h-.2l-.6 1.4c-.2.4.3.7.5.3.2-.6.4-1.2.2-1.8z"/><path fill="#FFD2B2" d="M10 186l15.2 6.2-.6-8.6-13.4-1"/><path fill="#00AEEC" d="M12.8 182.6s-1.4-2.5-4-3c0 0-7.4 7.6-8.8 11.6 0 0 7.3-2 11.3-4.5l1.5-4z"/><path d="M8.3 185.5c.5.5.6 1 .7 1.7 0 .6 0 1.4-.4 1.8 0 0-.5 0-.6-.2v-1.4c0-.5 0-1-.3-1.4 0-.4.3-.7.6-.5zM6.3 187.3c.6.4.8 1.5.8 2.2 0 .6-.8.5-1 0v-1l-.4-1c0-.2.4-.4.7-.2z"/><path fill="#FFF" d="M9.4 182H7.7c-.3.3-1 .6-1.2 1 0 .4 0 .7.4.7.3 0 .7-.4 1-.7l.8-.5c.2-.2.3-.5.7-.6 0 0 0-.2 0 0zM8 184.2h-.4c0 .2-.4.3-.5.3-.2 0-.4.2-.5.4h.7c.2-.4.6-.5 1-.7 0 0 0-.2-.2 0zM7.3 185.6c-.5.2-1.2 0-1.6.6 0 0 0 .4.2.4.5 0 1-.6 1.4-1z"/><g><path fill="#004774" d="M38 177.8c0-.2.2-.2.3-.2l-2.7-1.5c-4 5.5-7.4 6.3-12.3 6.5v1c2.4 0 5 0 7-1.2 2.2-1.2 3.6-2.6 5.2-4.4.3-.4.7 0 .5.3-2.3 4.5-8 7.3-13 6.4v1.7c3-.5 5.4-.5 8-2 3-1.7 5-4 7-6.6z"/><path fill="#004774" d="M58.3 188.4l-19.6-10.6v.4c-2.7 5-9.7 10-15.6 8.6 0 3.6.2 7.5.8 8.5C37 198 42.5 193 42.5 193l1.4 11.5c4.4 1 9 1.7 14 1.8-.5-2.5 0-5.2 0-7.7-.3-3.4-.8-6.6-1.4-10 0-.3.6-.5.7 0 .6 3 1.2 6 1.4 9 .2 2.7.6 6-.4 8.7h1.2c.4-10.7-1.2-18-1.2-18z"/><path fill="#FFF" d="M36 178.3c.2-.3-.2-.7-.5-.4-1.6 1.7-3 3-5 4.3-2.3 1.3-4.8 1.3-7.3 1.3v1c5 1 10.5-1.8 12.8-6.3zM38.3 177.6l.4.2c0-.2-.2-.2-.4-.2zM22.4 186.5l.7.3v-.4h-.6z"/><path fill="#FFF" d="M38.7 178.2v-.4l-.4-.2s-.3 0-.3.2c-2 2.7-4 5-7 6.6-2.6 1.5-5 1.5-8 2v.4c6 1.3 13-3.7 15.7-8.6zM58 206.6c0 .2 0 0 .2 0v-.3H58v.3zM58.7 197.6c-.2-3-.8-6-1.4-9 0-.5-.8-.3-.7 0 .6 3.4 1 6.6 1.3 10 0 2.5-.5 5.2 0 7.7h.3c1-2.6.6-6 .4-8.7z"/></g><path fill="#FFBB04" d="M69.6 166.2l7 4.8s-.8 7.3-6 9.2l-6-4.6-4.5 13.7s-12 .5-26.2-12.6l8.2-13.2-7.7-.7s-.2-6 3-10.3c0 0 14.3 2 32.3 13.7z"/><circle fill="#FF3C2F" cx="81.4" cy="212.7" r="9.5"/><path fill="#FF3C2F" d="M91.6 207.5h-.2c0 1.8.3 3.5.3 5.2 0 1.7-.2 3.4-.4 5 0 .3.4.3.4 0 1-3 1-7 0-10.2zM94 209.5c0-.3-.2-.2-.3 0 0 1.7-.2 3.3-.5 5-.3 1.3-.8 2.6-1 4 0 .3.6.4.8 0 1.7-2.2 2-6.3 1-9zM72.7 206c-1.7 1.5-2.5 4.5-2.2 6.6 0 .2.3.2.3 0l.6-3.2c.4-1.2 1-2.2 1.4-3.2 0 0 0-.2 0 0zM70.8 206.4c-.5.2-.8.4-1 1-.3.3-.5 1-.5 1.5 0 .2.5.4.7 0l.4-1.2c0-.4.3-1 .5-1.3 0 0 0-.2-.2 0z"/></g><g><g fill="#FFD2B2"><path d="M79 133.4l5 13c1.3 3.4 0 10.8-5.7 14.6-5.7 3.8-20.3 6.6-23.8 3.6l-6.7-5.5s-3.5 1.8-6.6-2c-3-3.4-1-7.5 2.5-9h.4c-.3 0-5.8-10.5 1-15.3 6.8-4.8 26-15.7 34 .7z"/><path opacity=".2" d="M54.8 161.8c-2.4-3-4.8-6-6.3-9.5-2.8-6.5-.3-13.3 5.7-16 4.6-2.3 9.2 1.6 18.5.3 4.6-.6 4.7-4.8 6-2.7 1 1.6 2.4 5.7 3.3 7.5l-3-8c-8-16.5-27.2-5.6-34-.8-6.8 4.8-1.3 15.4-1 15.2h-.3c-3.4 1.5-5.5 5.6-2.5 9 3 3.8 6.6 2 6.6 2l6.7 5.6c1 .8 2.5 1 4.5 1-1.6-1-3-2.2-4.2-3.8z"/></g><path fill="#383838" d="M58.3 148c.8-.5 1.8-.8 2.6-.6 0-.5 0-1-.4-1.6-.6-1-1.6-1.7-2.4-1.3-.8.4-1 1.6-.4 2.7 0 .3.3.5.5.8z"/><ellipse transform="rotate(-25.986 59.542 145.8)" fill="#FFF" cx="59.6" cy="145.8" rx=".7" ry="1.1"/><g fill="#FF975F"><ellipse transform="rotate(-8.467 60.132 150.192)" opacity=".1" cx="60.1" cy="150.2" rx="4.8" ry="2.6"/><path d="M55.2 150.2s3.4-3.5 8.6-2c0 0-3.8-3.5-8.6 2z"/></g><path fill="#383838" d="M76 141.3c-.8.2-1.5.7-2 1.4-.3-.3-.6-.7-.8-1.3-.4-1 0-2.2.7-2.5.6-.4 1.5.3 2 1.4v1z"/><path fill="#FFF" d="M74.2 140.4c.2.5.6.8 1 .7.3 0 .5-.6.3-1-.2-.6-.6-1-1-.8-.3 0-.5.6-.3 1.2z"/><g fill="#FF975F"><path opacity=".1" d="M73.4 146c.8 1.2 3.2 1 5-.5 2-1.6 2.5-3 1.7-4.2-.6-1.2-3.2-1-4.6 0-2 1.5-2.8 3.7-2 4.8z"/><path d="M79 140.6s-4 0-6 5c0 0 1-6.3 6-5z"/></g><path fill="#6B2308" d="M40 138.3s-1.7-3.4.8-7.5c2.6-4 4-5.2 4-5.2l-1 4.7s3.4-6.5 12-8c8.6-1.3 15 .8 18.5-.4s4.3-2.8 4.3-2.8.2 3.8-1.4 5c-1.5 1.4 4-.7 4-.7s-1.2 10.2-11.7 11.8c-10.5 1.7-15.3-3.2-19.2 4-.3.5-.5.2-.5.2s3 5.4-1 11.4c0 0-3.3-3.5-6.3-2 0 0-3-.2-5-4.3-2-4 2.6-6.4 2.6-6.4z"/><path opacity=".5" fill="#FFD2B2" d="M44.4 152.6c-1.4-.7-.4 3.5 0 4 1 .7 3 .4 3-.6.2-1.2-1.5-2.8-3-3.4z"/></g><path fill="#FFF" d="M71 148.7c-2.8 0-5 1.6-6.2 3.8 3.4-.4 6.7-1 9.4-3-1-.5-2-.8-3.2-.8z"/><path fill="#FF975F" d="M74.2 149.5c-2.7 2-6 2.6-9.4 3-.4 1-.7 1.8-.7 2.8 0 3.7 3.2 6.6 7 6.6s6.8-3 6.8-6.7c0-2.5-1.4-4.7-3.6-5.8z"/></g><g clip-path="url(#b)"><ellipse opacity=".2" fill="#91959D" cx="303.8" cy="205.6" rx="33.2" ry="1.9"/><path fill="#FFD2B2" d="M307.8 142s6.6-1.4 8.7 1c2.2 2.5-.3 2.3 0 4 0 1.8 4 3.3 6.2 1.3 2.3-2-1-16.2-16.8-12.2l1.8 6z"/><path fill="#FF975F" d="M322 147.3c-.3-.5-.8-1-1.4-.8 0-.2 0-.3-.2-.3-.5 0-.8.4-1 .6-.6.2-1.3.7-1.7 0-.3-.5 0-1 .4-1.4.4-.4 1-.8 1-1.2-1 .5-2.4 2.3-1.7 3 .5.6 1 .6 2 .3.3 0 .7-.3 1-.7h1c.2.2.5.4.6.7 0 .2.2 0 0-.2z"/><path fill="#FFD2B2" d="M271.4 151.4s-5.3 3.8-8.4 2.4c-3-1.5-.8-2-1.8-3.7-1-1.4-5.2-1.3-6.3 1.3-1.2 2.7 8.3 14.4 21 5l-4.6-5z"/><path fill="#FF975F" d="M261.4 150.6s-.3-.2-.3 0c0 1 0 1.8-1 2.5-1.8 1.3-3 0-3.2-.2 0 .4.6 1.7 3 1 1.2-.2 2.3-2 1.6-3.2z"/><path fill="#FF975F" d="M260.3 153.7c-.2 0-.3.3-.4.5l-.6.6c-.4.3-1 .2-1.6.3-.3.2-.3.5 0 .6.7 0 1.2-.2 1.7-.6.4-.3 1-1 .8-1.3z"/><g><path fill="#FFD2B2" d="M294.6 196s0-12.4 3-19l-10.5.7s-.2 9.7 3.5 19.4l4-1z"/><path fill="#9AB200" d="M294.6 196s2.3 1.6 2.4 3.8c0 0-8 5.7-12 6.5 0 0 2.6-6 5.5-9.2l4-1z"/><path d="M289.4 198.8c-.6 0-1.4 0-1.4.7l1 .3c.7.2 1 .6 1.5 1s1.3-.3 1-.8c-.6-.6-1.3-1-2-1.2zM289.6 201.7c-.4-.3-1-.5-1.5-.5-.2 0-1.2 0-1 .4 0 .3.4.4.7.6.3 0 .7.3 1 .5.3.2.7.2 1 0 .2-.4.2-.8 0-1z"/><path fill="#FFD2B2" d="M333.4 164.6l-14.4 5.6 1-7.8 13-1"/><path fill="#9AB200" d="M331.6 161s2-1.7 4.4-1.5c0 0 5 8 5.4 11.6 0 0-6.3-3-9.4-6.2l-.4-3.7z"/><path d="M335 164.6c-.5.2-.8.7-1 1.2-.3.4-.5 1-.2 1.6h.7c.2-.4 0-.8.2-1.2.2-.4.5-.8.8-1 .2-.4-.2-.8-.5-.6zM336.5 166.5c-.7.2-1.2 1-1.4 1.7 0 .5 1 .6 1 .2l.5-.8.5-.7c0-.4-.2-.6-.5-.5z"/><path fill="#00A090" d="M323.3 171.2l.6-10.3c-5-.2-10.7-1-14.5-5.7l-22 10.7s-3 7-.7 21c4.4.2 9.2-.3 13.4-1l2.6-16s7 4.5 20.5 1.2z"/><path fill="#FFC633" d="M284.8 164.2c8.7-2.6 17.5-6 24-11.7l-2.8-4c-6.4 5.4-14 8.8-22.7 11.5l1.5 4.2zM272.5 149.2l-2.8 1.7s.8 6.2 5.8 7.8l1.7-1c-2.7-2-4-5.3-4.7-8.6z"/><path fill="#FFB700" d="M276.6 146.8l-4 2.4c.6 3.3 2 6.6 4.6 8.5l4-2.8 2 5c8.7-2.7 16.4-6 22.8-11.6l-2.7-4 4-.3c-.7-2.6-.8-6-2.5-8.5-5 1-15.7 4-28.2 11.3z"/><path fill="#FFC633" d="M308 135s-1.2 0-3.2.5c1.7 2.4 1.8 5.8 2.4 8.6l3.5-.2s.3-5.2-2.8-8.8z"/><path fill="#FFB700" d="M309 152.5c-6.7 5.7-15.5 9-24.2 11.7l1 2.5s11.6.4 25.4-10.8l-2.3-3.5z"/></g><g><path fill="#FFC9A3" d="M280.6 142l3.4 4s3.6 3.8 8-3l-.4-2.6s-9.4 2-11 1.5z"/><g fill="#FFD2B2"><path d="M264.3 121.4s.2 9 0 12c-.2 5.2 3.6 8 10 9.3 6.5 1.3 21-.5 23-4l4-6.5s4 .3 5.4-3.7c1.5-3.7-2-6.3-5.5-6.4h-.4c.4 0 1.6-10-6.2-12-7.8-1.6-29-4.3-30.3 11.4z"/><path opacity=".2" d="M296 136.6c1.2-3 2.2-6.4 2.4-9.7.2-6.2-6-10.5-12.3-11.2-.4 0-.7.3-.6.7 1 2.6-4.7.3-5.7 0-.3 0-.7.3-.7.6.6 2-4.6-.5-5.5-.8-1.7-.6-3.8-.2-5.3.7-2.2 1.4-2.5 4.6-3 6.8l-1 5v-7.4c1.4-15.7 22.6-13 30.4-11.3 7.8 2 6.6 12 6.2 12h.4c3.6.2 7 2.8 5.5 6.5-1.5 4-5.3 3.7-5.3 3.7l-4 6.6c-.6 1-2 1.6-3.7 2 1-1 2-2.6 2.4-4.2z"/></g><path fill="#383838" d="M288 126.6c-1-.2-1.8 0-2.5.3-.2-.4-.4-1-.3-1.5 0-1 1-1.8 1.7-1.7.7 0 1.3 1 1.2 2 0 .3 0 .5-.2.8z"/><path fill="#FFF" d="M285.3 125c0 .5 0 1 .5 1 .4 0 .7-.3 1-.7 0-.5-.2-1-.6-1-.4 0-.8.3-1 .7z"/><g fill="#FF975F"><path opacity=".1" d="M282.7 130c.3 1 2.6 1.7 5 1.2 2.5-.5 4.3-2 4-3.2-.3-1.2-2.6-1.8-5-1.3-2.6.5-4.3 2-4 3.2z"/><path d="M291.6 127.4s-4.3-1.8-8.4 1c0 0 3.6-4 8.4-1z"/></g><g><path fill="#383838" d="M269.7 126.8c.8 0 1.6 0 2.2.5.2-.3.3-.8.3-1.3 0-1-.8-1.8-1.5-1.8-.8 0-1.4.8-1.3 2 0 0 0 .4.2.6z"/><ellipse transform="rotate(11.536 270.294 125.284)" fill="#FFF" cx="270.3" cy="125.3" rx=".6" ry=".8"/><g fill="#FF975F"><path opacity=".1" d="M273.8 129.8c-.3 1.2-2.6 1.7-5 1-2-.5-3-1.6-2.8-2.7.3-1 2.6-2 4.3-1.4 2.2.7 3.8 2 3.5 3.2z"/><path d="M266.5 127.3s3-1.5 7 1.4c0 0-3.2-4-7-1.4z"/></g></g><g><path fill="#FF975F" d="M267.4 132s8 2.5 21.5-1.8c0 0-.2-.4-1.6-1.2 0 0 2 0 3.2 1.6 1.2 1.6.7 2.3.7 2.3s-1.7-2.7-1.8-2c-.7 5.6-11 17.3-22 1z"/><path fill="#FFF" d="M268.4 132.7s9 2.6 20.3-1.8c0 0-1 7-7.2 8.6-6.3 1.7-11.8-4.4-13-7z"/></g><path fill="#6B2308" d="M268.5 114s3.4 1.8 6.4 2.3 1.7-1.8 1.7-1.8 1.8.7 5.3 1.3c3.4.7 2.4-1.3 2.4-1.3l9.7 2.7c2.4.6 2.6 7 2.6 10.4 0 3.6 1.5 3 1.5 3l1.2-6.5s1-1.5 3.3-1.4c3.7 0 5.3 5 2.8 7.8-2.3 2.7-4 1.8-4 1.8s2.7 2 5.5 1.2c3-.7-.2-2.2 1.7-2.5s-.7-2.8.8-3.4c1.5-.5-3-3-2.7-7.6.2-4.5.8-10-2.8-12.6-3.6-2.7-39.3-5.8-42 1 0 0 0 .8 4.4.3s-10.4 2.7-6 5c4.7 2 5 0 5 0s-4.7 4-2.2 6.2c0 0 .3.5 2.5-1 2.2-1.7 4-4 3-5z"/><g fill="#FFD2B2"><path d="M301.4 126.7s0-.3 0 0zM304 127.6z"/><path opacity=".3" d="M304 127.6c.3-.2.3-.4.3-.7 0-.3-.3-.5-.5-.6l-1-.2h-.3c-.4 0-.7 0-1 .3v.2l-.3.4c0 .4-.3.8-.4 1-.2.4-.2.8 0 1 0 .4.4.5.6.5l.4.3c.6 0 1-.2 1.3-.6.3 0 .4-.3.6-.5l.2-.7.2-.3z"/></g></g></g><g opacity=".5"><path fill="#FFF" d="M185.5 108c-3 0-5.8-1-8-3-2.4-2.3-3.5-5-3.6-8-.2-3 .8-5.8 3-8 2-2.4 4.7-3.6 7.8-3.7 3 0 5.8 1 8 3 2.4 2.2 3.6 5 3.6 8s-1 5.8-3 8c-2.2 2.3-4.8 3.5-8 3.6zm-44-47.3l-11-10.3c3.5-3.7 7.3-7 11.5-10s8.5-5.3 13-7.3c4.3-1.8 9-3.4 13.7-4.4 4.8-1 9.6-1.7 14.4-2 4.8 0 9.6.3 14.5 1 4.8 1 9.5 2 14 3.7 4.6 1.7 9 4 13.3 6.5 4.4 2.7 8.4 5.8 12 9.3l-10.2 11c-4-3.7-8.4-6.8-13-9.3-5-2.5-9.8-4.3-14.8-5.5-5-1-10-1.6-15.3-1.4-5.3 0-10.4 1-15.3 2.4-5 1.4-9.6 3.5-14.2 6.3s-8.8 6.2-12.6 10.2zm22 20.7l-11-10.3c4.2-4.3 9-7.8 14.6-10.2 5.6-2.5 11.3-3.8 17-4 5.7 0 11.4.8 17 3 5.8 2 10.8 5 15.3 9.3L206 80c-3-2.7-6.4-4.8-10.2-6.2-3.8-1.4-7.6-2-11.4-2-3.8.2-7.5 1-11.2 2.7-3.7 1.6-7 4-9.8 7z"/></g></svg>