<svg xmlns="http://www.w3.org/2000/svg" xmlns:xlink="http://www.w3.org/1999/xlink" width="378.7" height="376.6" viewBox="0 0 378.746 376.645"><circle fill-rule="evenodd" clip-rule="evenodd" fill="#FCF394" cx="189.8" cy="189" r="183.8"/><path fill-rule="evenodd" clip-rule="evenodd" fill="#E8E18E" d="M189.5 5.2C88 5.4 6 87.6 6 189s82 183.6 183.5 183.8V5.2z"/><defs><circle id="a" cx="189.5" cy="189" r="183.8"/></defs><clipPath id="b"><use xlink:href="#a" overflow="visible"/></clipPath><g fill-rule="evenodd" clip-rule="evenodd" clip-path="url(#b)"><path fill="#58595B" d="M18.5 243.8c-16.8.6-16.6 27.4 0 28h126v-28h-126z"/><path fill="#4B4A4B" d="M6 257.8c0 6.8 4.2 13.6 12.5 14h126v-14H6z"/><path fill="#BBBDBF" d="M93 103.2c-3.4 2.3-22.4 56-24 72.2-1.8 16.2 12.7 24.6 20.3 28 7.5 3.3 57 15.5 56.6 15.3-.2 0 36.2 10.6 67.5 17 32.4 6.5 59.8 8.5 61.2 8.5 2.8 0 51.3-70.2 51.3-73.6 0-3.3-11.4-21.7-18.4-27S93 103.2 93 103.2z"/><path fill="#808184" d="M91 204c11 4 55.3 15 55 14.7-.2 0 16 4.7 36.2 9.8 3.2-2 5-4.3 5-7.4 0-10.6-22-24.3-49-30.5-27-6.2-49-2.5-49 8.2 0 1.7.7 3.4 1.7 5.2z"/><path fill="#C96C38" d="M213.4 235.6c29.8 7.5 56 9.3 58 9 1.8 0 54.6-70.6 54.6-74 0-3.3-11.4-21.7-18.4-27-3-2.3-42-10.2-86-18.7-5 8.7-20.6 28.2-29.2 49.5-4.2 10.5-11 25-7 29.2l28 32z"/><path fill="#404041" d="M309 132.8c1.5-.4 16.5-1.8 16.5-1.8 17 7.6 35.3 21 33 42.4-.4 2.5-44 43.6-46.7 44.7S288.6 208 288.6 208l20.5-75z"/><path fill="#E1792C" d="M315.4 215.2l-3.6 3c-1.2.4-5.8-1.5-10.5-3.8l-1-2.4 10.4 4 4.6-3v2.2z"/><path fill="#F8A770" d="M320.6 132c2.8-.3 5-1 5-1 17 7.6 35.2 21 32.8 42.4-.3 2.5-43.8 43.6-46.6 44.7 0 0-1.5-2-1-2s45.7-43 45.7-43c3-19-25.5-40-36-41z"/><path fill="#58595B" d="M299.5 219.3c18.4-21.6 38.8-46.3 37-48l-29.2-31.8-39-5c-9.5 18.4-44.6 69.2-31.3 81.6l26.4 25c12.5 11.7 23.3-6.6 36-21.7z"/><path fill="#404041" d="M297.7 158c-9.8-4.5-26 6-36.3 23.2-10.3 17.2-10.6 34.7-.8 39 9.8 4.3 26-6 36.4-23.3 10.2-17.4 10.6-34.8.7-39z"/><path fill="#BBBDBF" d="M290.8 169.5c-6-2.7-16.4 3.8-22.8 14.6-6.4 11-6.6 22-.5 24.6 6.2 2.7 16.4-4 22.8-14.7 6.5-11 6.7-21.8.5-24.5z"/><path fill="#F8A770" d="M327.3 132.6s-55.5 43-59 44.3c-3.4 1-10-3.2-10-3.2s61.4-42.2 61.8-42.3l7.3 1z"/><path fill="#F48120" d="M78.2 92.6c-1.6 2.8 1 24 3 24.4 1.8.6 108.8 20 124.2 23.8 15.4 4 52.2 37 59.2 35s60.8-44.8 60.8-44.8L78.3 92.6z"/><path fill="#666869" d="M113.5 204.3V284h45.3v-67c.3-11.5-40-25-45.3-12.7z"/><path fill="#6D6E70" d="M132.8 200.3c12.5 2.5 26 10 26 16.8v67h-26v-83.7z"/><path fill="#393435" d="M136.2 288.7c-12.5 0-22.7-2-22.7-4.6s10.2-4.5 22.7-4.5c12.4 0 22.6 2 22.6 4.6s-10.2 4.7-22.6 4.7z"/><path fill="#404041" d="M136.2 287c-11.6 0-21-1.3-21-3s9.4-2.8 21-2.8 21 1.3 21 3-9.5 3-21 3z"/></g></svg>