<svg xmlns="http://www.w3.org/2000/svg" xmlns:xlink="http://www.w3.org/1999/xlink" width="379.9" height="376.6" viewBox="0 0 379.925 376.645"><defs><circle id="a" cx="190" cy="189" r="184.1"/></defs><clipPath id="b"><use xlink:href="#a" overflow="visible"/></clipPath><circle clip-path="url(#b)" fill="#FFF" cx="190" cy="187.7" r="184.1"/><path clip-path="url(#b)" fill="#EFEFEF" d="M190 3.7C88.3 3.7 6 86 6 187.7c0 101.7 82.3 184 184 184"/><path clip-path="url(#b)" fill="#6CC04A" d="M313 136.4l-20.8 17.8 22.6 9.6"/><g clip-path="url(#b)"><path fill="#FFD923" d="M320 243.5l30 12-12.2 30.2-30-12.2z"/><path fill="#FFF" d="M323 250.5l20 8-8 20-20-8z"/><text transform="rotate(22.038 -530.934 958.823)" fill="#1E252B" font-family="'LeagueSpartan-Bold'" font-size="18.4">A</text><path fill="#F2D383" d="M320 243.5l15 6-12.2 30-15-6z"/></g><path transform="rotate(-44.996 213.426 67.968)" clip-path="url(#b)" fill="#6CC04A" d="M204 58.6H223v18.7H204z"/><g clip-path="url(#b)"><path fill="#2F7DE1" d="M68.6 114L55 118.7l.3-14.6-9-11.6 14-4 8.3-12 8.2 12 14 4-9 11.6.5 14.6"/><path fill="#A0AEE5" d="M68.6 114L55 118.7l.3-14.6-9-11.6 14-4 8.3-12"/></g><g clip-path="url(#b)"><path fill="#E74360" d="M292 323.8l-10.5 3.8.3-11.3-7-9 11-3.2 6.3-9.2 6.5 9.3 10.8 3.3-7 9 .4 11.3"/><path fill="#A4A9AD" d="M292 323.8l-10.5 3.8.3-11.3-7-9 11-3.2 6.3-9.2"/></g><g clip-path="url(#b)"><path fill="#76391B" d="M297 71.2c3.2.2 5.8 3 6 6 0 0 0 4.2-5.7 11.5-5.7 7.4-10 8.7-10 8.7-3 1-6.4-1-7.3-4L274.5 76c-1-3 1-5.4 4-5.3l18.6.7z"/><path fill="#D1D3D3" d="M275 72c-.8 1-1 2.3-.5 3.8l5.5 17.7c1 3 4.2 4.8 7.2 4 0 0 4.4-1.4 10-8.6L275 72z"/><path fill="#FF671B" d="M227.3 35.4c6.4-8.3 21.7-4 36 7 14.4 11 19.8 28.2 16 33-3.5 4.7-21.5 4-36-7-14.3-11-22.4-24.6-16-33z"/><g fill="#C3C6C8"><path d="M241 58c-.8.2-1.7 0-2.4-.6-.2 0-.2-.3 0-.5 0-.2.3-.3.4 0 1 .7 2.7.5 3.5-.6 1-1 .6-2.7-.4-3.5v-.6c0-.2.3-.2.5 0 1.4 1 1.7 3 .6 4.4-.4.7-1.2 1-2 1.3z"/><path d="M244.5 53.5c-1 0-1.8 0-2.4-.6v-.6c0-.2.3-.2.5 0 .5.3 1.2.5 1.8.4.7 0 1.3-.4 1.7-1 .8-1 .6-2.6-.5-3.4 0-.2-.2-.4 0-.5 0-.3.3-.3.5-.2 1.4 1 1.6 3 .6 4.5-.6.7-1.3 1-2 1.2z"/></g><g fill="#C3C6C8"><path d="M255.2 54.4c-.8 0-1.7 0-2.4-.7v-.5h.5c.5.4 1.2.6 1.8.5.8 0 1.4-.5 1.8-1 .4-.5.6-1.2.5-1.8 0-.8-.5-1.4-1-1.8 0 0-.2-.3 0-.5 0 0 .3-.2.5 0 .6.5 1 1.2 1.2 2 0 1 0 1.8-.6 2.5-.6.6-1.3 1-2.2 1.2z"/><path d="M258.7 50c-.8 0-1.7-.2-2.4-.8 0 0-.2-.3 0-.5 0 0 .3-.2.5 0 1 .8 2.6.6 3.5-.5.8-1 .6-2.7-.5-3.5-.2 0-.2-.4 0-.5 0-.2.3-.2.4 0 1.4 1 1.7 3 .6 4.4-.5.7-1.3 1-2 1.3z"/></g><g fill="#C3C6C8"><path d="M266.4 67c-.8 0-1.7-.2-2.4-.8 0 0-.2-.3 0-.5 0 0 .3-.2.5 0 1 .8 2.6.6 3.5-.5.4-.5.5-1.2.5-2 0-.5-.5-1-1-1.5-.2 0-.2-.4 0-.5 0-.2.3-.2.4 0 .6.4 1 1.2 1.2 2 0 1 0 1.8-.7 2.4-.5.7-1.3 1-2 1.3z"/><path d="M263 71.4c-1 0-1.7 0-2.4-.6-.2-.2-.2-.4 0-.5 0-.2.2-.2.4 0 1 .7 2.7.5 3.5-.6.4-.5.6-1.2.5-1.8 0-.8-.4-1.4-1-1.8 0 0-.2-.3 0-.5 0 0 .3-.2.5 0 .6.5 1 1.2 1.2 2 0 1 0 1.8-.6 2.5-.5.7-1.2 1-2 1.2z"/><path d="M267 71c-1 0-1.7-.2-2.4-.8-.2 0-.2-.3 0-.5 0 0 .2-.2.4 0 1 .8 2.7.6 3.5-.5.8-1 .6-2.7-.5-3.5 0 0-.2-.3 0-.5 0-.2.3-.2.5 0 1.4 1 1.6 3 .6 4.4-.5.7-1.2 1.2-2 1.3z"/><path d="M270.4 66.3c-.8 0-1.7 0-2.4-.6 0 0-.2-.4 0-.5 0-.2.3-.2.5 0 .5.3 1.2.5 1.8.4.7 0 1.3-.4 1.7-1 .4-.5.6-1 .5-1.8s-.5-1.2-1-1.6c0-.2-.2-.4 0-.5 0-.2.3-.2.4 0 .6.4 1 1.2 1.2 2 0 1 0 1.7-.7 2.4-.5.8-1.2 1.2-2 1.3z"/><path d="M270 62.3c-1 0-1.8 0-2.5-.6-.2 0-.2-.4 0-.5 0-.2.3-.2.4 0 .5.3 1 .5 1.8.4.7 0 1.2-.4 1.6-1 1-1 .7-2.6-.4-3.4-.2-.2-.2-.4 0-.5 0-.2.3-.2.4 0 1.4 1 1.7 3 .6 4.4-.5.8-1.3 1.2-2 1.3z"/></g><path fill="#D1D3D3" d="M279.4 75.4c-3.6 4.7-21.6 4-36-7-14.4-11-22.5-24.6-16-33l52 40z"/><path fill="#76391B" d="M263.7 51.8c1.6 0 3 1.5 3 3.2 0 0 0 2.2-3 6-3 4-5.3 4.7-5.3 4.7-1.6.5-3.3-.4-3.8-2l-3-9.4c-.4-1.7.5-3 2.2-3l10 .5z"/><g fill="#76391B"><path d="M229.5 32.6c-.8-.6-2-.5-2.5.3-.6.7-.5 1.8.3 2.4l6.5 5c.8.6 2 .5 2.6-.3.6-.7.4-1.8-.4-2.4l-6.5-5z"/><path d="M227.3 35.4c-.7-.6-2-.4-2.5.4-.6.8-.4 2 .3 2.5l6.7 5c.7.6 2 .4 2.5-.4.6-.8.4-2-.4-2.6l-6.5-5z"/></g><path fill="#76391B" d="M243.5 39.6h-.2c-.4 0-.7-.4-.6-.8 0-1-.3-2-1-2.5-1-.6-2-.7-2.8-.4-.5 0-1 0-1-.5-.2-.4 0-.8.4-1 1.4-.5 3-.3 4 .6 1.3 1 2 2.5 1.7 4 0 .3-.2.6-.5.6z"/></g><path clip-path="url(#b)" fill="#2F7DE1" d="M85.7 268L98 243.6H73.4"/><g clip-path="url(#b)"><defs><path id="c" d="M48 63.4h284v353H48z"/></defs><clipPath id="d"><use xlink:href="#c" overflow="visible"/></clipPath><g clip-path="url(#d)"><path fill="#EFC39C" d="M96.3 316.2c-2 0-3.8-.7-5.3-2-15.2-13.5-28.2-36-38.6-67-1.4-4 1-8.6 5-10 4.2-1.4 8.7.8 10 5 9.6 28.3 21 48.5 34 60 3.4 3 3.7 8 .8 11.3-1.5 1.7-3.7 2.7-6 2.7z"/><path fill="#2F7DE1" d="M126.2 328.7c-9.6 0-22-3-35.2-14.5l10.5-12c14.6 13 27.2 11.3 33.4 9.2l5 15c-3 1-7.8 2.3-13.8 2.3z"/><path fill="#EFC39C" d="M283.6 316.2c-2.2 0-4.3-1-6-2.7-2.8-3.3-2.5-8.3.8-11.2 13-11.6 24.5-31.8 34-60 1.4-4.3 6-6.5 10-5 4.2 1.3 6.5 5.8 5 10-10.3 31-23.3 53.4-38.5 67-1.6 1.2-3.5 2-5.4 2z"/><path fill="#2F7DE1" d="M253.8 328.7c-6 0-11-1.2-13.8-2.2l5-15c6.3 2 19 3.6 33.4-9.2l10.5 12c-13 11.4-25.7 14.4-35.2 14.4z"/><g><path fill="#2F7DE1" d="M124.4 281v95.6c0 36.2 29.4 65.5 65.6 65.5 36.2 0 65.5-29.2 65.5-65.4V281h-131z"/><path fill="#003B71" d="M191 361.8c4.4 4.6 11.8 4.6 16.3 0 4.6-4.5 4.6-12 0-16.4-3.6-3.7-9-4.4-13.5-2l-20-20.2-8 8 3.5 3.4 3-3 3.5 3.7-3 3 3.6 3.4 3-3 9.4 9.6c-2.3 4.3-1.6 10 2 13.5zm3.5-12.8c2.6-2.5 6.7-2.5 9.2 0 2.6 2.5 2.6 6.7 0 9.2-2.5 2.6-6.6 2.6-9.2 0-2.5-2.5-2.5-6.7 0-9.2z"/><path fill="#D8DADA" d="M124.4 281v18.8c19 11.6 41.6 18.3 65.6 18.3 24 0 46.4-6.6 65.5-18.2v-19h-131z"/><path fill="#003B71" d="M124.4 376.6c0 36.2 29.4 65.5 65.6 65.5 36.2 0 65.5-29.2 65.5-65.4h-131z"/></g><g><circle fill="#BF8D60" cx="301.9" cy="199.5" r="12.9"/><path fill="#D8DADA" d="M307 187.6c-1.6-.7-3.3-1-5-1-7.2 0-13 5.8-13 13 0 7 5.8 12.8 13 12.8 1 0 2.2 0 3.3-.4 1-6.6 1.7-13.4 1.7-20.4v-4z"/><circle fill="#BF8D60" cx="78" cy="199.5" r="12.9"/><path fill="#D8DADA" d="M73 187.6c1.5-.7 3.2-1 5-1 7 0 13 5.8 13 13 0 7-6 12.8-13 12.8-1.2 0-2.3 0-3.3-.4-1.2-6.6-1.8-13.4-1.8-20.4v-4z"/><circle fill="#EFC39C" cx="190" cy="191.6" r="112.3"/><path fill="#AA483D" d="M190 261.3c-4.6 0-8.8-2.5-11-6.4-.8-1.3-.4-2.8 1-3.5 1-.7 2.6-.3 3.3 1 1.4 2.2 4 3.7 6.7 3.7s5.2-1.5 6.6-3.8c.7-1.2 2.3-1.6 3.5-1 1.3.8 1.7 2.3 1 3.5-2.3 3.8-6.5 6.3-11 6.3z"/><path fill="#D8DADA" d="M190 79.4c-62 0-112.3 50.3-112.3 112.2 0 6.7.6 13.3 1.7 19.6l2.3-1.6c10.3-7.2 17.6-19 22.5-30.3 1 3 2 5.4 2.5 6.5l1.8 3.6 4-.6c5.6-.8 12.6-3.5 19.4-6.7l-.2 3 4.4 1c12.3 3 25.6 4.3 39.4 4.3 34.5 0 68.7-8.8 95-24.3 4.6 14 13 33.4 27.7 43.6l2.2 1.6c1-6.3 1.7-13 1.7-19.6 0-62-50.2-112.2-112.2-112.2z"/><circle fill="#1E252B" cx="130.7" cy="198.4" r="6.7"/><circle fill="#1E252B" cx="249.3" cy="198.4" r="6.7"/><path fill="#BA6954" d="M190 199.5l-8 15.7H198"/><path fill="#52331D" d="M190 76C83.5 76 65 186.6 78.5 205c14.7-10.2 23.3-32 27.4-47 .6 12.6 4.3 22.7 5.6 25.4 7.6-1 19-6.4 30.7-13-3.3 4.6-5 8.3-5 10.3 43.8 10 99.2 1.5 136.6-23 4 14.8 12.5 37 27.4 47.4 13.5-18.4-5-129-111.4-129z"/></g></g></g><circle clip-path="url(#b)" fill="#FFD923" cx="156" cy="28.6" r="13.7"/><circle clip-path="url(#b)" fill="#E74360" cx="68.6" cy="153.5" r="13.7"/><circle clip-path="url(#b)" fill="#FFD923" cx="31.2" cy="242.2" r="13.7"/><circle clip-path="url(#b)" fill="#FFD923" cx="294.2" cy="108.9" r="13.7"/><path clip-path="url(#b)" fill="#2F7DE1" d="M321.4 69.6L309 94h24.7"/><path clip-path="url(#b)" fill="#E74360" d="M84 321.8l19 19.8 8.3-23.2"/><g clip-path="url(#b)"><path fill="#2F7DE1" d="M338.5 124.2h1.7l.2 18h-1.7z"/><path fill="#00416A" d="M339.5 140c-5 0-14 16.5-13.8 25l.3 37.8 28-.3-.3-37.7c0-8.5-9.3-25-14.2-24.8z"/><path fill="#2F7DE1" d="M326 202.7l28-.2v6.2l-28 .2z"/><circle fill="#FFF" cx="339.7" cy="164.9" r="6.9"/><circle fill="#022A3A" cx="339.7" cy="164.9" r="4.8"/><path fill="#022A3A" d="M326 202.8s-11.4 6.4-11.4 9.8c0 3.4 6 12.6 7.2 14h2.7s-3.2-9.5-3.2-12c0-2.3 3-5 4.7-5.6v-6.2zM354 202.5s11.6 6.3 11.6 9.7c0 3.4-5.8 12.7-7 14H356s3-9.4 3-11.8c0-2.4-3.2-5-5-5.7v-6.2zM338.5 202.6h3l.3 23.8h-3z"/><circle fill="#022A3A" cx="339.3" cy="122.5" r="3.2"/><path fill="#95A8CB" d="M325.7 165l.3 37.8 14-.2-.5-62.6c-5 0-14 16.5-13.8 25z"/></g><g clip-path="url(#b)"><circle fill="#FFB819" cx="106" cy="59.4" r="21"/><g fill="#1E252B"><path d="M91.3 59.4c0 8 6.6 14.7 14.7 14.7 8 0 14.6-6.5 14.6-14.6H91.3z"/><circle cx="92.8" cy="53.7" r="1.8"/><circle cx="119.2" cy="53.7" r="1.8"/></g><path fill="#FFC843" d="M106 38.4c-11.6 0-21 9.4-21 21s9.4 21 21 21v-42z"/></g><path transform="rotate(-45 38.805 140.348)" clip-path="url(#b)" fill="#6CC04A" d="M29.5 131h18.7v18.7H29.5z"/><path transform="rotate(-45 288.545 283.218)" clip-path="url(#b)" fill="#6CC04A" d="M279.2 274H298v18.6H279z"/><g clip-path="url(#b)"><path fill="#7558B0" d="M28.4 165h16v5h-16z"/><path fill="#C3C6C8" d="M36.4 166.5c-3 0-5.6.5-8 1.3v2.2h16v-2.2c-2.4-.8-5-1.3-8-1.3z"/><path fill="#9778D3" d="M53.5 182.2c0 9.4-17 25.3-17 25.3s-17.2-16-17.2-25.3c0-9.4 7.6-14.6 17-14.6 9.5 0 17.2 5.2 17.2 14.6z"/><path fill="#7558B0" d="M24.8 194.5h23c1-1 1.6-2.2 2.3-3.2H22.7l2.2 3.2zm-5.4-11c0 1 .4 2 .8 3.2h32.3l1-3.3h-34z"/><path fill="#C3C6C8" d="M36.4 207.5s-17-16-17-25.3c0-9.4 7.5-14.6 17-14.6v40z"/><g><path fill="#5C6670" d="M39 205.8l1-1.8h-7.2l1 1.8h-1.2l3.8 5.8 3.7-5.8"/><path fill="#C3C6C8" d="M33.4 205l.3.8H39l.4-.8"/></g></g><g clip-path="url(#b)"><path fill="#2F7DE1" d="M41.8 267l32-4.2 4.4 32-32 4.4z"/><path fill="#FFF" d="M47.8 271.7l21.4-3 3 21.6-21.5 2.8z"/><text transform="rotate(-7.678 2180.465 -274.63)" fill="#1E252B" font-family="'LeagueSpartan-Bold'" font-size="18.4">1</text><path fill="#95A8CB" d="M41.8 267l16-2 4.4 32-16 2.2z"/></g><g clip-path="url(#b)"><path fill="#E74360" d="M193.3 42.8c0-7.2-5.8-13-13-13-3.3 0-6.3 1.3-8.6 3.3-2.2-2-5.2-3.2-8.5-3.2-7.2 0-13 5.8-13 13 0 13.5 18 25.4 21.5 27 3.5-1.6 21.6-13.5 21.6-27z"/><path fill="#C3C6C8" d="M171.8 33c-2.3-2-5.3-3.2-8.6-3.2-7.2 0-13 5.8-13 13 0 13.5 18 25.4 21.5 27V33.2z"/></g></svg>