<svg xmlns="http://www.w3.org/2000/svg" width="50" height="50" viewBox="515 935 50 50"><circle fill="#DC4E41" cx="540" cy="960" r="24"/><path fill="#DC4E41" d="M524.4 961c0 4.2 2.7 8 6.6 9.4 3.7 1.3 8.2.3 10.7-2.8 1.8-2.2 2.2-5.2 2-8h-9.5v3.4h5.7c-.6 1.7-1.7 3.2-3.3 3.8-3.2 1.4-7.3-.4-8.3-3.7-1.2-3 .8-7 4-8 2-.6 4.2.2 6 1.2l2.4-2.6c-2-1.6-4.5-2.6-7-2.4-5.2 0-9.6 4.8-9.4 10zM549.8 956.8v2.8H547v3h2.8v2.7h3v-2.8h2.7v-2.8h-2.8v-3h-3z"/><g fill="#FFF"><path d="M524.4 961c-.2-5 4.2-9.8 9.3-9.8 2.6-.2 5.2.8 7 2.4-.7 1-1.5 1.8-2.4 2.6-1.7-1-3.8-1.8-5.8-1-3.3.8-5.3 4.7-4 8 1 3.2 5 5 8.2 3.6 1.6-.6 2.7-2 3.2-3.7H534v-3.4h9.5c.2 2.8-.2 5.8-2 8-2.5 3-7 4-10.7 2.8-4-1.3-6.7-5.2-6.6-9.3zM549.8 956.8h3v2.8h2.7v3h-2.8v2.7h-3v-2.8H547v-2.8h2.8v-3z"/></g></svg>