<svg xmlns="http://www.w3.org/2000/svg" width="50" height="50" viewBox="515 935 50 50"><circle fill="#55ACEE" cx="540" cy="960" r="24.2"/><path fill="#F1F2F2" d="M554.8 953.2l-3.3 1c1.2-.8 2-2 2.6-3.3-1 .5-2.3 1-3.6 1.3-1-1-2.6-1.8-4.2-1.8-3.2 0-5.8 2.6-5.8 5.8v1.3c-4.7-.3-9-2.6-11.8-6-.5.8-.8 1.8-.8 2.8 0 2 1 3.8 2.6 5-1-.2-2-.4-2.7-1v.2c0 2.8 2 5.2 4.7 5.7l-1.5.2h-1.2c.7 2.2 2.8 4 5.4 4-2 1.5-4.5 2.4-7.2 2.4-.5 0-1 0-1.4-.2 2.6 1.7 5.6 2.6 9 2.6 10.5 0 16.4-8.8 16.4-16.5v-.8c1-.8 2-2 2.8-3z"/></svg>